<?xml version="1.0" encoding="utf-8" ?>
<svg baseProfile="full" height="210mm" version="1.1" viewBox="0 0 297 210" width="297mm" xmlns="http://www.w3.org/2000/svg" xmlns:ev="http://www.w3.org/2001/xml-events" xmlns:xlink="http://www.w3.org/1999/xlink"><defs /><rect fill="white" height="210mm" width="297mm" x="0" y="0" /><g fill="none" id="background" stroke="#F8F8F8" stroke-width="0.1" /><g fill="none" id="structure" stroke="#DDDDDD" stroke-width="0.3"><polyline fill="none" points="10,50 60,50 60,70 10,70 10,50" stroke="#DDDDDD" stroke-width="0.3" /><polyline fill="none" points="70,50 120,50 120,70 70,70 70,50" stroke="#DDDDDD" stroke-width="0.3" /><polyline fill="none" points="15,110 45,110 45,140 15,140 15,110" stroke="#DDDDDD" stroke-width="0.3" /><polyline fill="none" points="50,110 80,110 80,140 50,140 50,110" stroke="#DDDDDD" stroke-width="0.3" /><polyline fill="none" points="85,110 115,110 115,140 85,140 85,110" stroke="#DDDDDD" stroke-width="0.3" /><polyline fill="none" points="120,110 150,110 150,140 120,140 120,110" stroke="#DDDDDD" stroke-width="0.3" /><polyline fill="none" points="15,150 45,150 45,180 15,180 15,150" stroke="#DDDDDD" stroke-width="0.3" /><polyline fill="none" points="50,150 80,150 80,180 50,180 50,150" stroke="#DDDDDD" stroke-width="0.3" /><polyline fill="none" points="85,150 115,150 115,180 85,180 85,150" stroke="#DDDDDD" stroke-width="0.3" /><polyline fill="none" points="120,150 150,150 150,180 120,180 120,150" stroke="#DDDDDD" stroke-width="0.3" /></g><g fill="none" id="patterns" stroke="black" stroke-width="0.3"><line stroke="black" stroke-width="0.3" x1="60" x2="70" y1="60" y2="60" /><polyline fill="none" points="30.0,125.0 34.198029072746934,123.8859568544377" stroke="black" stroke-width="0.3" /><polyline fill="none" points="34.198029072746934,123.8859568544377 31.313698182888427,121.10484266956243" stroke="black" stroke-width="0.3" /><polyline fill="none" points="30.0,125.0 25.136981150148355,124.5277155296376" stroke="black" stroke-width="0.3" /><polyline fill="none" points="34.198029072746934,123.8859568544377 37.26861259342734,127.54965080067663" stroke="black" stroke-width="0.3" /><polyline fill="none" points="37.26861259342734,127.54965080067663 35.15563022321341,131.03659236199962" stroke="black" stroke-width="0.3" /><polyline fill="none" points="37.26861259342734,127.54965080067663 39.67207898539348,130.94945056230125" stroke="black" stroke-width="0.3" /><polyline fill="none" points="37.26861259342734,127.54965080067663 40.00015635841132,125.3386323719352" stroke="black" stroke-width="0.3" /><polyline fill="none" points="25.136981150148355,124.5277155296376 20.68626780589006,123.89476937338343" stroke="black" stroke-width="0.3" /><polyline fill="none" points="35.15563022321341,131.03659236199962 30.50997607989938,130.37110794021027" stroke="black" stroke-width="0.3" /><polyline fill="none" points="40.00015635841132,125.3386323719352 42.7037241676411,122.54023268060004" stroke="black" stroke-width="0.3" /><polyline fill="none" points="39.67207898539348,130.94945056230125 44.08366901012337,129.83481546573526" stroke="black" stroke-width="0.3" /><polyline fill="none" points="31.313698182888427,121.10484266956243 27.78391174180497,117.79681723057249" stroke="black" stroke-width="0.3" /><polyline fill="none" points="20.68626780589006,123.89476937338343 18.845980564116505,128.19393785182442" stroke="black" stroke-width="0.3" /><polyline fill="none" points="30.50997607989938,130.37110794021027 31.40730848846027,134.19212194047066" stroke="black" stroke-width="0.3" /><polyline fill="none" points="39.67207898539348,130.94945056230125 41.822196211162606,134.18461012387868" stroke="black" stroke-width="0.3" /><polyline fill="none" points="41.822196211162606,134.18461012387868 44.158257967847746,137.2373314104895" stroke="black" stroke-width="0.3" /><polyline fill="none" points="18.845980564116505,128.19393785182442 19.47710833068565,132.86774749182143" stroke="black" stroke-width="0.3" /><polyline fill="none" points="27.78391174180497,117.79681723057249 24.14238265625355,117.00624865016776" stroke="black" stroke-width="0.3" /><polyline fill="none" points="42.7037241676411,122.54023268060004 45.0,123.78938963154475" stroke="black" stroke-width="0.3" /><polyline fill="none" points="24.14238265625355,117.00624865016776 20.297722422058726,114.1124288562882" stroke="black" stroke-width="0.3" /><polyline fill="none" points="20.297722422058726,114.1124288562882 20.937495094215155,110.0" stroke="black" stroke-width="0.3" /><polyline fill="none" points="45.0,123.78938963154475 45.0,125.02075121406861" stroke="black" stroke-width="0.3" /><polyline fill="none" points="20.68626780589006,123.89476937338343 16.53889821164322,122.36900596744158" stroke="black" stroke-width="0.3" /><polyline fill="none" points="18.845980564116505,128.19393785182442 15.0,130.5585556224721" stroke="black" stroke-width="0.3" /><polyline fill="none" points="31.40730848846027,134.19212194047066 31.170180326549342,139.028204350591" stroke="black" stroke-width="0.3" /><polyline fill="none" points="44.158257967847746,137.2373314104895 43.96148931057192,140.0" stroke="black" stroke-width="0.3" /><polyline fill="none" points="44.08366901012337,129.83481546573526 45.0,132.4139180233895" stroke="black" stroke-width="0.3" /><polyline fill="none" points="42.7037241676411,122.54023268060004 41.08789656099165,117.9045443171649" stroke="black" stroke-width="0.3" /><polyline fill="none" points="20.937495094215155,110.0 16.192941343221968,110.0" stroke="black" stroke-width="0.3" /><polyline fill="none" points="16.53889821164322,122.36900596744158 15.0,121.86936304911288" stroke="black" stroke-width="0.3" /><polyline fill="none" points="44.158257967847746,137.2373314104895 45.0,135.89800875296058" stroke="black" stroke-width="0.3" /><polyline fill="none" points="45.0,123.78938963154475 45.0,121.71895790694533" stroke="black" stroke-width="0.3" /><polyline fill="none" points="15.0,130.5585556224721 15.0,130.5864563823146" stroke="black" stroke-width="0.3" /><polyline fill="none" points="41.08789656099165,117.9045443171649 45.0,115.31444779618391" stroke="black" stroke-width="0.3" /><polyline fill="none" points="15.0,121.86936304911288 15.0,122.86227012393317" stroke="black" stroke-width="0.3" /><polyline fill="none" points="43.96148931057192,140.0 44.872965602938436,140.0" stroke="black" stroke-width="0.3" /><polyline fill="none" points="20.937495094215155,110.0 24.638363284883606,110.0" stroke="black" stroke-width="0.3" /><polyline fill="none" points="31.170180326549342,139.028204350591 27.619581842907017,140.0" stroke="black" stroke-width="0.3" /><polyline fill="none" points="27.619581842907017,140.0 22.918111330756968,140.0" stroke="black" stroke-width="0.3" /><polyline fill="none" points="22.918111330756968,140.0 24.45107959252185,140.0" stroke="black" stroke-width="0.3" /><polyline fill="none" points="24.638363284883606,110.0 29.16440390935452,110.0" stroke="black" stroke-width="0.3" /><polyline fill="none" points="44.08366901012337,129.83481546573526 45.0,129.0368244603894" stroke="black" stroke-width="0.3" /><polyline fill="none" points="22.918111330756968,140.0 18.380951664682556,140.0" stroke="black" stroke-width="0.3" /><polyline fill="none" points="15.0,121.86936304911288 15.0,119.10473615465449" stroke="black" stroke-width="0.3" /><polyline fill="none" points="45.0,129.0368244603894 45.0,129.57594905153783" stroke="black" stroke-width="0.3" /><polyline fill="none" points="20.937495094215155,110.0 22.21085181000693,110.0" stroke="black" stroke-width="0.3" /><polyline fill="none" points="45.0,115.31444779618391 45.0,113.72356612801647" stroke="black" stroke-width="0.3" /><polyline fill="none" points="15.0,119.10473615465449 15.0,115.50767880509484" stroke="black" stroke-width="0.3" /><polyline fill="none" points="45.0,129.57594905153783 45.0,130.5373542180916" stroke="black" stroke-width="0.3" /><polyline fill="none" points="16.192941343221968,110.0 15.0,111.54692680274636" stroke="black" stroke-width="0.3" /><polyline fill="none" points="85.0,110.0 85.0,140.0" stroke="black" stroke-width="0.3" /><polyline fill="none" points="90.0,110.0 90.0,140.0" stroke="black" stroke-width="0.3" /><polyline fill="none" points="95.0,110.0 95.0,140.0" stroke="black" stroke-width="0.3" /><polyline fill="none" points="100.0,110.0 100.0,140.0" stroke="black" stroke-width="0.3" /><polyline fill="none" points="105.0,110.0 105.0,140.0" stroke="black" stroke-width="0.3" /><polyline fill="none" points="110.0,110.0 110.0,140.0" stroke="black" stroke-width="0.3" /><polyline fill="none" points="115.0,110.0 115.0,140.0" stroke="black" stroke-width="0.3" /><polyline fill="none" points="85.0,110.0 115.0,110.0" stroke="black" stroke-width="0.3" /><polyline fill="none" points="85.0,115.0 115.0,115.0" stroke="black" stroke-width="0.3" /><polyline fill="none" points="85.0,120.0 115.0,120.0" stroke="black" stroke-width="0.3" /><polyline fill="none" points="85.0,125.0 115.0,125.0" stroke="black" stroke-width="0.3" /><polyline fill="none" points="85.0,130.0 115.0,130.0" stroke="black" stroke-width="0.3" /><polyline fill="none" points="85.0,135.0 115.0,135.0" stroke="black" stroke-width="0.3" /><polyline fill="none" points="85.0,140.0 115.0,140.0" stroke="black" stroke-width="0.3" /><polyline fill="none" points="120.0,111.0 121.0,112.0" stroke="black" stroke-width="0.3" /><polyline fill="none" points="124.0,111.0 123.0,112.0" stroke="black" stroke-width="0.3" /><polyline fill="none" points="124.0,111.0 126.0,111.0" stroke="black" stroke-width="0.3" /><polyline fill="none" points="126.0,111.0 128.0,111.0" stroke="black" stroke-width="0.3" /><polyline fill="none" points="129.0,110.0 128.0,111.0" stroke="black" stroke-width="0.3" /><polyline fill="none" points="135.0,110.0 135.0,112.0" stroke="black" stroke-width="0.3" /><polyline fill="none" points="144.0,111.0 143.0,112.0" stroke="black" stroke-width="0.3" /><polyline fill="none" points="145.0,110.0 144.0,111.0" stroke="black" stroke-width="0.3" /><polyline fill="none" points="121.0,112.0 120.0,113.0" stroke="black" stroke-width="0.3" /><polyline fill="none" points="123.0,112.0 124.0,113.0" stroke="black" stroke-width="0.3" /><polyline fill="none" points="124.0,113.0 125.0,114.0" stroke="black" stroke-width="0.3" /><polyline fill="none" points="132.0,113.0 131.0,114.0" stroke="black" stroke-width="0.3" /><polyline fill="none" points="132.0,113.0 134.0,113.0" stroke="black" stroke-width="0.3" /><polyline fill="none" points="135.0,112.0 134.0,113.0" stroke="black" stroke-width="0.3" /><polyline fill="none" points="143.0,112.0 143.0,114.0" stroke="black" stroke-width="0.3" /><polyline fill="none" points="125.0,114.0 125.0,116.0" stroke="black" stroke-width="0.3" /><polyline fill="none" points="131.0,114.0 131.0,116.0" stroke="black" stroke-width="0.3" /><polyline fill="none" points="138.0,115.0 137.0,116.0" stroke="black" stroke-width="0.3" /><polyline fill="none" points="138.0,115.0 140.0,115.0" stroke="black" stroke-width="0.3" /><polyline fill="none" points="140.0,115.0 141.0,116.0" stroke="black" stroke-width="0.3" /><polyline fill="none" points="143.0,114.0 143.0,116.0" stroke="black" stroke-width="0.3" /><polyline fill="none" points="125.0,116.0 126.0,117.0" stroke="black" stroke-width="0.3" /><polyline fill="none" points="126.0,117.0 128.0,117.0" stroke="black" stroke-width="0.3" /><polyline fill="none" points="128.0,117.0 130.0,117.0" stroke="black" stroke-width="0.3" /><polyline fill="none" points="131.0,116.0 130.0,117.0" stroke="black" stroke-width="0.3" /><polyline fill="none" points="137.0,116.0 137.0,118.0" stroke="black" stroke-width="0.3" /><polyline fill="none" points="140.0,117.0 139.0,118.0" stroke="black" stroke-width="0.3" /><polyline fill="none" points="141.0,116.0 140.0,117.0" stroke="black" stroke-width="0.3" /><polyline fill="none" points="143.0,116.0 144.0,117.0" stroke="black" stroke-width="0.3" /><polyline fill="none" points="144.0,117.0 145.0,118.0" stroke="black" stroke-width="0.3" /><polyline fill="none" points="148.0,117.0 147.0,118.0" stroke="black" stroke-width="0.3" /><polyline fill="none" points="120.0,119.0 122.0,119.0" stroke="black" stroke-width="0.3" /><polyline fill="none" points="122.0,119.0 123.0,120.0" stroke="black" stroke-width="0.3" /><polyline fill="none" points="136.0,119.0 135.0,120.0" stroke="black" stroke-width="0.3" /><polyline fill="none" points="137.0,118.0 136.0,119.0" stroke="black" stroke-width="0.3" /><polyline fill="none" points="139.0,118.0 139.0,120.0" stroke="black" stroke-width="0.3" /><polyline fill="none" points="145.0,118.0 145.0,120.0" stroke="black" stroke-width="0.3" /><polyline fill="none" points="147.0,118.0 147.0,120.0" stroke="black" stroke-width="0.3" /><polyline fill="none" points="120.0,121.0 121.0,122.0" stroke="black" stroke-width="0.3" /><polyline fill="none" points="123.0,120.0 123.0,122.0" stroke="black" stroke-width="0.3" /><polyline fill="none" points="135.0,120.0 136.0,121.0" stroke="black" stroke-width="0.3" /><polyline fill="none" points="136.0,121.0 137.0,122.0" stroke="black" stroke-width="0.3" /><polyline fill="none" points="139.0,120.0 140.0,121.0" stroke="black" stroke-width="0.3" /><polyline fill="none" points="140.0,121.0 142.0,121.0" stroke="black" stroke-width="0.3" /><polyline fill="none" points="142.0,121.0 143.0,122.0" stroke="black" stroke-width="0.3" /><polyline fill="none" points="145.0,120.0 145.0,122.0" stroke="black" stroke-width="0.3" /><polyline fill="none" points="147.0,120.0 147.0,122.0" stroke="black" stroke-width="0.3" /><polyline fill="none" points="121.0,122.0 120.0,123.0" stroke="black" stroke-width="0.3" /><polyline fill="none" points="122.0,123.0 121.0,124.0" stroke="black" stroke-width="0.3" /><polyline fill="none" points="123.0,122.0 122.0,123.0" stroke="black" stroke-width="0.3" /><polyline fill="none" points="100.0,175.0 100.0,177.0" stroke="black" stroke-width="0.3" /><polyline fill="none" points="100.0,177.0 100.0,179.0" stroke="black" stroke-width="0.3" /><polyline fill="none" points="100.0,179.0 100.0,181.0" stroke="black" stroke-width="0.3" /><polyline fill="none" points="100.0,181.0 100.0,183.0" stroke="black" stroke-width="0.3" /><polyline fill="none" points="100.0,183.0 100.8452365234814,184.8126155740733" stroke="black" stroke-width="0.3" /><polyline fill="none" points="100.8452365234814,184.8126155740733 101.6904730469628,186.6252311481466" stroke="black" stroke-width="0.3" /><polyline fill="none" points="101.6904730469628,186.6252311481466 103.22256193320075,187.91080636751968" stroke="black" stroke-width="0.3" /><polyline fill="none" points="103.22256193320075,187.91080636751968 104.75465081943871,189.19638158689276" stroke="black" stroke-width="0.3" /><polyline fill="none" points="104.75465081943871,189.19638158689276 105.59988734292011,191.00899716096606" stroke="black" stroke-width="0.3" /><polyline fill="none" points="101.6904730469628,186.6252311481466 102.5357095704442,188.4378467222199" stroke="black" stroke-width="0.3" /><polyline fill="none" points="102.5357095704442,188.4378467222199 103.3809460939256,190.2504622962932" stroke="black" stroke-width="0.3" /><polyline fill="none" points="103.3809460939256,190.2504622962932 103.3809460939256,192.2504622962932" stroke="black" stroke-width="0.3" /><polyline fill="none" points="101.6904730469628,186.6252311481466 102.5357095704442,188.4378467222199" stroke="black" stroke-width="0.3" /><polyline fill="none" points="102.5357095704442,188.4378467222199 103.3809460939256,190.2504622962932" stroke="black" stroke-width="0.3" /><polyline fill="none" points="103.3809460939256,190.2504622962932 103.3809460939256,192.2504622962932" stroke="black" stroke-width="0.3" /><polyline fill="none" points="103.3809460939256,192.2504622962932 103.3809460939256,194.2504622962932" stroke="black" stroke-width="0.3" /><polyline fill="none" points="103.3809460939256,194.2504622962932 103.3809460939256,196.2504622962932" stroke="black" stroke-width="0.3" /><polyline fill="none" points="103.3809460939256,196.2504622962932 103.3809460939256,198.2504622962932" stroke="black" stroke-width="0.3" /><polyline fill="none" points="103.3809460939256,198.2504622962932 102.5357095704442,200.0630778703665" stroke="black" stroke-width="0.3" /><polyline fill="none" points="103.3809460939256,190.2504622962932 104.91303498016356,191.53603751566627" stroke="black" stroke-width="0.3" /><polyline fill="none" points="104.91303498016356,191.53603751566627 106.44512386640152,192.82161273503937" stroke="black" stroke-width="0.3" /><polyline fill="none" points="106.44512386640152,192.82161273503937 107.29036038988292,194.63422830911264" stroke="black" stroke-width="0.3" /><polyline fill="none" points="100.0,183.0 100.0,185.0" stroke="black" stroke-width="0.3" /><polyline fill="none" points="100.0,185.0 100.0,187.0" stroke="black" stroke-width="0.3" /><polyline fill="none" points="100.0,187.0 100.8452365234814,188.8126155740733" stroke="black" stroke-width="0.3" /><polyline fill="none" points="100.8452365234814,188.8126155740733 101.6904730469628,190.6252311481466" stroke="black" stroke-width="0.3" /><polyline fill="none" points="101.6904730469628,190.6252311481466 101.6904730469628,192.6252311481466" stroke="black" stroke-width="0.3" /><polyline fill="none" points="100.0,187.0 100.0,189.0" stroke="black" stroke-width="0.3" /><polyline fill="none" points="100.0,189.0 100.0,191.0" stroke="black" stroke-width="0.3" /><polyline fill="none" points="100.0,191.0 99.1547634765186,192.8126155740733" stroke="black" stroke-width="0.3" /><polyline fill="none" points="100.0,187.0 100.0,189.0" stroke="black" stroke-width="0.3" /><polyline fill="none" points="100.0,189.0 100.0,191.0" stroke="black" stroke-width="0.3" /><polyline fill="none" points="100.0,191.0 99.1547634765186,192.8126155740733" stroke="black" stroke-width="0.3" /><polyline fill="none" points="99.1547634765186,192.8126155740733 98.3095269530372,194.6252311481466" stroke="black" stroke-width="0.3" /><polyline fill="none" points="98.3095269530372,194.6252311481466 97.4642904295558,196.4378467222199" stroke="black" stroke-width="0.3" /><polyline fill="none" points="97.4642904295558,196.4378467222199 96.61905390607441,198.2504622962932" stroke="black" stroke-width="0.3" /><polyline fill="none" points="96.61905390607441,198.2504622962932 95.08696501983646,199.53603751566627" stroke="black" stroke-width="0.3" /><polyline fill="none" points="100.0,191.0 100.8452365234814,192.8126155740733" stroke="black" stroke-width="0.3" /><polyline fill="none" points="100.8452365234814,192.8126155740733 101.6904730469628,194.6252311481466" stroke="black" stroke-width="0.3" /><polyline fill="none" points="101.6904730469628,194.6252311481466 101.6904730469628,196.6252311481466" stroke="black" stroke-width="0.3" /><polyline fill="none" points="100.0,183.0 100.0,185.0" stroke="black" stroke-width="0.3" /><polyline fill="none" points="100.0,185.0 100.0,187.0" stroke="black" stroke-width="0.3" /><polyline fill="none" points="100.0,187.0 100.0,189.0" stroke="black" stroke-width="0.3" /><polyline fill="none" points="100.0,189.0 100.0,191.0" stroke="black" stroke-width="0.3" /><polyline fill="none" points="100.0,191.0 99.1547634765186,192.8126155740733" stroke="black" stroke-width="0.3" /><polyline fill="none" points="99.1547634765186,192.8126155740733 98.3095269530372,194.6252311481466" stroke="black" stroke-width="0.3" /><polyline fill="none" points="98.3095269530372,194.6252311481466 97.4642904295558,196.4378467222199" stroke="black" stroke-width="0.3" /><polyline fill="none" points="97.4642904295558,196.4378467222199 96.61905390607441,198.2504622962932" stroke="black" stroke-width="0.3" /><polyline fill="none" points="96.61905390607441,198.2504622962932 95.77381738259301,200.0630778703665" stroke="black" stroke-width="0.3" /><polyline fill="none" points="95.77381738259301,200.0630778703665 94.9285808591116,201.87569344443978" stroke="black" stroke-width="0.3" /></g><g fill="none" id="highlights" stroke="#4A90E2" stroke-width="0.4" /><g fill="none" id="annotations" stroke="#333333" stroke-width="0.3" /><text fill="black" font-family="monospace" font-size="16pt" font-weight="bold" x="10" y="15">AXIART</text><text fill="#666666" font-family="monospace" font-size="7pt" x="10" y="25">Algorithmic Art for Pen Plotters</text><text fill="black" font-family="monospace" font-size="8pt" font-weight="bold" x="10" y="45">ARCHITECTURE</text><text fill="black" font-family="monospace" font-size="6pt" x="17" y="63">Python API</text><text fill="black" font-family="monospace" font-size="6pt" x="80" y="63">Rust Core</text><text fill="black" font-family="monospace" font-size="10pt" x="62" y="63">→</text><text fill="#4A90E2" font-family="monospace" font-size="5pt" font-weight="bold" x="12" y="80">100-300x faster</text><text fill="black" font-family="monospace" font-size="8pt" font-weight="bold" x="10" y="100">8 PATTERN GENERATORS</text><text fill="#666666" font-family="monospace" font-size="4pt" x="17" y="108">DENDRITE</text><text fill="#666666" font-family="monospace" font-size="4pt" x="52" y="108">SPIRAL</text><text fill="#666666" font-family="monospace" font-size="4pt" x="87" y="108">GRID</text><text fill="#666666" font-family="monospace" font-size="4pt" x="122" y="108">NOISE</text><text fill="#666666" font-family="monospace" font-size="4pt" x="17" y="148">FLOW</text><text fill="#666666" font-family="monospace" font-size="4pt" x="52" y="148">VORONOI</text><text fill="#666666" font-family="monospace" font-size="4pt" x="87" y="148">L-SYSTEM</text><text fill="#666666" font-family="monospace" font-size="4pt" x="122" y="148">TRUCHET</text><text fill="black" font-family="monospace" font-size="8pt" font-weight="bold" x="160" y="45">WHAT YOU CAN BUILD</text><text fill="#333333" font-family="monospace" font-size="5pt" x="162" y="55">• Portraits (realistic)</text><text fill="#333333" font-family="monospace" font-size="5pt" x="162" y="63">• Abstract compositions</text><text fill="#333333" font-family="monospace" font-size="5pt" x="162" y="71">• Landscapes</text><text fill="#333333" font-family="monospace" font-size="5pt" x="162" y="79">• Organic textures</text><text fill="#333333" font-family="monospace" font-size="5pt" x="162" y="87">• Geometric patterns</text><text fill="#333333" font-family="monospace" font-size="5pt" x="162" y="95">• Scientific visualizations</text><text fill="black" font-family="monospace" font-size="8pt" font-weight="bold" x="160" y="110">PERFORMANCE</text><text fill="#333333" font-family="monospace" font-size="5pt" x="162" y="120">Dendrite:</text><text fill="#4A90E2" font-family="monospace" font-size="5pt" font-weight="bold" x="210" y="120">920 particles/sec</text><text fill="#333333" font-family="monospace" font-size="5pt" x="162" y="127">Spiral:</text><text fill="#4A90E2" font-family="monospace" font-size="5pt" font-weight="bold" x="210" y="127">12M points/sec</text><text fill="#333333" font-family="monospace" font-size="5pt" x="162" y="134">Grid:</text><text fill="#4A90E2" font-family="monospace" font-size="5pt" font-weight="bold" x="210" y="134">8M points/sec</text><text fill="#333333" font-family="monospace" font-size="5pt" x="162" y="141">Noise:</text><text fill="#4A90E2" font-family="monospace" font-size="5pt" font-weight="bold" x="210" y="141">1.67M segments/sec</text><text fill="#333333" font-family="monospace" font-size="5pt" x="162" y="148">Flow Field:</text><text fill="#4A90E2" font-family="monospace" font-size="5pt" font-weight="bold" x="210" y="148">12.5M points/sec</text><text fill="black" font-family="monospace" font-size="8pt" font-weight="bold" x="160" y="160">CORE MODULES</text><text fill="#333333" font-family="monospace" font-size="5pt" x="162" y="170">• SVGCanvas - Drawing primitives</text><text fill="#333333" font-family="monospace" font-size="5pt" x="162" y="177">• Composition - Layer system</text><text fill="#333333" font-family="monospace" font-size="5pt" x="162" y="184">• Shapes - Geometric forms</text><text fill="#333333" font-family="monospace" font-size="5pt" x="162" y="191">• Patterns - 8 generators</text><text fill="#999999" font-family="monospace" font-size="4pt" x="10" y="205">Rust-accelerated • Pen plotter optimized • 1,646 LOC Python + 2,632 LOC Rust</text></svg>