<?xml version="1.0" encoding="utf-8" ?>
<svg baseProfile="full" height="210mm" version="1.1" viewBox="0 0 297 210" width="297mm" xmlns="http://www.w3.org/2000/svg" xmlns:ev="http://www.w3.org/2001/xml-events" xmlns:xlink="http://www.w3.org/1999/xlink"><defs /><rect fill="white" height="210mm" width="297mm" x="0" y="0" /><g fill="none" id="grid" stroke="#DDDDDD" stroke-width="0.1"><polyline fill="none" points="0.0,0.0 0.0,210.0" stroke="#DDDDDD" stroke-width="0.1" /><polyline fill="none" points="30.0,0.0 30.0,210.0" stroke="#DDDDDD" stroke-width="0.1" /><polyline fill="none" points="60.0,0.0 60.0,210.0" stroke="#DDDDDD" stroke-width="0.1" /><polyline fill="none" points="90.0,0.0 90.0,210.0" stroke="#DDDDDD" stroke-width="0.1" /><polyline fill="none" points="120.0,0.0 120.0,210.0" stroke="#DDDDDD" stroke-width="0.1" /><polyline fill="none" points="150.0,0.0 150.0,210.0" stroke="#DDDDDD" stroke-width="0.1" /><polyline fill="none" points="180.0,0.0 180.0,210.0" stroke="#DDDDDD" stroke-width="0.1" /><polyline fill="none" points="210.0,0.0 210.0,210.0" stroke="#DDDDDD" stroke-width="0.1" /><polyline fill="none" points="240.0,0.0 240.0,210.0" stroke="#DDDDDD" stroke-width="0.1" /><polyline fill="none" points="270.0,0.0 270.0,210.0" stroke="#DDDDDD" stroke-width="0.1" /><polyline fill="none" points="0.0,0.0 297.0,0.0" stroke="#DDDDDD" stroke-width="0.1" /><polyline fill="none" points="0.0,30.0 297.0,30.0" stroke="#DDDDDD" stroke-width="0.1" /><polyline fill="none" points="0.0,60.0 297.0,60.0" stroke="#DDDDDD" stroke-width="0.1" /><polyline fill="none" points="0.0,90.0 297.0,90.0" stroke="#DDDDDD" stroke-width="0.1" /><polyline fill="none" points="0.0,120.0 297.0,120.0" stroke="#DDDDDD" stroke-width="0.1" /><polyline fill="none" points="0.0,150.0 297.0,150.0" stroke="#DDDDDD" stroke-width="0.1" /><polyline fill="none" points="0.0,180.0 297.0,180.0" stroke="#DDDDDD" stroke-width="0.1" /><polyline fill="none" points="0.0,210.0 297.0,210.0" stroke="#DDDDDD" stroke-width="0.1" /></g><g fill="none" id="zones" stroke="#F5F5F5" stroke-width="0.3"><polyline fill="none" points="15,15 140,15 140,195 15,195 15,15" stroke="#F5F5F5" stroke-width="0.3" /><polyline fill="none" points="157,15 282,15 282,195 157,195 157,15" stroke="#F5F5F5" stroke-width="0.3" /></g><g fill="none" id="dependencies" stroke="#AAAAAA" stroke-width="0.2"><line stroke="#AAAAAA" stroke-width="0.2" x1="35" x2="178" y1="70" y2="70" /><line stroke="#AAAAAA" stroke-width="0.2" x1="35" x2="178" y1="105" y2="105" /><line stroke="#AAAAAA" stroke-width="0.2" x1="35" x2="178" y1="140" y2="140" /><line stroke="#AAAAAA" stroke-width="0.2" x1="119" x2="262" y1="70" y2="70" /><line stroke="#AAAAAA" stroke-width="0.2" x1="119" x2="262" y1="105" y2="105" /><line stroke="#AAAAAA" stroke-width="0.2" x1="119" x2="220" y1="140" y2="140" /><line stroke="#AAAAAA" stroke-width="0.2" x1="77" x2="220" y1="175" y2="35" /><line stroke="#AAAAAA" stroke-width="0.2" x1="35" x2="178" y1="175" y2="35" /></g><g fill="none" id="files" stroke="black" stroke-width="0.4"><polyline fill="none" points="82.62284418654735,55.0 82.59576865490949,55.55113510768407 82.51480281216652,56.09696248300004 82.38072640364453,56.63222550994403 82.19483065845118,57.15176931296203 81.95890585423365,57.65059040121945 81.67522407582615,58.12388485495303 81.346517333831,58.56709458984424 80.975951253863,58.975951253862995 80.56709458984425,59.346517333831 80.12388485495303,59.67522407582615 79.65059040121946,59.95890585423364 79.15176931296203,60.19483065845118 78.63222550994404,60.38072640364453 78.09696248300004,60.51480281216653 77.55113510768406,60.595768654909484 77.0,60.62284418654736 76.44886489231594,60.595768654909484 75.90303751699996,60.51480281216653 75.36777449005596,60.38072640364453 74.84823068703797,60.19483065845118 74.34940959878054,59.95890585423365 73.87611514504697,59.67522407582615 73.43290541015575,59.346517333831 73.02404874613701,58.975951253862995 72.653482666169,58.56709458984424 72.32477592417385,58.12388485495303 72.04109414576635,57.65059040121946 71.80516934154882,57.15176931296204 71.61927359635547,56.63222550994403 71.48519718783348,56.09696248300004 71.40423134509052,55.55113510768407 71.37715581345265,55.0 71.40423134509051,54.44886489231593 71.48519718783348,53.90303751699996 71.61927359635547,53.36777449005597 71.80516934154882,52.84823068703797 72.04109414576635,52.34940959878055 72.32477592417385,51.87611514504697 72.653482666169,51.43290541015576 73.024048746137,51.024048746137005 73.43290541015575,50.653482666169 73.87611514504697,50.32477592417385 74.34940959878054,50.04109414576636 74.84823068703797,49.80516934154882 75.36777449005596,49.61927359635547 75.90303751699996,49.48519718783348 76.44886489231594,49.404231345090516 77.0,49.37715581345264 77.55113510768406,49.404231345090516 78.09696248300004,49.48519718783347 78.63222550994402,49.61927359635547 79.15176931296203,49.80516934154882 79.65059040121946,50.04109414576635 80.12388485495303,50.32477592417385 80.56709458984425,50.653482666169 80.97595125386299,51.024048746137005 81.346517333831,51.432905410155755 81.67522407582615,51.87611514504697 81.95890585423365,52.34940959878054 82.19483065845118,52.84823068703796 82.38072640364453,53.36777449005597 82.51480281216652,53.90303751699996 82.59576865490949,54.44886489231593 82.62284418654735,55.0" stroke="black" stroke-width="0.4" /><polyline fill="none" points="83.25,155.0 83.21990454170123,155.61260712705976 83.1299080025202,156.2193145126008 82.9808770983263,156.8142792328404 82.77424707819554,157.3917714522818 82.51200790217722,157.94622960516247 82.1966850768909,158.47231395637252 81.83131533351711,158.96495802602277 81.41941738241593,159.41941738241593 80.96495802602279,159.8313153335171 80.47231395637252,160.1966850768909 79.94622960516249,160.51200790217723 79.39177145228182,160.77424707819554 78.81427923284039,160.98087709832632 78.2193145126008,161.12990800252018 77.61260712705976,161.21990454170123 77.0,161.25 76.38739287294024,161.21990454170123 75.7806854873992,161.12990800252018 75.18572076715961,160.98087709832632 74.60822854771818,160.77424707819554 74.05377039483751,160.51200790217723 73.52768604362748,160.1966850768909 73.03504197397721,159.8313153335171 72.58058261758408,159.41941738241593 72.16868466648289,158.96495802602277 71.8033149231091,158.47231395637252 71.48799209782278,157.9462296051625 71.22575292180446,157.3917714522818 71.0191229016737,156.8142792328404 70.8700919974798,156.21931451260082 70.78009545829877,155.61260712705976 70.75,155.0 70.78009545829877,154.38739287294024 70.8700919974798,153.7806854873992 71.0191229016737,153.1857207671596 71.22575292180446,152.6082285477182 71.48799209782278,152.05377039483753 71.80331492310908,151.52768604362748 72.16868466648289,151.03504197397723 72.58058261758407,150.58058261758407 73.03504197397721,150.1686846664829 73.52768604362748,149.8033149231091 74.05377039483751,149.48799209782277 74.60822854771818,149.22575292180446 75.18572076715961,149.01912290167368 75.7806854873992,148.87009199747982 76.38739287294025,148.78009545829877 77.0,148.75 77.61260712705975,148.78009545829877 78.2193145126008,148.87009199747982 78.81427923284039,149.01912290167368 79.39177145228182,149.22575292180446 79.94622960516249,149.48799209782277 80.47231395637252,149.8033149231091 80.96495802602279,150.1686846664829 81.41941738241592,150.58058261758407 81.8313153335171,151.0350419739772 82.1966850768909,151.52768604362748 82.51200790217722,152.0537703948375 82.77424707819554,152.6082285477182 82.9808770983263,153.1857207671596 83.1299080025202,153.78068548739918 83.21990454170123,154.38739287294024 83.25,155.0" stroke="black" stroke-width="0.4" /><polyline fill="none" points="39.51246890528022,70.0 39.490740134118084,70.44229929792164 39.42576308057612,70.88033901181889 39.318163509200005,71.30990057979007 39.16897766268201,71.72684708911338 38.97964228227737,72.12716311697788 38.751980771200635,72.50699340120025 38.48818563425592,72.86267996850705 38.19079736281708,73.19079736281708 37.86267996850705,73.48818563425591 37.50699340120024,73.75198077120064 37.12716311697788,73.97964228227737 36.72684708911338,74.16897766268201 36.30990057979007,74.3181635092 35.88033901181888,74.42576308057612 35.44229929792163,74.49074013411808 35.0,74.51246890528023 34.55770070207837,74.49074013411808 34.11966098818112,74.42576308057612 33.69009942020993,74.3181635092 33.27315291088662,74.16897766268201 32.872836883022124,73.97964228227737 32.49300659879976,73.75198077120064 32.13732003149295,73.48818563425591 31.809202637182917,73.19079736281708 31.511814365744083,72.86267996850705 31.24801922879936,72.50699340120025 31.02035771772263,72.12716311697788 30.83102233731799,71.72684708911338 30.68183649079999,71.30990057979007 30.57423691942388,70.88033901181889 30.509259865881916,70.44229929792164 30.487531094719778,70.0 30.509259865881916,69.55770070207836 30.57423691942388,69.11966098818111 30.68183649079999,68.69009942020993 30.83102233731799,68.27315291088662 31.02035771772263,67.87283688302212 31.24801922879936,67.49300659879975 31.51181436574408,67.13732003149295 31.809202637182917,66.80920263718292 32.13732003149295,66.51181436574409 32.49300659879976,66.24801922879936 32.87283688302212,66.02035771772263 33.27315291088662,65.83102233731799 33.69009942020993,65.6818364908 34.11966098818112,65.57423691942388 34.55770070207837,65.50925986588192 35.0,65.48753109471977 35.44229929792163,65.50925986588192 35.88033901181888,65.57423691942388 36.30990057979007,65.6818364908 36.72684708911338,65.83102233731799 37.127163116977876,66.02035771772263 37.50699340120024,66.24801922879936 37.86267996850705,66.51181436574409 38.19079736281708,66.80920263718292 38.48818563425591,67.13732003149295 38.751980771200635,67.49300659879975 38.97964228227737,67.87283688302212 39.16897766268201,68.27315291088662 39.318163509200005,68.69009942020993 39.42576308057612,69.11966098818111 39.490740134118084,69.55770070207836 39.51246890528022,70.0" stroke="black" stroke-width="0.4" /><polyline fill="none" points="40.21130814466628,105.0 40.186214271554306,105.51079752171634 40.11117431993416,106.01667578406821 39.986910965560945,106.512762902848 39.814620932466546,106.99428128791304 39.59596346785297,107.45659365399042 39.33304436263477,107.8952476802692 39.02839567152141,108.3060188886836 38.684951327946216,108.68495132794621 38.306018888683596,109.02839567152141 37.8952476802692,109.33304436263477 37.45659365399043,109.59596346785297 36.99428128791304,109.81462093246654 36.512762902848,109.98691096556095 36.01667578406822,110.11117431993416 35.51079752171634,110.1862142715543 35.0,110.21130814466628 34.489202478283666,110.1862142715543 33.98332421593178,110.11117431993416 33.487237097152,109.98691096556095 33.00571871208696,109.81462093246654 32.54340634600957,109.59596346785297 32.10475231973081,109.33304436263477 31.693981111316404,109.02839567152141 31.315048672053788,108.68495132794621 30.97160432847859,108.3060188886836 30.66695563736523,107.8952476802692 30.404036532147032,107.45659365399042 30.185379067533454,106.99428128791304 30.013089034439055,106.51276290284801 29.888825680065843,106.01667578406821 29.813785728445694,105.51079752171634 29.788691855333717,105.0 29.813785728445694,104.48920247828366 29.888825680065843,103.98332421593179 30.013089034439055,103.487237097152 30.185379067533454,103.00571871208696 30.404036532147032,102.54340634600958 30.666955637365227,102.1047523197308 30.97160432847859,101.6939811113164 31.315048672053784,101.31504867205379 31.6939811113164,100.97160432847859 32.1047523197308,100.66695563736523 32.54340634600957,100.40403653214703 33.00571871208696,100.18537906753346 33.487237097152,100.01308903443905 33.98332421593178,99.88882568006585 34.489202478283666,99.8137857284457 35.0,99.78869185533372 35.510797521716334,99.8137857284457 36.01667578406822,99.88882568006584 36.512762902848,100.01308903443905 36.99428128791304,100.18537906753346 37.45659365399043,100.40403653214703 37.89524768026919,100.66695563736523 38.306018888683596,100.97160432847859 38.684951327946216,101.31504867205379 39.02839567152141,101.6939811113164 39.33304436263477,102.1047523197308 39.59596346785297,102.54340634600958 39.814620932466546,103.00571871208696 39.986910965560945,103.48723709715199 40.11117431993416,103.98332421593179 40.186214271554306,104.48920247828366 40.21130814466628,105.0" stroke="black" stroke-width="0.4" /><polyline fill="none" points="39.73861278752583,140.0 39.715795071759274,140.46446527456237 39.647561671535854,140.92445749462814 39.534569711799904,141.37554668366082 39.37790736689137,141.8133886061795 39.17908338083206,142.23376660512162 38.940012537295985,142.63263221055539 38.6629972191958,143.00614412865835 38.3507052354768,143.3507052354768 38.006144128658356,143.6629972191958 37.63263221055539,143.94001253729598 37.23376660512162,144.17908338083205 36.813388606179494,144.37790736689138 36.3755466836608,144.53456971179992 35.92445749462816,144.64756167153587 35.46446527456237,144.71579507175926 35.0,144.73861278752582 34.53553472543763,144.71579507175926 34.07554250537184,144.64756167153587 33.6244533163392,144.53456971179992 33.18661139382051,144.37790736689138 32.76623339487838,144.17908338083205 32.36736778944461,143.94001253729598 31.993855871341644,143.6629972191958 31.649294764523198,143.3507052354768 31.337002780804195,143.00614412865835 31.059987462704015,142.63263221055539 30.82091661916794,142.23376660512162 30.62209263310863,141.8133886061795 30.465430288200096,141.37554668366082 30.352438328464146,140.92445749462817 30.28420492824073,140.46446527456237 30.26138721247417,140.0 30.28420492824073,139.53553472543763 30.352438328464146,139.07554250537183 30.465430288200093,138.62445331633918 30.62209263310863,138.1866113938205 30.82091661916794,137.76623339487838 31.059987462704015,137.36736778944461 31.337002780804195,136.99385587134165 31.649294764523198,136.6492947645232 31.99385587134164,136.3370027808042 32.36736778944461,136.05998746270402 32.76623339487838,135.82091661916795 33.186611393820506,135.62209263310862 33.6244533163392,135.46543028820008 34.07554250537184,135.35243832846413 34.53553472543763,135.28420492824074 35.0,135.26138721247418 35.464465274562365,135.28420492824074 35.92445749462816,135.35243832846413 36.3755466836608,135.46543028820008 36.813388606179494,135.62209263310862 37.23376660512162,135.82091661916795 37.63263221055539,136.05998746270402 38.006144128658356,136.3370027808042 38.3507052354768,136.6492947645232 38.6629972191958,136.99385587134165 38.940012537295985,137.36736778944461 39.17908338083206,137.76623339487838 39.37790736689137,138.1866113938205 39.534569711799904,138.62445331633918 39.647561671535854,139.07554250537183 39.715795071759274,139.53553472543763 39.73861278752583,140.0" stroke="black" stroke-width="0.4" /><polyline fill="none" points="123.9580398915498,70.0 123.93416557430184,70.4859728918096 123.86277254528409,70.96726559901126 123.74454835839336,71.43924300973329 123.58063157717734,71.89735972350132 123.37260080984518,72.3372038259297 123.12245950640747,72.75453937786881 122.83261666435745,73.14534720981464 122.50586362870828,73.50586362870828 122.14534720981464,73.83261666435745 121.75453937786881,74.12245950640747 121.3372038259297,74.37260080984518 120.89735972350132,74.58063157717734 120.43924300973329,74.74454835839336 119.96726559901126,74.86277254528409 119.4859728918096,74.93416557430184 119.0,74.9580398915498 118.5140271081904,74.93416557430184 118.03273440098874,74.86277254528409 117.56075699026671,74.74454835839336 117.10264027649868,74.58063157717734 116.6627961740703,74.37260080984518 116.24546062213119,74.12245950640747 115.85465279018536,73.83261666435746 115.49413637129172,73.50586362870828 115.16738333564255,73.14534720981464 114.87754049359253,72.75453937786881 114.62739919015482,72.3372038259297 114.41936842282266,71.89735972350132 114.25545164160664,71.43924300973329 114.13722745471591,70.96726559901127 114.06583442569816,70.4859728918096 114.0419601084502,70.0 114.06583442569816,69.5140271081904 114.13722745471591,69.03273440098874 114.25545164160664,68.56075699026671 114.41936842282266,68.10264027649868 114.62739919015482,67.6627961740703 114.87754049359253,67.24546062213119 115.16738333564254,66.85465279018536 115.49413637129172,66.49413637129172 115.85465279018536,66.16738333564255 116.24546062213119,65.87754049359253 116.6627961740703,65.62739919015482 117.10264027649868,65.41936842282266 117.56075699026671,65.25545164160664 118.03273440098873,65.13722745471593 118.5140271081904,65.06583442569816 119.0,65.0419601084502 119.4859728918096,65.06583442569816 119.96726559901126,65.13722745471591 120.43924300973329,65.25545164160664 120.89735972350132,65.41936842282266 121.3372038259297,65.62739919015482 121.75453937786881,65.87754049359253 122.14534720981464,66.16738333564255 122.50586362870828,66.49413637129172 122.83261666435745,66.85465279018536 123.12245950640747,67.24546062213119 123.37260080984518,67.6627961740703 123.58063157717734,68.10264027649868 123.74454835839336,68.56075699026671 123.86277254528407,69.03273440098873 123.93416557430184,69.5140271081904 123.9580398915498,70.0" stroke="black" stroke-width="0.4" /><polyline fill="none" points="124.40036762718385,105.0 124.37436338098836,105.5293285915449 124.29660107750806,106.05355945939277 124.16782961023468,106.5676439737125 123.98928911879172,107.06663121960403 123.76269904571191,107.54571567711523 123.49024157726578,108.00028350102605 123.17454062781485,108.4259569547002 122.81863657008202,108.818636570082 122.4259569547002,109.17454062781485 122.00028350102605,109.49024157726578 121.54571567711523,109.76269904571191 121.06663121960403,109.98928911879172 120.5676439737125,110.16782961023468 120.05355945939277,110.29660107750806 119.5293285915449,110.37436338098836 119.0,110.40036762718385 118.4706714084551,110.37436338098836 117.94644054060723,110.29660107750806 117.4323560262875,110.16782961023468 116.93336878039597,109.98928911879172 116.45428432288477,109.76269904571191 115.99971649897395,109.49024157726578 115.5740430452998,109.17454062781485 115.181363429918,108.81863657008202 114.82545937218515,108.4259569547002 114.50975842273422,108.00028350102605 114.23730095428809,107.54571567711523 114.01071088120828,107.06663121960403 113.83217038976532,106.56764397371252 113.70339892249194,106.05355945939277 113.62563661901164,105.5293285915449 113.59963237281615,105.0 113.62563661901164,104.4706714084551 113.70339892249194,103.94644054060723 113.83217038976532,103.4323560262875 114.01071088120828,102.93336878039597 114.23730095428809,102.45428432288477 114.50975842273422,101.99971649897395 114.82545937218515,101.5740430452998 115.18136342991798,101.181363429918 115.57404304529979,100.82545937218515 115.99971649897395,100.50975842273422 116.45428432288477,100.23730095428809 116.93336878039597,100.01071088120828 117.43235602628748,99.83217038976532 117.94644054060723,99.70339892249194 118.4706714084551,99.62563661901164 119.0,99.59963237281615 119.5293285915449,99.62563661901164 120.05355945939277,99.70339892249194 120.5676439737125,99.83217038976532 121.06663121960403,100.01071088120828 121.54571567711523,100.23730095428809 122.00028350102605,100.50975842273422 122.4259569547002,100.82545937218515 122.818636570082,101.18136342991798 123.17454062781485,101.57404304529979 123.49024157726578,101.99971649897395 123.76269904571191,102.45428432288477 123.98928911879172,102.93336878039597 124.16782961023468,103.43235602628748 124.29660107750806,103.94644054060723 124.37436338098836,104.4706714084551 124.40036762718385,105.0" stroke="black" stroke-width="0.4" /><polyline fill="none" points="123.5495097567964,140.0 123.52760262380991,140.44592993626262 123.46209220251679,140.88756532346892 123.3536093940857,141.32065297141767 123.2031989472646,141.74102200930932 123.01230939687905,142.14462405351185 122.78277911365015,142.52757219570833 122.51681859967937,142.8861784359486 122.21698920010509,143.2169892001051 121.88617843594861,143.51681859967937 121.52757219570833,143.78277911365015 121.14462405351186,144.01230939687906 120.7410220093093,144.20319894726458 120.32065297141767,144.3536093940857 119.88756532346892,144.46209220251677 119.44592993626262,144.5276026238099 119.0,144.5495097567964 118.55407006373738,144.5276026238099 118.11243467653108,144.46209220251677 117.67934702858233,144.3536093940857 117.2589779906907,144.20319894726458 116.85537594648814,144.01230939687906 116.47242780429167,143.78277911365015 116.11382156405139,143.51681859967937 115.78301079989491,143.2169892001051 115.48318140032063,142.8861784359486 115.21722088634985,142.52757219570833 114.98769060312095,142.14462405351185 114.7968010527354,141.74102200930932 114.6463906059143,141.32065297141767 114.53790779748321,140.88756532346892 114.47239737619009,140.44592993626262 114.4504902432036,140.0 114.47239737619009,139.55407006373738 114.53790779748321,139.11243467653108 114.6463906059143,138.67934702858233 114.7968010527354,138.25897799069068 114.98769060312095,137.85537594648815 115.21722088634985,137.47242780429167 115.48318140032062,137.1138215640514 115.78301079989491,136.7830107998949 116.11382156405139,136.48318140032063 116.47242780429167,136.21722088634985 116.85537594648814,135.98769060312094 117.2589779906907,135.79680105273542 117.67934702858233,135.6463906059143 118.11243467653107,135.53790779748323 118.55407006373738,135.4723973761901 119.0,135.4504902432036 119.44592993626262,135.4723973761901 119.88756532346892,135.53790779748323 120.32065297141767,135.6463906059143 120.7410220093093,135.79680105273542 121.14462405351186,135.98769060312094 121.52757219570833,136.21722088634985 121.88617843594861,136.48318140032063 122.21698920010509,136.7830107998949 122.51681859967937,137.1138215640514 122.78277911365015,137.47242780429167 123.01230939687905,137.85537594648815 123.20319894726458,138.25897799069068 123.3536093940857,138.67934702858233 123.46209220251679,139.11243467653108 123.52760262380991,139.55407006373738 123.5495097567964,140.0" stroke="black" stroke-width="0.4" /><polyline fill="none" points="82.22102468168129,175.0 82.19588402078779,175.51174990888845 82.12070415641496,176.01857138640335 81.99620911175424,176.51558346465944 81.8235978421416,176.99799964564863 81.60453268846233,177.46117399783256 81.34112336789956,177.90064589900277 81.03590665620449,178.31218299451123 80.69182195715916,178.69182195715916 80.31218299451125,179.03590665620447 79.90064589900277,179.34112336789954 79.46117399783255,179.6045326884623 78.99799964564865,179.8235978421416 78.51558346465943,179.99620911175424 78.01857138640335,180.12070415641497 77.51174990888846,180.1958840207878 77.0,180.22102468168129 76.48825009111155,180.1958840207878 75.98142861359665,180.12070415641497 75.48441653534057,179.99620911175424 75.00200035435135,179.8235978421416 74.53882600216745,179.6045326884623 74.09935410099723,179.34112336789957 73.68781700548877,179.03590665620447 73.30817804284084,178.69182195715916 72.96409334379551,178.31218299451123 72.65887663210044,177.90064589900277 72.39546731153767,177.46117399783256 72.1764021578584,176.99799964564863 72.00379088824576,176.51558346465944 71.87929584358504,176.01857138640335 71.80411597921221,175.51174990888845 71.77897531831871,175.0 71.80411597921221,174.48825009111155 71.87929584358504,173.98142861359665 72.00379088824576,173.48441653534056 72.1764021578584,173.00200035435137 72.39546731153767,172.53882600216744 72.65887663210044,172.09935410099723 72.96409334379551,171.68781700548877 73.30817804284082,171.30817804284084 73.68781700548875,170.96409334379553 74.09935410099723,170.65887663210046 74.53882600216745,170.3954673115377 75.00200035435135,170.1764021578584 75.48441653534057,170.00379088824576 75.98142861359665,169.87929584358503 76.48825009111155,169.8041159792122 77.0,169.77897531831871 77.51174990888845,169.8041159792122 78.01857138640335,169.87929584358503 78.51558346465943,170.00379088824576 78.99799964564865,170.1764021578584 79.46117399783255,170.3954673115377 79.90064589900277,170.65887663210043 80.31218299451125,170.96409334379553 80.69182195715916,171.30817804284084 81.03590665620449,171.68781700548877 81.34112336789956,172.09935410099723 81.60453268846233,172.53882600216744 81.8235978421416,173.00200035435137 81.99620911175424,173.48441653534056 82.12070415641496,173.98142861359665 82.19588402078779,174.48825009111155 82.22102468168129,175.0" stroke="black" stroke-width="0.4" /><polyline fill="none" points="39.62202212042538,175.0 39.59976582058838,175.45303739078406 39.53321126141134,175.90171178383946 39.42299939968156,176.34170219949067 39.27019163587543,176.76877128951176 39.07625959229161,177.1788061451061 38.84307094052388,177.5678579064665 38.57287141476262,177.93217979245367 38.26826318414701,178.268263184147 37.932179792453674,178.57287141476263 37.567857906466486,178.8430709405239 37.1788061451061,179.07625959229162 36.768771289511754,179.27019163587542 36.34170219949067,179.42299939968157 35.90171178383945,179.53321126141134 35.45303739078407,179.59976582058837 35.0,179.62202212042538 34.54696260921593,179.59976582058837 34.09828821616055,179.53321126141134 33.65829780050933,179.42299939968157 33.231228710488246,179.27019163587542 32.8211938548939,179.07625959229162 32.432142093533514,178.8430709405239 32.067820207546326,178.57287141476263 31.73173681585299,178.268263184147 31.42712858523738,177.93217979245367 31.15692905947612,177.5678579064665 30.923740407708387,177.1788061451061 30.729808364124573,176.76877128951176 30.577000600318442,176.34170219949067 30.46678873858866,175.90171178383946 30.400234179411623,175.45303739078406 30.377977879574622,175.0 30.40023417941162,174.54696260921594 30.46678873858866,174.09828821616054 30.577000600318442,173.65829780050933 30.729808364124573,173.23122871048824 30.923740407708387,172.8211938548939 31.15692905947612,172.4321420935335 31.427128585237377,172.06782020754633 31.731736815852987,171.731736815853 32.067820207546326,171.42712858523737 32.432142093533514,171.1569290594761 32.8211938548939,170.92374040770838 33.231228710488246,170.72980836412458 33.65829780050933,170.57700060031846 34.09828821616054,170.46678873858866 34.54696260921593,170.40023417941163 35.0,170.37797787957462 35.45303739078407,170.40023417941163 35.90171178383945,170.46678873858866 36.34170219949067,170.57700060031843 36.768771289511754,170.72980836412458 37.1788061451061,170.92374040770838 37.567857906466486,171.1569290594761 37.932179792453674,171.42712858523737 38.26826318414701,171.731736815853 38.572871414762616,172.06782020754633 38.84307094052388,172.4321420935335 39.07625959229161,172.8211938548939 39.27019163587543,173.23122871048824 39.42299939968156,173.65829780050933 39.53321126141134,174.09828821616054 39.59976582058838,174.54696260921594 39.62202212042538,175.0" stroke="black" stroke-width="0.4" /><polyline fill="none" points="184.58938993767146,70.0 184.55766022405808,70.64587315820694 184.46277665770532,71.28552620483016 184.30565301922576,71.91279893136075 184.08780249515047,72.5216503585401 183.81132310511555,73.10621691429239 183.47887749678597,73.66086890312916 183.09366730310327,74.18026472319427 182.6594023088099,74.65940230880989 182.18026472319428,75.09366730310327 181.66086890312914,75.47887749678598 181.1062169142924,75.81132310511553 180.5216503585401,76.08780249515048 179.91279893136075,76.30565301922576 179.28552620483015,76.46277665770532 178.64587315820694,76.5576602240581 178.0,76.58938993767146 177.35412684179306,76.5576602240581 176.71447379516985,76.46277665770532 176.08720106863925,76.30565301922576 175.4783496414599,76.08780249515048 174.8937830857076,75.81132310511553 174.33913109687086,75.47887749678598 173.81973527680572,75.09366730310327 173.3405976911901,74.65940230880989 172.90633269689673,74.18026472319427 172.52112250321403,73.66086890312916 172.18867689488445,73.10621691429239 171.91219750484953,72.5216503585401 171.69434698077424,71.91279893136075 171.53722334229468,71.28552620483016 171.44233977594192,70.64587315820694 171.41061006232854,70.0 171.44233977594192,69.35412684179306 171.53722334229468,68.71447379516984 171.69434698077424,68.08720106863925 171.91219750484953,67.4783496414599 172.18867689488445,66.89378308570761 172.52112250321403,66.33913109687084 172.90633269689673,65.81973527680573 173.3405976911901,65.34059769119011 173.81973527680572,64.90633269689674 174.33913109687086,64.52112250321402 174.8937830857076,64.18867689488447 175.47834964145989,63.91219750484952 176.08720106863925,63.69434698077424 176.71447379516985,63.53722334229468 177.35412684179306,63.44233977594191 178.0,63.410610062328544 178.64587315820694,63.44233977594191 179.28552620483015,63.53722334229468 179.91279893136075,63.69434698077424 180.5216503585401,63.91219750484952 181.1062169142924,64.18867689488447 181.66086890312914,64.52112250321402 182.18026472319428,64.90633269689673 182.6594023088099,65.34059769119011 183.09366730310327,65.81973527680573 183.47887749678597,66.33913109687084 183.81132310511555,66.89378308570761 184.08780249515047,67.4783496414599 184.30565301922576,68.08720106863925 184.46277665770532,68.71447379516984 184.55766022405808,69.35412684179306 184.58938993767146,70.0" stroke="black" stroke-width="0.4" /><polyline fill="none" points="183.84870107958517,105.0 183.82053798527434,105.57327295446335 183.7363199283356,106.14102497699234 183.59685797469555,106.69778830524521 183.4034952192054,107.23820100401306 183.15809385090333,107.75705860358714 182.86301721911616,108.24936422164713 182.52110707311326,108.71037668596949 182.13565619450776,109.13565619450775 181.7103766859695,109.52110707311326 181.24936422164714,109.86301721911616 180.75705860358713,110.15809385090334 180.23820100401306,110.4034952192054 179.6977883052452,110.59685797469555 179.14102497699236,110.7363199283356 178.57327295446336,110.82053798527434 178.0,110.84870107958517 177.42672704553664,110.82053798527434 176.85897502300764,110.7363199283356 176.3022116947548,110.59685797469555 175.76179899598694,110.4034952192054 175.24294139641287,110.15809385090334 174.7506357783529,109.86301721911616 174.2896233140305,109.52110707311326 173.86434380549224,109.13565619450775 173.47889292688674,108.71037668596949 173.13698278088384,108.24936422164713 172.84190614909667,107.75705860358714 172.5965047807946,107.23820100401306 172.40314202530445,106.69778830524521 172.2636800716644,106.14102497699236 172.17946201472566,105.57327295446335 172.15129892041483,105.0 172.17946201472566,104.42672704553665 172.2636800716644,103.85897502300766 172.40314202530445,103.3022116947548 172.5965047807946,102.76179899598695 172.84190614909667,102.24294139641286 173.13698278088384,101.75063577835287 173.47889292688674,101.28962331403051 173.86434380549224,100.86434380549225 174.2896233140305,100.47889292688674 174.75063577835286,100.13698278088384 175.24294139641287,99.84190614909666 175.76179899598694,99.5965047807946 176.3022116947548,99.40314202530445 176.85897502300764,99.2636800716644 177.42672704553664,99.17946201472566 178.0,99.15129892041483 178.57327295446333,99.17946201472566 179.14102497699236,99.2636800716644 179.6977883052452,99.40314202530445 180.23820100401306,99.5965047807946 180.75705860358713,99.84190614909666 181.2493642216471,100.13698278088384 181.7103766859695,100.47889292688674 182.13565619450776,100.86434380549225 182.52110707311326,101.28962331403051 182.86301721911616,101.75063577835287 183.15809385090333,102.24294139641286 183.4034952192054,102.76179899598694 183.59685797469555,103.30221169475479 183.7363199283356,103.85897502300764 183.82053798527434,104.42672704553665 183.84870107958517,105.0" stroke="black" stroke-width="0.4" /><polyline fill="none" points="183.0413812651491,140.0 183.01710563640776,140.49414177492093 182.94451253775887,140.983524694424 182.82430108042587,141.4634357334705 182.6576289664571,141.92925308640832 182.4461013394224,142.376490677487 182.19175532600283,142.80084136421954 181.8970404173473,143.19821841751903 181.56479487913376,143.56479487913376 181.19821841751903,143.8970404173473 180.80084136421954,144.19175532600283 180.376490677487,144.4461013394224 179.92925308640832,144.6576289664571 179.4634357334705,144.82430108042587 178.983524694424,144.94451253775887 178.49414177492093,145.01710563640776 178.0,145.0413812651491 177.50585822507907,145.01710563640776 177.016475305576,144.94451253775887 176.5365642665295,144.82430108042587 176.07074691359168,144.6576289664571 175.623509322513,144.4461013394224 175.19915863578046,144.19175532600283 174.80178158248097,143.8970404173473 174.43520512086624,143.56479487913376 174.1029595826527,143.19821841751903 173.80824467399717,142.80084136421954 173.5538986605776,142.376490677487 173.3423710335429,141.92925308640832 173.17569891957413,141.4634357334705 173.05548746224113,140.983524694424 172.98289436359224,140.49414177492093 172.9586187348509,140.0 172.98289436359224,139.50585822507907 173.05548746224113,139.016475305576 173.17569891957413,138.5365642665295 173.3423710335429,138.07074691359168 173.5538986605776,137.623509322513 173.80824467399717,137.19915863578046 174.1029595826527,136.80178158248097 174.43520512086624,136.43520512086624 174.80178158248097,136.1029595826527 175.19915863578046,135.80824467399717 175.623509322513,135.5538986605776 176.07074691359168,135.3423710335429 176.5365642665295,135.17569891957413 177.016475305576,135.05548746224113 177.50585822507907,134.98289436359224 178.0,134.9586187348509 178.49414177492093,134.98289436359224 178.983524694424,135.05548746224113 179.4634357334705,135.17569891957413 179.92925308640832,135.3423710335429 180.376490677487,135.5538986605776 180.80084136421954,135.80824467399717 181.19821841751903,136.1029595826527 181.56479487913376,136.43520512086624 181.8970404173473,136.80178158248097 182.19175532600283,137.19915863578046 182.4461013394224,137.623509322513 182.6576289664571,138.07074691359168 182.82430108042587,138.5365642665295 182.94451253775887,139.016475305576 183.01710563640776,139.50585822507907 183.0413812651491,140.0" stroke="black" stroke-width="0.4" /><polyline fill="none" points="268.7169905660283,70.0 268.6846464205126,70.65838020690273 268.5879254757679,71.31041985250576 268.4277592073652,71.9498394385808 268.20569010402494,72.57048100497164 267.92385681260765,73.16636743411675 267.5849735417754,73.73176001395882 267.1923039226788,74.26121370487891 266.74962957840467,74.74962957840468 266.2612137048789,75.19230392267876 265.7317600139588,75.58497354177541 265.16636743411675,75.92385681260765 264.5704810049716,76.20569010402495 263.9498394385808,76.4277592073652 263.31041985250573,76.58792547576792 262.65838020690273,76.68464642051259 262.0,76.7169905660283 261.34161979309727,76.6846464205126 260.68958014749427,76.58792547576792 260.0501605614192,76.4277592073652 259.4295189950284,76.20569010402495 258.83363256588325,75.92385681260765 258.2682399860412,75.58497354177541 257.7387862951211,75.19230392267876 257.25037042159533,74.74962957840468 256.8076960773212,74.26121370487891 256.4150264582246,73.73176001395882 256.07614318739235,73.16636743411675 255.79430989597506,72.57048100497164 255.5722407926348,71.9498394385808 255.41207452423208,71.31041985250576 255.3153535794874,70.65838020690273 255.2830094339717,70.0 255.3153535794874,69.34161979309727 255.41207452423208,68.68958014749424 255.5722407926348,68.0501605614192 255.79430989597506,67.42951899502836 256.07614318739235,66.83363256588325 256.4150264582246,66.2682399860412 256.8076960773212,65.73878629512109 257.25037042159533,65.25037042159532 257.7387862951211,64.80769607732124 258.2682399860412,64.41502645822459 258.83363256588325,64.07614318739235 259.42951899502833,63.79430989597505 260.0501605614192,63.5722407926348 260.6895801474942,63.41207452423208 261.34161979309727,63.3153535794874 262.0,63.2830094339717 262.65838020690273,63.3153535794874 263.31041985250573,63.41207452423208 263.9498394385808,63.572240792634794 264.5704810049716,63.79430989597505 265.16636743411675,64.07614318739235 265.7317600139588,64.41502645822459 266.2612137048789,64.80769607732124 266.74962957840467,65.25037042159532 267.1923039226788,65.73878629512107 267.5849735417754,66.26823998604118 267.92385681260765,66.83363256588325 268.20569010402494,67.42951899502836 268.4277592073652,68.0501605614192 268.5879254757679,68.68958014749424 268.6846464205126,69.34161979309727 268.7169905660283,70.0" stroke="black" stroke-width="0.4" /><polyline fill="none" points="268.7169905660283,105.0 268.6846464205126,105.65838020690273 268.5879254757679,106.31041985250576 268.4277592073652,106.9498394385808 268.20569010402494,107.57048100497164 267.92385681260765,108.16636743411675 267.5849735417754,108.73176001395882 267.1923039226788,109.26121370487891 266.74962957840467,109.74962957840468 266.2612137048789,110.19230392267876 265.7317600139588,110.58497354177541 265.16636743411675,110.92385681260765 264.5704810049716,111.20569010402495 263.9498394385808,111.4277592073652 263.31041985250573,111.58792547576792 262.65838020690273,111.68464642051259 262.0,111.7169905660283 261.34161979309727,111.6846464205126 260.68958014749427,111.58792547576792 260.0501605614192,111.4277592073652 259.4295189950284,111.20569010402495 258.83363256588325,110.92385681260765 258.2682399860412,110.58497354177541 257.7387862951211,110.19230392267876 257.25037042159533,109.74962957840468 256.8076960773212,109.26121370487891 256.4150264582246,108.73176001395882 256.07614318739235,108.16636743411675 255.79430989597506,107.57048100497164 255.5722407926348,106.9498394385808 255.41207452423208,106.31041985250576 255.3153535794874,105.65838020690273 255.2830094339717,105.0 255.3153535794874,104.34161979309727 255.41207452423208,103.68958014749424 255.5722407926348,103.0501605614192 255.79430989597506,102.42951899502836 256.07614318739235,101.83363256588325 256.4150264582246,101.2682399860412 256.8076960773212,100.73878629512109 257.25037042159533,100.25037042159532 257.7387862951211,99.80769607732124 258.2682399860412,99.41502645822459 258.83363256588325,99.07614318739235 259.42951899502833,98.79430989597505 260.0501605614192,98.5722407926348 260.6895801474942,98.41207452423208 261.34161979309727,98.3153535794874 262.0,98.2830094339717 262.65838020690273,98.3153535794874 263.31041985250573,98.41207452423208 263.9498394385808,98.5722407926348 264.5704810049716,98.79430989597505 265.16636743411675,99.07614318739235 265.7317600139588,99.41502645822459 266.2612137048789,99.80769607732124 266.74962957840467,100.25037042159532 267.1923039226788,100.73878629512107 267.5849735417754,101.26823998604118 267.92385681260765,101.83363256588325 268.20569010402494,102.42951899502836 268.4277592073652,103.0501605614192 268.5879254757679,103.68958014749424 268.6846464205126,104.34161979309727 268.7169905660283,105.0" stroke="black" stroke-width="0.4" /><polyline fill="none" points="266.9580398915498,140.0 266.93416557430186,140.4859728918096 266.8627725452841,140.96726559901126 266.74454835839333,141.43924300973327 266.58063157717737,141.89735972350132 266.3726008098452,142.3372038259297 266.1224595064075,142.7545393778688 265.83261666435743,143.14534720981464 265.5058636287083,143.50586362870828 265.14534720981464,143.83261666435746 264.7545393778688,144.12245950640747 264.3372038259297,144.37260080984518 263.8973597235013,144.58063157717734 263.4392430097333,144.74454835839336 262.9672655990113,144.8627725452841 262.4859728918096,144.93416557430186 262.0,144.95803989154982 261.5140271081904,144.93416557430186 261.0327344009887,144.8627725452841 260.5607569902667,144.74454835839336 260.1026402764987,144.58063157717734 259.6627961740703,144.37260080984518 259.2454606221312,144.12245950640747 258.85465279018536,143.83261666435746 258.4941363712917,143.50586362870828 258.16738333564257,143.14534720981464 257.8775404935925,142.7545393778688 257.6273991901548,142.3372038259297 257.41936842282263,141.89735972350132 257.25545164160667,141.43924300973327 257.1372274547159,140.96726559901126 257.06583442569814,140.4859728918096 257.0419601084502,140.0 257.06583442569814,139.5140271081904 257.1372274547159,139.03273440098874 257.25545164160667,138.56075699026673 257.41936842282263,138.10264027649868 257.6273991901548,137.6627961740703 257.8775404935925,137.2454606221312 258.16738333564257,136.85465279018536 258.4941363712917,136.49413637129172 258.85465279018536,136.16738333564254 259.2454606221312,135.87754049359253 259.6627961740703,135.62739919015482 260.1026402764987,135.41936842282266 260.5607569902667,135.25545164160664 261.0327344009887,135.1372274547159 261.5140271081904,135.06583442569814 262.0,135.04196010845018 262.4859728918096,135.06583442569814 262.9672655990113,135.1372274547159 263.4392430097333,135.25545164160664 263.8973597235013,135.41936842282266 264.3372038259297,135.62739919015482 264.7545393778688,135.87754049359253 265.14534720981464,136.16738333564254 265.50586362870825,136.49413637129172 265.83261666435743,136.85465279018536 266.1224595064075,137.2454606221312 266.3726008098452,137.6627961740703 266.58063157717737,138.10264027649868 266.74454835839333,138.56075699026673 266.8627725452841,139.03273440098874 266.93416557430186,139.5140271081904 266.9580398915498,140.0" stroke="black" stroke-width="0.4" /><polyline fill="none" points="226.13067791046458,140.0 226.10115702064095,140.60091151706536 226.0128786534769,141.1960359277297 225.866692977906,141.77964185859028 225.66400784189727,142.3461088655014 225.40677521410944,142.88998156152422 225.09747238536576,143.40602215528494 224.73907811098914,143.88926089376915 224.33504392376008,144.33504392376008 223.88926089376915,144.73907811098914 223.40602215528494,145.09747238536576 222.88998156152422,145.40677521410944 222.34610886550144,145.66400784189727 221.77964185859028,145.866692977906 221.1960359277297,146.0128786534769 220.60091151706536,146.10115702064095 220.0,146.13067791046458 219.39908848293464,146.10115702064095 218.8039640722703,146.0128786534769 218.22035814140972,145.866692977906 217.6538911344986,145.66400784189727 217.11001843847578,145.40677521410944 216.59397784471506,145.09747238536576 216.11073910623085,144.73907811098914 215.66495607623992,144.33504392376008 215.26092188901086,143.88926089376915 214.90252761463424,143.40602215528494 214.59322478589056,142.88998156152422 214.33599215810273,142.34610886550144 214.133307022094,141.77964185859028 213.9871213465231,141.1960359277297 213.89884297935905,140.60091151706536 213.86932208953542,140.0 213.89884297935905,139.39908848293464 213.9871213465231,138.8039640722703 214.133307022094,138.22035814140972 214.33599215810273,137.6538911344986 214.59322478589056,137.11001843847578 214.90252761463424,136.59397784471506 215.26092188901086,136.11073910623085 215.66495607623992,135.66495607623992 216.11073910623085,135.26092188901086 216.59397784471506,134.90252761463424 217.11001843847578,134.59322478589056 217.65389113449856,134.33599215810273 218.22035814140972,134.133307022094 218.8039640722703,133.9871213465231 219.39908848293464,133.89884297935905 220.0,133.86932208953542 220.60091151706533,133.89884297935905 221.1960359277297,133.9871213465231 221.77964185859028,134.133307022094 222.34610886550144,134.33599215810273 222.88998156152422,134.59322478589056 223.40602215528494,134.90252761463424 223.88926089376915,135.26092188901086 224.33504392376008,135.66495607623992 224.73907811098914,136.11073910623085 225.09747238536576,136.59397784471506 225.40677521410944,137.11001843847578 225.66400784189727,137.65389113449856 225.866692977906,138.22035814140972 226.0128786534769,138.8039640722703 226.10115702064095,139.39908848293464 226.13067791046458,140.0" stroke="black" stroke-width="0.4" /><polyline fill="none" points="227.06211418282913,35.0 227.02810817276668,35.69220823688175 226.92641763904572,36.377750130042806 226.7580219170957,37.05002353629672 226.52454274977353,37.702554095239236 226.22822866909314,38.329057580878256 225.87193334163325,38.923500422165425 225.45908808616818,39.480157809583645 224.99366882819217,39.993668828192185 224.48015780958363,40.45908808616817 223.92350042216543,40.87193334163326 223.32905758087827,41.22822866909313 222.70255409523924,41.52454274977352 222.05002353629672,41.75802191709572 221.3777501300428,41.92641763904572 220.69220823688175,42.028108172766665 220.0,42.06211418282915 219.30779176311825,42.02810817276667 218.6222498699572,41.92641763904572 217.94997646370328,41.75802191709572 217.29744590476076,41.52454274977352 216.67094241912173,41.22822866909313 216.07649957783457,40.87193334163326 215.51984219041637,40.45908808616817 215.00633117180783,39.993668828192185 214.54091191383182,39.480157809583645 214.12806665836675,38.923500422165425 213.77177133090686,38.329057580878256 213.47545725022647,37.702554095239236 213.2419780829043,37.05002353629672 213.07358236095428,36.377750130042806 212.97189182723332,35.69220823688175 212.93788581717087,35.0 212.97189182723332,34.30779176311825 213.07358236095428,33.622249869957194 213.2419780829043,32.94997646370328 213.47545725022647,32.297445904760764 213.77177133090686,31.670942419121744 214.12806665836675,31.076499577834575 214.54091191383182,30.519842190416362 215.00633117180783,30.00633117180782 215.51984219041634,29.540911913831827 216.07649957783457,29.128066658366745 216.67094241912173,28.77177133090687 217.29744590476076,28.475457250226484 217.94997646370328,28.241978082904282 218.6222498699572,28.073582360954287 219.30779176311825,27.971891827233332 220.0,27.937885817170855 220.69220823688175,27.971891827233332 221.3777501300428,28.073582360954287 222.05002353629672,28.241978082904282 222.70255409523924,28.475457250226484 223.32905758087824,28.77177133090687 223.92350042216543,29.12806665836674 224.48015780958363,29.540911913831827 224.99366882819217,30.006331171807815 225.45908808616818,30.519842190416355 225.87193334163325,31.076499577834575 226.22822866909314,31.670942419121744 226.52454274977353,32.29744590476076 226.7580219170957,32.94997646370328 226.92641763904572,33.622249869957194 227.02810817276668,34.30779176311825 227.06211418282913,35.0" stroke="black" stroke-width="0.4" /><polyline fill="none" points="184.56891672062426,35.0 184.53728559114688,35.643866432018626 184.44269682778295,36.281532078323714 184.2860613720311,36.906855870157855 184.0688877089559,37.51381559756892 183.793267339652,38.09656590658401 183.46185463894517,38.64949459316358 183.07784129231183,39.16727665179431 182.6449255582031,39.64492555820311 182.1672766517943,40.07784129231183 181.64949459316358,40.46185463894517 181.096565906584,40.793267339652004 180.51381559756894,41.06888770895592 179.90685587015787,41.28606137203111 179.28153207832372,41.44269682778294 178.64386643201863,41.53728559114688 178.0,41.568916720624266 177.35613356798137,41.53728559114688 176.71846792167628,41.44269682778294 176.09314412984213,41.28606137203111 175.48618440243106,41.06888770895592 174.903434093416,40.793267339652004 174.35050540683642,40.46185463894517 173.8327233482057,40.07784129231183 173.3550744417969,39.64492555820312 172.92215870768817,39.16727665179431 172.53814536105483,38.64949459316358 172.206732660348,38.09656590658401 171.9311122910441,37.51381559756892 171.7139386279689,36.906855870157855 171.55730317221705,36.28153207832372 171.46271440885312,35.643866432018626 171.43108327937574,35.0 171.46271440885312,34.356133567981374 171.55730317221705,33.71846792167628 171.7139386279689,33.093144129842145 171.9311122910441,32.48618440243108 172.206732660348,31.90343409341599 172.53814536105483,31.350505406836415 172.92215870768817,30.83272334820569 173.3550744417969,30.355074441796884 173.8327233482057,29.922158707688176 174.35050540683642,29.538145361054834 174.903434093416,29.206732660347996 175.48618440243106,28.93111229104408 176.09314412984213,28.713938627968894 176.71846792167628,28.55730317221706 177.35613356798137,28.462714408853117 178.0,28.431083279375734 178.64386643201863,28.462714408853117 179.28153207832372,28.55730317221706 179.90685587015784,28.713938627968894 180.51381559756894,28.93111229104408 181.096565906584,29.206732660347996 181.64949459316358,29.53814536105483 182.1672766517943,29.922158707688173 182.6449255582031,30.35507444179688 183.07784129231183,30.832723348205683 183.46185463894517,31.350505406836415 183.793267339652,31.903434093415985 184.0688877089559,32.48618440243107 184.2860613720311,33.093144129842145 184.44269682778295,33.71846792167628 184.53728559114688,34.356133567981374 184.56891672062426,35.0" stroke="black" stroke-width="0.4" /></g><g fill="none" id="accent" stroke="black" stroke-width="0.2"><polyline fill="none" points="228.26211418282915,35.0 228.2223298447733,35.80982880527722 228.1033599755296,36.611858516462156 227.90635031997436,37.398365149002075 227.63319818878708,38.16177421407735 227.28653418631114,38.89473366506945 226.86969687639632,39.59018470178895 226.38670063020345,40.24142975058002 225.84219696561604,40.84219696561604 225.24142975058,41.38670063020346 224.59018470178896,41.86969687639631 223.89473366506945,42.28653418631116 223.16177421407735,42.63319818878706 222.39836514900207,42.906350319974365 221.61185851646215,43.10335997552959 220.80982880527722,43.222329844773306 220.0,43.262114182829144 219.19017119472278,43.222329844773306 218.38814148353785,43.10335997552959 217.60163485099793,42.906350319974365 216.83822578592265,42.63319818878706 216.10526633493055,42.28653418631116 215.40981529821104,41.86969687639631 214.75857024942,41.38670063020346 214.15780303438396,40.84219696561604 213.61329936979655,40.24142975058002 213.13030312360368,39.59018470178895 212.71346581368886,38.89473366506945 212.36680181121292,38.16177421407735 212.09364968002564,37.398365149002075 211.8966400244704,36.61185851646216 211.7776701552267,35.80982880527722 211.73788581717085,35.0 211.7776701552267,34.19017119472278 211.8966400244704,33.388141483537844 212.09364968002564,32.601634850997925 212.36680181121292,31.838225785922653 212.71346581368886,31.105266334930548 213.13030312360368,30.409815298211054 213.61329936979655,29.758570249419986 214.15780303438396,29.15780303438396 214.75857024942,28.613299369796543 215.40981529821104,28.13030312360369 216.10526633493055,27.713465813688845 216.83822578592265,27.366801811212937 217.60163485099793,27.093649680025635 218.38814148353785,26.896640024470408 219.19017119472278,26.777670155226694 220.0,26.737885817170856 220.80982880527722,26.777670155226694 221.61185851646215,26.896640024470408 222.39836514900207,27.09364968002563 223.16177421407735,27.366801811212937 223.89473366506945,27.713465813688842 224.59018470178896,28.13030312360369 225.24142975058,28.613299369796543 225.84219696561604,29.15780303438396 226.38670063020345,29.758570249419982 226.86969687639632,30.40981529821105 227.28653418631114,31.105266334930544 227.63319818878705,31.83822578592265 227.90635031997436,32.601634850997925 228.1033599755296,33.38814148353784 228.2223298447733,34.19017119472279 228.26211418282915,35.0" stroke="black" stroke-width="0.2" /><polyline fill="none" points="229.46211418282914,35.0 229.41655151677995,35.92744937367269 229.28030231201348,36.845966902881514 229.05467872285303,37.74670676170743 228.7418536278006,38.62099433291545 228.34483970352917,39.46040974926065 227.86746041115936,40.256868981412474 227.31431317423875,41.00270169157639 226.6907251030399,41.690725103039895 226.0027016915764,42.31431317423874 225.25686898141248,42.867460411159364 224.46040974926066,43.34483970352918 223.62099433291544,43.74185362780061 222.74670676170743,44.05467872285302 221.84596690288151,44.28030231201347 220.9274493736727,44.41655151677994 220.0,44.46211418282915 219.0725506263273,44.41655151677994 218.15403309711849,44.28030231201347 217.25329323829257,44.05467872285302 216.37900566708456,43.74185362780061 215.53959025073934,43.34483970352918 214.74313101858752,42.867460411159364 213.9972983084236,42.31431317423874 213.3092748969601,41.690725103039895 212.68568682576125,41.00270169157639 212.13253958884064,40.256868981412474 211.65516029647083,39.46040974926065 211.2581463721994,38.62099433291546 210.94532127714697,37.74670676170743 210.71969768798652,36.845966902881514 210.58344848322005,35.927449373672694 210.53788581717086,35.0 210.58344848322005,34.07255062632731 210.71969768798652,33.154033097118486 210.94532127714697,32.25329323829257 211.2581463721994,31.37900566708455 211.65516029647083,30.53959025073935 212.13253958884064,29.743131018587533 212.68568682576125,28.997298308423613 213.3092748969601,28.309274896960105 213.9972983084236,27.685686825761262 214.74313101858752,27.132539588840636 215.53959025073934,26.655160296470818 216.37900566708453,26.258146372199395 217.25329323829257,25.94532127714698 218.15403309711849,25.71969768798653 219.0725506263273,25.58344848322006 220.0,25.537885817170853 220.9274493736727,25.58344848322006 221.84596690288151,25.71969768798653 222.74670676170743,25.94532127714698 223.62099433291544,26.258146372199395 224.46040974926066,26.655160296470818 225.25686898141248,27.132539588840633 226.0027016915764,27.68568682576126 226.69072510303988,28.3092748969601 227.31431317423875,28.997298308423606 227.86746041115936,29.74313101858753 228.34483970352917,30.539590250739348 228.7418536278006,31.37900566708454 229.05467872285303,32.25329323829257 229.28030231201348,33.154033097118486 229.41655151677995,34.07255062632731 229.46211418282914,35.0" stroke="black" stroke-width="0.2" /><polyline fill="none" points="230.66211418282916,35.0 230.61077318878657,36.04506994206816 230.45724464849735,37.080075289300865 230.20300712573166,38.095048374412784 229.85050906681414,39.08021445175356 229.4031452207472,40.026085833451845 228.86522394592242,40.92355326103599 228.24192571827402,41.763973632572764 227.53925324046375,42.53925324046375 226.76397363257277,43.241925718274025 225.923553261036,43.86522394592242 225.02608583345184,44.403145220747206 224.08021445175356,44.850509066814155 223.09504837441278,45.20300712573167 222.08007528930088,45.457244648497344 221.04506994206815,45.61077318878658 220.0,45.66211418282914 218.95493005793185,45.61077318878658 217.91992471069912,45.457244648497344 216.90495162558722,45.20300712573167 215.91978554824644,44.850509066814155 214.97391416654816,44.403145220747206 214.076446738964,43.86522394592242 213.23602636742723,43.241925718274025 212.46074675953625,42.53925324046376 211.75807428172598,41.763973632572764 211.13477605407758,40.92355326103599 210.5968547792528,40.02608583345185 210.14949093318586,39.08021445175356 209.79699287426834,38.095048374412784 209.54275535150265,37.08007528930087 209.38922681121343,36.04506994206817 209.33788581717084,35.0 209.38922681121343,33.95493005793184 209.54275535150265,32.919924710699135 209.79699287426834,31.904951625587216 210.14949093318586,30.919785548246438 210.5968547792528,29.973914166548152 211.13477605407758,29.07644673896401 211.75807428172598,28.236026367427236 212.46074675953625,27.460746759536246 213.23602636742723,26.758074281725975 214.076446738964,26.13477605407758 214.97391416654816,25.596854779252794 215.91978554824644,25.149490933185852 216.90495162558722,24.796992874268334 217.91992471069912,24.542755351502656 218.95493005793185,24.389226811213423 220.0,24.337885817170854 221.04506994206815,24.389226811213423 222.08007528930088,24.542755351502656 223.09504837441278,24.79699287426833 224.08021445175356,25.14949093318585 225.02608583345184,25.59685477925279 225.92355326103598,26.134776054077577 226.76397363257277,26.758074281725975 227.53925324046375,27.460746759536242 228.24192571827402,28.23602636742723 228.86522394592242,29.076446738964005 229.4031452207472,29.97391416654815 229.85050906681414,30.91978554824643 230.20300712573166,31.904951625587213 230.45724464849735,32.91992471069913 230.61077318878657,33.95493005793184 230.66211418282916,35.0" stroke="black" stroke-width="0.2" /><polyline fill="none" points="269.9169905660283,70.0 269.8788680925192,70.7760007752982 269.7648678122518,71.54452823892511 269.57608761024386,72.29818105128615 269.3143455430385,73.02970112380974 268.98216232982566,73.73204351830795 268.5827370765385,74.39844429358233 268.1199164667141,75.02248564587529 267.59815771582856,75.59815771582853 267.0224856458753,76.11991646671405 266.3984442935823,76.58273707653846 265.73204351830793,76.98216232982568 265.02970112380973,77.3143455430385 264.2981810512861,77.57608761024386 263.5445282389251,77.7648678122518 262.7760007752982,77.87886809251924 262.0,77.9169905660283 261.2239992247018,77.87886809251924 260.4554717610749,77.7648678122518 259.7018189487139,77.57608761024386 258.97029887619027,77.3143455430385 258.26795648169207,76.98216232982568 257.6015557064177,76.58273707653846 256.9775143541247,76.11991646671405 256.4018422841715,75.59815771582853 255.88008353328595,75.02248564587529 255.41726292346155,74.39844429358233 255.01783767017432,73.73204351830795 254.68565445696152,73.02970112380974 254.42391238975614,72.29818105128615 254.2351321877482,71.54452823892511 254.12113190748076,70.7760007752982 254.0830094339717,70.0 254.12113190748076,69.2239992247018 254.2351321877482,68.45547176107489 254.42391238975614,67.70181894871385 254.68565445696152,66.97029887619026 255.01783767017432,66.26795648169205 255.41726292346155,65.60155570641767 255.88008353328595,64.97751435412471 256.40184228417144,64.40184228417147 256.9775143541247,63.880083533285955 257.6015557064177,63.41726292346154 258.26795648169207,63.01783767017432 258.97029887619027,62.68565445696151 259.7018189487139,62.42391238975615 260.4554717610749,62.235132187748206 261.2239992247018,62.12113190748076 262.0,62.0830094339717 262.7760007752982,62.12113190748076 263.5445282389251,62.2351321877482 264.2981810512861,62.42391238975615 265.02970112380973,62.68565445696151 265.73204351830793,63.01783767017432 266.3984442935823,63.417262923461536 267.0224856458753,63.880083533285955 267.5981577158285,64.40184228417147 268.1199164667141,64.97751435412471 268.5827370765385,65.60155570641767 268.98216232982566,66.26795648169205 269.3143455430385,66.97029887619026 269.57608761024386,67.70181894871385 269.7648678122518,68.45547176107489 269.8788680925192,69.2239992247018 269.9169905660283,70.0" stroke="black" stroke-width="0.2" /><polyline fill="none" points="271.1169905660283,70.0 271.0730897645259,70.89362134369368 270.94181014873567,71.77863662534446 270.7244160131225,72.6465226639915 270.42300098205203,73.48892124264785 270.0404678470437,74.29771960249914 269.5805006113015,75.06512857320585 269.0475290107493,75.78375758687167 268.4466858532524,76.44668585325239 267.7837575868717,77.04752901074933 267.06512857320587,77.58050061130152 266.29771960249917,78.0404678470437 265.48892124264785,78.42300098205203 264.6465226639915,78.72441601312251 263.77863662534446,78.94181014873567 262.89362134369367,79.07308976452588 262.0,79.1169905660283 261.10637865630633,79.07308976452588 260.22136337465554,78.94181014873567 259.3534773360085,78.72441601312251 258.51107875735215,78.42300098205203 257.70228039750083,78.0404678470437 256.93487142679413,77.58050061130152 256.2162424131283,77.04752901074933 255.5533141467476,76.44668585325239 254.95247098925066,75.78375758687167 254.41949938869848,75.06512857320585 253.95953215295629,74.29771960249914 253.57699901794797,73.48892124264785 253.2755839868775,72.6465226639915 253.05818985126433,71.77863662534446 252.92691023547414,70.89362134369368 252.8830094339717,70.0 252.92691023547414,69.10637865630632 253.05818985126433,68.22136337465554 253.2755839868775,67.3534773360085 253.57699901794797,66.51107875735215 253.95953215295629,65.70228039750086 254.41949938869848,64.93487142679415 254.95247098925066,64.21624241312833 255.5533141467476,63.55331414674761 256.2162424131283,62.95247098925067 256.93487142679413,62.41949938869848 257.70228039750083,61.9595321529563 258.51107875735215,61.57699901794796 259.3534773360085,61.27558398687749 260.22136337465554,61.05818985126433 261.10637865630633,60.926910235474125 262.0,60.8830094339717 262.89362134369367,60.926910235474125 263.77863662534446,61.05818985126433 264.6465226639915,61.27558398687749 265.48892124264785,61.57699901794796 266.29771960249917,61.9595321529563 267.06512857320587,62.41949938869848 267.7837575868717,62.95247098925067 268.4466858532524,63.55331414674761 269.0475290107493,64.21624241312833 269.5805006113015,64.93487142679415 270.0404678470437,65.70228039750086 270.42300098205203,66.51107875735214 270.7244160131225,67.3534773360085 270.94181014873567,68.22136337465552 271.0730897645259,69.10637865630632 271.1169905660283,70.0" stroke="black" stroke-width="0.2" /><polyline fill="none" points="272.3169905660283,70.0 272.2673114365325,71.01124191208915 272.11875248521955,72.01274501176381 271.8727444160012,72.99486427669686 271.5316564210656,73.94814136148597 271.0987733642617,74.86339568669034 270.57826414606456,75.73181285282938 269.9751415547846,76.54502952786804 269.29521399067625,77.29521399067625 268.54502952786805,77.97514155478461 267.73181285282936,78.57826414606457 266.86339568669035,79.09877336426173 265.94814136148597,79.53165642106558 264.99486427669683,79.87274441600115 264.0127450117638,80.11875248521955 263.01124191208913,80.26731143653251 262.0,80.3169905660283 260.98875808791087,80.26731143653251 259.9872549882362,80.11875248521955 259.00513572330317,79.87274441600115 258.05185863851403,79.53165642106558 257.13660431330965,79.09877336426173 256.26818714717064,78.57826414606457 255.45497047213195,77.97514155478461 254.70478600932375,77.29521399067625 254.0248584452154,76.54502952786804 253.42173585393542,75.73181285282938 252.90122663573828,74.86339568669035 252.46834357893442,73.94814136148597 252.12725558399885,72.99486427669686 251.88124751478045,72.01274501176383 251.7326885634675,71.01124191208915 251.6830094339717,70.0 251.7326885634675,68.98875808791085 251.88124751478045,67.98725498823617 252.12725558399885,67.00513572330314 252.46834357893442,66.05185863851403 252.90122663573828,65.13660431330966 253.42173585393542,64.26818714717062 254.0248584452154,63.45497047213196 254.70478600932375,62.704786009323755 255.45497047213195,62.024858445215386 256.26818714717064,61.42173585393543 257.13660431330965,60.90122663573827 258.05185863851403,60.46834357893442 259.0051357233031,60.127255583998846 259.9872549882362,59.88124751478045 260.98875808791087,59.73268856346749 262.0,59.6830094339717 263.01124191208913,59.73268856346749 264.0127450117638,59.88124751478045 264.99486427669683,60.127255583998846 265.94814136148597,60.468343578934416 266.86339568669035,60.90122663573827 267.73181285282936,61.42173585393543 268.54502952786805,62.024858445215386 269.29521399067625,62.70478600932375 269.9751415547846,63.454970472131954 270.57826414606456,64.26818714717062 271.0987733642617,65.13660431330965 271.5316564210656,66.05185863851403 271.8727444160012,67.00513572330314 272.11875248521955,67.98725498823617 272.2673114365325,68.98875808791085 272.3169905660283,70.0" stroke="black" stroke-width="0.2" /><polyline fill="none" points="269.9169905660283,105.0 269.8788680925192,105.7760007752982 269.7648678122518,106.54452823892511 269.57608761024386,107.29818105128615 269.3143455430385,108.02970112380974 268.98216232982566,108.73204351830795 268.5827370765385,109.39844429358233 268.1199164667141,110.02248564587529 267.59815771582856,110.59815771582853 267.0224856458753,111.11991646671405 266.3984442935823,111.58273707653846 265.73204351830793,111.98216232982568 265.02970112380973,112.3143455430385 264.2981810512861,112.57608761024386 263.5445282389251,112.7648678122518 262.7760007752982,112.87886809251924 262.0,112.9169905660283 261.2239992247018,112.87886809251924 260.4554717610749,112.7648678122518 259.7018189487139,112.57608761024386 258.97029887619027,112.3143455430385 258.26795648169207,111.98216232982568 257.6015557064177,111.58273707653846 256.9775143541247,111.11991646671405 256.4018422841715,110.59815771582853 255.88008353328595,110.02248564587529 255.41726292346155,109.39844429358233 255.01783767017432,108.73204351830795 254.68565445696152,108.02970112380974 254.42391238975614,107.29818105128615 254.2351321877482,106.54452823892511 254.12113190748076,105.7760007752982 254.0830094339717,105.0 254.12113190748076,104.2239992247018 254.2351321877482,103.45547176107489 254.42391238975614,102.70181894871385 254.68565445696152,101.97029887619026 255.01783767017432,101.26795648169205 255.41726292346155,100.60155570641767 255.88008353328595,99.97751435412471 256.40184228417144,99.40184228417147 256.9775143541247,98.88008353328595 257.6015557064177,98.41726292346154 258.26795648169207,98.01783767017432 258.97029887619027,97.6856544569615 259.7018189487139,97.42391238975614 260.4554717610749,97.2351321877482 261.2239992247018,97.12113190748076 262.0,97.0830094339717 262.7760007752982,97.12113190748076 263.5445282389251,97.2351321877482 264.2981810512861,97.42391238975614 265.02970112380973,97.6856544569615 265.73204351830793,98.01783767017432 266.3984442935823,98.41726292346154 267.0224856458753,98.88008353328595 267.5981577158285,99.40184228417147 268.1199164667141,99.97751435412471 268.5827370765385,100.60155570641767 268.98216232982566,101.26795648169205 269.3143455430385,101.97029887619026 269.57608761024386,102.70181894871385 269.7648678122518,103.45547176107489 269.8788680925192,104.2239992247018 269.9169905660283,105.0" stroke="black" stroke-width="0.2" /><polyline fill="none" points="271.1169905660283,105.0 271.0730897645259,105.89362134369368 270.94181014873567,106.77863662534446 270.7244160131225,107.6465226639915 270.42300098205203,108.48892124264785 270.0404678470437,109.29771960249914 269.5805006113015,110.06512857320585 269.0475290107493,110.78375758687167 268.4466858532524,111.44668585325239 267.7837575868717,112.04752901074933 267.06512857320587,112.58050061130152 266.29771960249917,113.0404678470437 265.48892124264785,113.42300098205203 264.6465226639915,113.72441601312251 263.77863662534446,113.94181014873567 262.89362134369367,114.07308976452588 262.0,114.1169905660283 261.10637865630633,114.07308976452588 260.22136337465554,113.94181014873567 259.3534773360085,113.72441601312251 258.51107875735215,113.42300098205203 257.70228039750083,113.0404678470437 256.93487142679413,112.58050061130152 256.2162424131283,112.04752901074933 255.5533141467476,111.44668585325239 254.95247098925066,110.78375758687167 254.41949938869848,110.06512857320585 253.95953215295629,109.29771960249914 253.57699901794797,108.48892124264785 253.2755839868775,107.6465226639915 253.05818985126433,106.77863662534446 252.92691023547414,105.89362134369368 252.8830094339717,105.0 252.92691023547414,104.10637865630632 253.05818985126433,103.22136337465554 253.2755839868775,102.3534773360085 253.57699901794797,101.51107875735215 253.95953215295629,100.70228039750086 254.41949938869848,99.93487142679415 254.95247098925066,99.21624241312833 255.5533141467476,98.55331414674761 256.2162424131283,97.95247098925067 256.93487142679413,97.41949938869848 257.70228039750083,96.9595321529563 258.51107875735215,96.57699901794797 259.3534773360085,96.27558398687749 260.22136337465554,96.05818985126433 261.10637865630633,95.92691023547412 262.0,95.8830094339717 262.89362134369367,95.92691023547412 263.77863662534446,96.05818985126433 264.6465226639915,96.27558398687749 265.48892124264785,96.57699901794797 266.29771960249917,96.9595321529563 267.06512857320587,97.41949938869848 267.7837575868717,97.95247098925067 268.4466858532524,98.55331414674761 269.0475290107493,99.21624241312833 269.5805006113015,99.93487142679415 270.0404678470437,100.70228039750086 270.42300098205203,101.51107875735214 270.7244160131225,102.3534773360085 270.94181014873567,103.22136337465552 271.0730897645259,104.10637865630632 271.1169905660283,105.0" stroke="black" stroke-width="0.2" /><polyline fill="none" points="272.3169905660283,105.0 272.2673114365325,106.01124191208915 272.11875248521955,107.01274501176381 271.8727444160012,107.99486427669686 271.5316564210656,108.94814136148597 271.0987733642617,109.86339568669034 270.57826414606456,110.73181285282938 269.9751415547846,111.54502952786804 269.29521399067625,112.29521399067625 268.54502952786805,112.97514155478461 267.73181285282936,113.57826414606457 266.86339568669035,114.09877336426173 265.94814136148597,114.53165642106558 264.99486427669683,114.87274441600115 264.0127450117638,115.11875248521955 263.01124191208913,115.26731143653251 262.0,115.3169905660283 260.98875808791087,115.26731143653251 259.9872549882362,115.11875248521955 259.00513572330317,114.87274441600115 258.05185863851403,114.53165642106558 257.13660431330965,114.09877336426173 256.26818714717064,113.57826414606457 255.45497047213195,112.97514155478461 254.70478600932375,112.29521399067625 254.0248584452154,111.54502952786804 253.42173585393542,110.73181285282938 252.90122663573828,109.86339568669035 252.46834357893442,108.94814136148597 252.12725558399885,107.99486427669686 251.88124751478045,107.01274501176383 251.7326885634675,106.01124191208915 251.6830094339717,105.0 251.7326885634675,103.98875808791085 251.88124751478045,102.98725498823617 252.12725558399885,102.00513572330314 252.46834357893442,101.05185863851403 252.90122663573828,100.13660431330966 253.42173585393542,99.26818714717062 254.0248584452154,98.45497047213196 254.70478600932375,97.70478600932375 255.45497047213195,97.02485844521539 256.26818714717064,96.42173585393543 257.13660431330965,95.90122663573827 258.05185863851403,95.46834357893442 259.0051357233031,95.12725558399885 259.9872549882362,94.88124751478045 260.98875808791087,94.73268856346749 262.0,94.6830094339717 263.01124191208913,94.73268856346749 264.0127450117638,94.88124751478045 264.99486427669683,95.12725558399885 265.94814136148597,95.46834357893442 266.86339568669035,95.90122663573827 267.73181285282936,96.42173585393543 268.54502952786805,97.02485844521539 269.29521399067625,97.70478600932375 269.9751415547846,98.45497047213195 270.57826414606456,99.26818714717062 271.0987733642617,100.13660431330965 271.5316564210656,101.05185863851403 271.8727444160012,102.00513572330314 272.11875248521955,102.98725498823617 272.2673114365325,103.98875808791085 272.3169905660283,105.0" stroke="black" stroke-width="0.2" /></g><g fill="none" id="highlights" stroke="#4A90E2" stroke-width="0.5"><polyline fill="none" points="83.07737660757502,105.0 83.04811237809355,105.59568707578028 82.9606015201765,106.1856373593851 82.81568681122391,106.76416930708373 82.61476385910144,107.32571133996211 82.35976766167369,107.86485550127352 82.05315397171697,108.37640953801834 81.69787564667766,108.85544690517884 81.2973542110408,109.2973542110408 80.85544690517884,109.69787564667766 80.37640953801834,110.05315397171697 79.86485550127352,110.35976766167369 79.32571133996211,110.61476385910144 78.76416930708373,110.81568681122391 78.1856373593851,110.9606015201765 77.59568707578028,111.04811237809355 77.0,111.07737660757502 76.40431292421972,111.04811237809355 75.8143626406149,110.9606015201765 75.23583069291627,110.81568681122391 74.67428866003789,110.61476385910144 74.13514449872648,110.35976766167369 73.62359046198166,110.05315397171697 73.14455309482116,109.69787564667766 72.7026457889592,109.2973542110408 72.30212435332234,108.85544690517884 71.94684602828303,108.37640953801834 71.64023233832631,107.86485550127352 71.38523614089856,107.32571133996211 71.18431318877609,106.76416930708373 71.0393984798235,106.1856373593851 70.95188762190645,105.59568707578028 70.92262339242498,105.0 70.95188762190645,104.40431292421972 71.0393984798235,103.8143626406149 71.18431318877609,103.23583069291627 71.38523614089856,102.67428866003789 71.64023233832631,102.13514449872648 71.94684602828303,101.62359046198166 72.30212435332234,101.14455309482116 72.7026457889592,100.7026457889592 73.14455309482116,100.30212435332234 73.62359046198166,99.94684602828303 74.13514449872648,99.64023233832631 74.67428866003789,99.38523614089856 75.23583069291627,99.18431318877609 75.8143626406149,99.0393984798235 76.40431292421974,98.95188762190645 77.0,98.92262339242498 77.59568707578026,98.95188762190645 78.1856373593851,99.0393984798235 78.76416930708373,99.18431318877609 79.32571133996211,99.38523614089856 79.86485550127351,99.64023233832631 80.37640953801834,99.94684602828303 80.85544690517884,100.30212435332234 81.2973542110408,100.7026457889592 81.69787564667766,101.14455309482116 82.05315397171697,101.62359046198166 82.35976766167369,102.13514449872648 82.61476385910144,102.67428866003789 82.81568681122391,103.23583069291627 82.9606015201765,103.8143626406149 83.04811237809355,104.40431292421972 83.07737660757502,105.0" stroke="#4A90E2" stroke-width="0.5" /><polyline fill="none" points="223.6583123951777,105.0 223.64069662107642,105.3585773194075 223.58801894830697,105.71370134321081 223.50078669165464,106.06195203293015 223.37983994543703,106.39997554405035 223.22634349293637,106.72451652537687 223.0417755889,107.03244946984738 222.82791372313883,107.32080881487336 222.58681750232896,107.58681750232896 222.32080881487335,107.82791372313883 222.03244946984736,108.0417755889 221.72451652537686,108.22634349293638 221.39997554405036,108.37983994543701 221.06195203293015,108.50078669165465 220.7137013432108,108.58801894830697 220.35857731940752,108.64069662107643 220.0,108.6583123951777 219.64142268059248,108.64069662107643 219.2862986567892,108.58801894830697 218.93804796706985,108.50078669165465 218.60002445594964,108.37983994543701 218.27548347462314,108.22634349293638 217.96755053015264,108.0417755889 217.67919118512665,107.82791372313883 217.41318249767104,107.58681750232896 217.17208627686117,107.32080881487336 216.9582244111,107.03244946984738 216.77365650706363,106.72451652537687 216.62016005456297,106.39997554405035 216.49921330834536,106.06195203293015 216.41198105169303,105.71370134321081 216.35930337892358,105.3585773194075 216.3416876048223,105.0 216.35930337892358,104.6414226805925 216.41198105169303,104.28629865678919 216.49921330834536,103.93804796706985 216.62016005456297,103.60002445594965 216.77365650706363,103.27548347462313 216.9582244111,102.96755053015262 217.17208627686117,102.67919118512665 217.41318249767104,102.41318249767104 217.67919118512665,102.17208627686117 217.96755053015264,101.9582244111 218.27548347462314,101.77365650706362 218.60002445594964,101.62016005456299 218.93804796706985,101.49921330834535 219.2862986567892,101.41198105169303 219.64142268059248,101.35930337892357 220.0,101.3416876048223 220.35857731940752,101.35930337892357 220.7137013432108,101.41198105169303 221.06195203293015,101.49921330834535 221.39997554405036,101.62016005456299 221.72451652537686,101.77365650706362 222.03244946984736,101.9582244111 222.32080881487335,102.17208627686117 222.58681750232896,102.41318249767104 222.82791372313883,102.67919118512664 223.0417755889,102.96755053015262 223.22634349293637,103.27548347462313 223.37983994543703,103.60002445594964 223.50078669165464,103.93804796706983 223.58801894830697,104.28629865678919 223.64069662107642,104.6414226805925 223.6583123951777,105.0" stroke="#4A90E2" stroke-width="0.5" /></g><g fill="none" id="annotations" stroke="#333333" stroke-width="0.3" /><text fill="#333333" font-family="monospace" font-size="6pt" font-weight="normal" x="54.5" y="97">svg_exporter.py</text><text fill="#333333" font-family="monospace" font-size="6pt" font-weight="normal" x="56.0" y="47">composition.py</text><text fill="#333333" font-family="monospace" font-size="6pt" font-weight="normal" x="63.5" y="147">shapes.py</text><text fill="#333333" font-family="monospace" font-size="6pt" font-weight="normal" x="211.0" y="97">lib.rs</text><text fill="#333333" font-family="monospace" font-size="6pt" font-weight="normal" x="205.0" y="27">lsystem.rs</text><text fill="#333333" font-family="monospace" font-size="6pt" font-weight="normal" x="242.5" y="62">flow_field.rs</text><text fill="#333333" font-family="monospace" font-size="6pt" font-weight="bold" x="68.0" y="17">PYTHON</text><text fill="#333333" font-family="monospace" font-size="6pt" font-weight="bold" x="214.0" y="17">RUST</text><text fill="#999999" font-family="monospace" font-size="5pt" x="15" y="15">0,0</text><text fill="#999999" font-family="monospace" font-size="5pt" x="267" y="15">282,0</text></svg>