<?xml version="1.0" encoding="utf-8" ?>
<svg baseProfile="full" height="210mm" version="1.1" viewBox="0 0 297 210" width="297mm" xmlns="http://www.w3.org/2000/svg" xmlns:ev="http://www.w3.org/2001/xml-events" xmlns:xlink="http://www.w3.org/1999/xlink"><defs /><rect fill="white" height="210mm" width="297mm" x="0" y="0" /><g fill="none" id="main" stroke="black" stroke-width="0.5"><circle cx="148.5" cy="105.0" fill="black" r="0.3" stroke="none" /><circle cx="146.28789336576503" cy="107.02647088278457" fill="black" r="0.3" stroke="none" /><circle cx="148.87091593678505" cy="100.77360421069692" fill="black" r="0.3" stroke="none" /><circle cx="151.66154106154417" cy="109.12367046648615" fill="black" r="0.3" stroke="none" /><circle cx="142.59171908810742" cy="103.95490829772413" fill="black" r="0.3" stroke="none" /><circle cx="154.1600825867277" cy="101.39951876668937" fill="black" r="0.3" stroke="none" /><circle cx="146.59230575388435" cy="112.09652750740369" fill="black" r="0.3" stroke="none" /><circle cx="144.84166390525718" cy="97.95609646446647" fill="black" r="0.3" stroke="none" /><circle cx="156.47040550012466" cy="107.91077930520032" fill="black" r="0.3" stroke="none" /><circle cx="140.18088999475975" cy="108.43400767627443" fill="black" r="0.3" stroke="none" /><circle cx="152.52095616447554" cy="96.40745023154557" fill="black" r="0.3" stroke="none" /><circle cx="151.4778368525137" cy="114.49381312644248" fill="black" r="0.3" stroke="none" /><circle cx="139.50846135257564" cy="99.78921956403131" fill="black" r="0.3" stroke="none" /><circle cx="159.06436374395955" cy="102.67745426626018" fill="black" r="0.3" stroke="none" /><circle cx="142.04418816932466" cy="114.18272800462434" fill="black" r="0.3" stroke="none" /><circle cx="147.0068407157966" cy="93.47739285786427" fill="black" r="0.3" stroke="none" /><circle cx="157.6757879454725" cy="112.73336379460589" fill="black" r="0.3" stroke="none" /><circle cx="136.14124585172667" cy="105.51107328489807" fill="black" r="0.3" stroke="none" /><circle cx="157.5219255400518" cy="96.02197908502319" fill="black" r="0.3" stroke="none" /><circle cx="147.8959684652698" cy="118.06273883628742" fill="black" r="0.3" stroke="none" /><circle cx="139.90398478833248" cy="94.69910088969021" fill="black" r="0.3" stroke="none" /><circle cx="162.12495180841543" cy="106.8332179953178" fill="black" r="0.3" stroke="none" /><circle cx="136.9494993591383" cy="113.03653749729651" fill="black" r="0.3" stroke="none" /><circle cx="151.65778700823492" cy="90.96332015002754" fill="black" r="0.3" stroke="none" /><circle cx="155.80703672121274" cy="117.75175338354882" fill="black" r="0.3" stroke="none" /><circle cx="134.20960834204965" cy="100.44097529482646" fill="black" r="0.3" stroke="none" /><circle cx="162.38653411324" cy="98.58406902142629" fill="black" r="0.3" stroke="none" /><circle cx="142.4819033171718" cy="119.37993436411071" fill="black" r="0.3" stroke="none" /><circle cx="143.12723662708058" cy="90.06234912248196" fill="black" r="0.3" stroke="none" /><circle cx="162.800673017853" cy="112.51603294540752" fill="black" r="0.3" stroke="none" /><circle cx="132.6110614713894" cy="109.18827320432106" fill="black" r="0.3" stroke="none" /><circle cx="157.5337712571097" cy="90.95041008163517" fill="black" r="0.3" stroke="none" /><circle cx="151.37440896357384" cy="121.72536316825816" fill="black" r="0.3" stroke="none" /><circle cx="134.87464692520965" cy="94.44776073113857" fill="black" r="0.3" stroke="none" /><circle cx="165.93312938089585" cy="103.55570086583646" fill="black" r="0.3" stroke="none" /><circle cx="136.44753722199044" cy="118.0283591056086" fill="black" r="0.3" stroke="none" /><circle cx="148.58780898894202" cy="87.000214179567" fill="black" r="0.3" stroke="none" /><circle cx="160.7607537542834" cy="118.51569152418126" fill="black" r="0.3" stroke="none" /><circle cx="130.0856741908103" cy="103.29336442290385" fill="black" r="0.3" stroke="none" /><circle cx="163.42353635789914" cy="93.6735679680465" fill="black" r="0.3" stroke="none" /><circle cx="145.10402528138044" cy="123.66728035120533" fill="black" r="0.3" stroke="none" /><circle cx="138.26898063647653" cy="88.74188686276271" fill="black" r="0.3" stroke="none" /><circle cx="167.25080149486274" cy="110.13881730559208" fill="black" r="0.3" stroke="none" /><circle cx="130.9978103095188" cy="113.98183478129124" fill="black" r="0.3" stroke="none" /><circle cx="155.4174873513221" cy="86.341265617832" fill="black" r="0.3" stroke="none" /><circle cx="156.08783705430253" cy="123.6393328431399" fill="black" r="0.3" stroke="none" /><circle cx="130.1133233577398" cy="96.2862108097015" fill="black" r="0.3" stroke="none" /><circle cx="168.15405297047798" cy="98.94044540963233" fill="black" r="0.3" stroke="none" /><circle cx="137.99083669751084" cy="122.9320240542337" fill="black" r="0.3" stroke="none" /><circle cx="144.0910000409745" cy="84.4680561231696" fill="black" r="0.3" stroke="none" /><circle cx="165.79400163743605" cy="117.2848486911463" fill="black" r="0.3" stroke="none" /><circle cx="127.24018393366103" cy="107.64956993216542" fill="black" r="0.3" stroke="none" /><circle cx="162.52204986779614" cy="88.52632046247597" fill="black" r="0.3" stroke="none" /><circle cx="149.29593200849573" cy="126.8258216852849" fill="black" r="0.3" stroke="none" /><circle cx="133.02602672910032" cy="89.29789341484774" fill="black" r="0.3" stroke="none" /><circle cx="170.7195696022552" cy="106.13610153179019" fill="black" r="0.3" stroke="none" /><circle cx="131.19333547534953" cy="119.29962807317746" fill="black" r="0.3" stroke="none" /><circle cx="151.6297109118327" cy="82.56777073921641" fill="black" r="0.3" stroke="none" /><circle cx="161.4571872716926" cy="123.81784520093328" fill="black" r="0.3" stroke="none" /><circle cx="126.04337790254056" cy="99.83278373087637" fill="black" r="0.3" stroke="none" /><circle cx="168.71841339803095" cy="93.54505523076071" fill="black" r="0.3" stroke="none" /><circle cx="141.26976609917023" cy="127.28729947165633" fill="black" r="0.3" stroke="none" /><circle cx="138.69711811307883" cy="83.50805949405516" fill="black" r="0.3" stroke="none" /><circle cx="170.42060620401145" cy="114.29983997973376" fill="black" r="0.3" stroke="none" /><circle cx="125.87703781497895" cy="113.0125889683115" fill="black" r="0.3" stroke="none" /><circle cx="159.85674031401155" cy="83.64527102864322" fill="black" r="0.3" stroke="none" /><circle cx="154.59717229491827" cy="128.5971288509022" fill="black" r="0.3" stroke="none" /><circle cx="127.91027104312623" cy="91.61855532902094" fill="black" r="0.3" stroke="none" /><circle cx="172.90134754627616" cy="100.9288529962869" fill="black" r="0.3" stroke="none" /><circle cx="133.1455558570077" cy="124.62755830610953" fill="black" r="0.3" stroke="none" /><circle cx="146.54968316933673" cy="79.97608615224166" fill="black" r="0.3" stroke="none" /><circle cx="166.97206009202637" cy="122.25639000360638" fill="black" r="0.3" stroke="none" /><circle cx="123.04536745266978" cy="104.75164162909772" fill="black" r="0.3" stroke="none" /><circle cx="167.56827248448775" cy="87.8710483549831" fill="black" r="0.3" stroke="none" /><circle cx="145.9930937276086" cy="130.68492594775086" fill="black" r="0.3" stroke="none" /><circle cx="132.89420874383634" cy="84.2284021012093" fill="black" r="0.3" stroke="none" /><circle cx="174.20792871994635" cy="109.80649570166845" fill="black" r="0.3" stroke="none" /><circle cx="126.15143745497971" cy="118.9119284131035" fill="black" r="0.3" stroke="none" /><circle cx="155.6275989979211" cy="79.48143161294438" fill="black" r="0.3" stroke="none" /><circle cx="160.55843787681266" cy="128.78222184681343" fill="black" r="0.3" stroke="none" /><circle cx="123.38636937611278" cy="95.5498382613336" fill="black" r="0.3" stroke="none" /><circle cx="173.55665321857813" cy="94.9419619465863" fill="black" r="0.3" stroke="none" /><circle cx="136.74622158483888" cy="129.49180869121946" fill="black" r="0.3" stroke="none" /><circle cx="140.57500574327133" cy="78.842888805703" fill="black" r="0.3" stroke="none" /><circle cx="172.15373646072987" cy="119.01787257205378" fill="black" r="0.3" stroke="none" /><circle cx="121.4298265832787" cy="110.67500759370729" fill="black" r="0.3" stroke="none" /><circle cx="164.72187987948652" cy="82.3979953726332" fill="black" r="0.3" stroke="none" /><circle cx="151.82509033500128" cy="132.7838761562184" fill="black" r="0.3" stroke="none" /><circle cx="127.15884014939276" cy="86.65456742862601" fill="black" r="0.3" stroke="none" /><circle cx="176.78783811213265" cy="104.1065712441521" fill="black" r="0.3" stroke="none" /><circle cx="128.13145633740785" cy="124.87768671312327" fill="black" r="0.3" stroke="none" /><circle cx="150.10076545297645" cy="76.42662865595736" fill="black" r="0.3" stroke="none" /><circle cx="166.71997253377248" cy="127.27178935039967" fill="black" r="0.3" stroke="none" /><circle cx="119.86642171502714" cy="100.8625860010955" fill="black" r="0.3" stroke="none" /><circle cx="172.53648801174583" cy="88.62174477970261" fill="black" r="0.3" stroke="none" /><circle cx="141.80426027457676" cy="133.46343390263004" fill="black" r="0.3" stroke="none" /><circle cx="134.13544550552282" cy="79.3551257718975" fill="black" r="0.3" stroke="none" /><circle cx="176.55985219714603" cy="114.25444188886178" fill="black" r="0.3" stroke="none" /><circle cx="121.41973369702288" cy="117.19258696749142" fill="black" r="0.3" stroke="none" /><circle cx="160.29187751599392" cy="77.57826364637359" fill="black" r="0.3" stroke="none" /><circle cx="158.37766568475217" cy="133.32722578404508" fill="black" r="0.3" stroke="none" /><circle cx="121.94998799602612" cy="90.71375267647787" fill="black" r="0.3" stroke="none" /><circle cx="177.87170756155848" cy="97.5634151038068" fill="black" r="0.3" stroke="none" /><circle cx="131.7842153675241" cy="130.44764319383393" fill="black" r="0.3" stroke="none" /><circle cx="143.612509061087" cy="74.7988008131789" fill="black" r="0.3" stroke="none" /><circle cx="172.6196307959639" cy="124.05894567562407" fill="black" r="0.3" stroke="none" /><circle cx="117.69515186144807" cy="107.24974024295105" fill="black" r="0.3" stroke="none" /><circle cx="169.79459967459854" cy="82.42700674038582" fill="black" r="0.3" stroke="none" /><circle cx="148.04374558683816" cy="136.1735758601812" fill="black" r="0.3" stroke="none" /><circle cx="127.6832702645759" cy="81.59778294429542" fill="black" r="0.3" stroke="none" /><circle cx="179.80017749678896" cy="108.20918816361798" fill="black" r="0.3" stroke="none" /><circle cx="123.13794582051122" cy="123.86176576560835" fill="black" r="0.3" stroke="none" /><circle cx="154.48703750299114" cy="73.82059362435234" fill="black" r="0.3" stroke="none" /><circle cx="165.2208818785914" cy="132.1553329790337" fill="black" r="0.3" stroke="none" /><circle cx="117.69195760176933" cy="96.23275849603641" fill="black" r="0.3" stroke="none" /><circle cx="177.26441393553029" cy="90.59137442552303" fill="black" r="0.3" stroke="none" /><circle cx="136.9731106857454" cy="135.1849436430967" fill="black" r="0.3" stroke="none" /><circle cx="136.55879266841973" cy="74.82703913328668" fill="black" r="0.3" stroke="none" /><circle cx="177.8110806171652" cy="119.24291237963791" fill="black" r="0.3" stroke="none" /><circle cx="117.13390393611236" cy="114.33638140346528" fill="black" r="0.3" stroke="none" /><circle cx="165.39227979043852" cy="76.81044726354207" fill="black" r="0.3" stroke="none" /><circle cx="155.11331230939905" cy="137.33054438605004" fill="black" r="0.3" stroke="none" /><circle cx="121.67441323484152" cy="85.54780488723819" fill="black" r="0.3" stroke="none" /><circle cx="181.55476500451908" cy="101.2075719524266" fill="black" r="0.3" stroke="none" /><circle cx="126.59970695693437" cy="130.22651709269138" fill="black" r="0.3" stroke="none" /><circle cx="147.60473882101857" cy="71.4709304122317" fill="black" r="0.3" stroke="none" /><circle cx="171.90174788112165" cy="129.21483421600112" fill="black" r="0.3" stroke="none" /><circle cx="114.7542741768462" cy="102.94427903923462" fill="black" r="0.3" stroke="none" /><circle cx="174.87489650070387" cy="83.63730273169705" fill="black" r="0.3" stroke="none" /><circle cx="143.46270443505486" cy="138.69904528901947" fill="black" r="0.3" stroke="none" /><circle cx="129.37727603543857" cy="76.63943886000865" fill="black" r="0.3" stroke="none" /><circle cx="181.8854548163448" cy="113.02567172925725" fill="black" r="0.3" stroke="none" /><circle cx="118.34690787990452" cy="121.69703673102015" fill="black" r="0.3" stroke="none" /><circle cx="159.496684373162" cy="72.19644938734444" fill="black" r="0.3" stroke="none" /><circle cx="162.60258737468496" cy="136.73510720541805" fill="black" r="0.3" stroke="none" /><circle cx="116.54586543873819" cy="91.0740068777565" fill="black" r="0.3" stroke="none" /><circle cx="181.590739133007" cy="93.64205196211569" fill="black" r="0.3" stroke="none" /><circle cx="131.71071548681934" cy="135.8402322548886" fill="black" r="0.3" stroke="none" /><circle cx="140.01682630362285" cy="70.79421446542858" fill="black" r="0.3" stroke="none" /><circle cx="177.96709247322138" cy="124.56247584470378" fill="black" r="0.3" stroke="none" /><circle cx="113.4321537606686" cy="110.49965091024973" fill="black" r="0.3" stroke="none" /><circle cx="170.7219189735085" cy="77.15783203242208" fill="black" r="0.3" stroke="none" /><circle cx="150.9299339935071" cy="140.66644670817655" fill="black" r="0.3" stroke="none" /><circle cx="122.52492242843928" cy="80.25539765622807" fill="black" r="0.3" stroke="none" /><circle cx="184.49314645773364" cy="105.70243011904121" fill="black" r="0.3" stroke="none" /><circle cx="121.39165045723993" cy="128.8775498129004" fill="black" r="0.3" stroke="none" /><circle cx="152.37308692630162" cy="68.95836854883909" fill="black" r="0.3" stroke="none" /><circle cx="170.0633483573738" cy="134.29201269319924" fill="black" r="0.3" stroke="none" /><circle cx="112.69221044012198" cy="97.94293213611405" fill="black" r="0.3" stroke="none" /><circle cx="179.77565902531614" cy="85.95182023047452" fill="black" r="0.3" stroke="none" /><circle cx="138.2710092973854" cy="140.2897683359614" fill="black" r="0.3" stroke="none" /><circle cx="132.15041577449412" cy="71.95925098226297" fill="black" r="0.3" stroke="none" /><circle cx="182.98801447753203" cy="118.36326522215069" fill="black" r="0.3" stroke="none" /><circle cx="113.92969544368444" cy="118.48680995949704" fill="black" r="0.3" stroke="none" /><circle cx="164.9343024849918" cy="71.59470548203785" fill="black" r="0.3" stroke="none" /><circle cx="158.9806723656562" cy="140.84906563306455" fill="black" r="0.3" stroke="none" /><circle cx="116.45330357705762" cy="85.58327400472025" fill="black" r="0.3" stroke="none" /><circle cx="185.36363419313238" cy="97.64660118891132" fill="black" r="0.3" stroke="none" /><circle cx="126.21441699987494" cy="135.4196119361266" fill="black" r="0.3" stroke="none" /><circle cx="144.37153965907362" cy="67.39739616444896" fill="black" r="0.3" stroke="none" /><circle cx="177.03369967293685" cy="130.01655417867624" fill="black" r="0.3" stroke="none" /><circle cx="110.44332581746814" cy="105.83039157306204" fill="black" r="0.3" stroke="none" /><circle cx="176.0861599661606" cy="78.59917087814482" fill="black" r="0.3" stroke="none" /><circle cx="145.98460018646395" cy="143.21874885155273" fill="black" r="0.3" stroke="none" /><circle cx="124.46499412815344" cy="75.02803822336114" fill="black" r="0.3" stroke="none" /><circle cx="186.58401609342934" cy="110.88283249765068" fill="black" r="0.3" stroke="none" /><circle cx="116.34724358081768" cy="126.45227854212064" fill="black" r="0.3" stroke="none" /><circle cx="157.74535825901538" cy="67.34998870302351" fill="black" r="0.3" stroke="none" /><circle cx="167.17062804495498" cy="139.10876204741152" fill="black" r="0.3" stroke="none" /><circle cx="111.58333929435554" cy="92.42382560774831" fill="black" r="0.3" stroke="none" /><circle cx="184.3217940415341" cy="89.29016003754614" fill="black" r="0.3" stroke="none" /><circle cx="132.65155991976332" cy="140.88630584252365" fill="black" r="0.3" stroke="none" /><circle cx="135.90863903727882" cy="67.72457070526939" fill="black" r="0.3" stroke="none" /><circle cx="183.0637082960922" cy="124.03549497183216" fill="black" r="0.3" stroke="none" /><circle cx="110.0448425384835" cy="114.33814031860575" fill="black" r="0.3" stroke="none" /><circle cx="170.61107817921516" cy="72.04396532116408" fill="black" r="0.3" stroke="none" /><circle cx="154.4744577220024" cy="144.34851782377586" fill="black" r="0.3" stroke="none" /><circle cx="117.42717826695198" cy="79.95045410498989" fill="black" r="0.3" stroke="none" /><circle cx="188.44522053991352" cy="102.47426129267686" fill="black" r="0.3" stroke="none" /><circle cx="120.67391417094787" cy="133.92592172142875" fill="black" r="0.3" stroke="none" /><circle cx="149.48164089169174" cy="64.76274883693273" fill="black" r="0.3" stroke="none" /><circle cx="175.02942840320705" cy="135.4169266790567" fill="black" r="0.3" stroke="none" /><circle cx="108.28104255533725" cy="100.47944007180456" fill="black" r="0.3" stroke="none" /><circle cx="181.29954087867515" cy="81.10041594194328" fill="black" r="0.3" stroke="none" /><circle cx="140.4366352396421" cy="144.8871175787549" fill="black" r="0.3" stroke="none" /><circle cx="127.4453318212513" cy="70.04716108979434" fill="black" r="0.3" stroke="none" /><circle cx="187.740989189478" cy="116.58208821548475" fill="black" r="0.3" stroke="none" /><circle cx="111.6426464726747" cy="123.01486860795164" fill="black" r="0.3" stroke="none" /><circle cx="163.54867295285933" cy="66.71766148263825" fill="black" r="0.3" stroke="none" /><circle cx="163.30213604358087" cy="143.49541230519975" fill="black" r="0.3" stroke="none" /><circle cx="111.48455058096421" cy="86.56480256935654" fill="black" r="0.3" stroke="none" /><circle cx="188.351297020698" cy="93.55997702064782" fill="black" r="0.3" stroke="none" /><circle cx="126.78589735078907" cy="140.44711195766914" fill="black" r="0.3" stroke="none" /><circle cx="140.54649171847228" cy="64.08861153644783" fill="black" r="0.3" stroke="none" /><circle cx="182.08659052705198" cy="129.85841782511795" fill="black" r="0.3" stroke="none" /><circle cx="106.83570461057354" cy="109.36880872808804" fill="black" r="0.3" stroke="none" /><circle cx="176.34198314668174" cy="73.55442838077371" fill="black" r="0.3" stroke="none" /><circle cx="149.21317895173948" cy="147.1009664471351" fill="black" r="0.3" stroke="none" /><circle cx="119.461908487444" cy="74.36033222588038" fill="black" r="0.3" stroke="none" /><circle cx="190.71478404378456" cy="107.98529866791144" fill="black" r="0.3" stroke="none" /><circle cx="115.27241872588864" cy="131.38044432287532" fill="black" r="0.3" stroke="none" /><circle cx="155.1979325256341" cy="62.998360747679705" fill="black" r="0.3" stroke="none" /><circle cx="171.9910710233669" cy="140.58327672060474" fill="black" r="0.3" stroke="none" /><circle cx="107.0400129851962" cy="94.60435299116497" fill="black" r="0.3" stroke="none" /><circle cx="186.18594375024608" cy="84.60956980215256" fill="black" r="0.3" stroke="none" /><circle cx="134.45078736925797" cy="145.5908810505044" fill="black" r="0.3" stroke="none" /><circle cx="131.39914855417692" cy="65.48341006832838" fill="black" r="0.3" stroke="none" /><circle cx="187.89798803935642" cy="122.62947924502392" fill="black" r="0.3" stroke="none" /><circle cx="107.44179110748314" cy="118.64637250475191" fill="black" r="0.3" stroke="none" /><circle cx="169.6076104715725" cy="67.11241918279339" fill="black" r="0.3" stroke="none" /><circle cx="158.55256129418157" cy="147.29593374577186" fill="black" r="0.3" stroke="none" /><circle cx="112.43148951176141" cy="80.54468255859634" fill="black" r="0.3" stroke="none" /><circle cx="191.71717446730167" cy="98.65367578335231" fill="black" r="0.3" stroke="none" /><circle cx="120.85491003786989" cy="138.95215753064497" fill="black" r="0.3" stroke="none" /><circle cx="145.9442978296829" cy="61.18826200187173" fill="black" r="0.3" stroke="none" /><circle cx="180.05236214265028" cy="135.65042321435462" fill="black" r="0.3" stroke="none" /><circle cx="104.42807002249828" cy="103.70965583731167" fill="black" r="0.3" stroke="none" /><circle cx="181.9460381136269" cy="76.11466575402295" fill="black" r="0.3" stroke="none" /><circle cx="143.33784190851372" cy="148.99263715485245" fill="black" r="0.3" stroke="none" /><circle cx="122.53045626859118" cy="68.99190648781243" fill="black" r="0.3" stroke="none" /><circle cx="192.07138967930663" cy="114.02961801041496" fill="black" r="0.3" stroke="none" /><circle cx="110.18561153066292" cy="127.82559169486588" fill="black" r="0.3" stroke="none" /><circle cx="161.3623739968181" cy="62.191597376613345" fill="black" r="0.3" stroke="none" /><circle cx="167.97606357102256" cy="145.34455288855594" fill="black" r="0.3" stroke="none" /><circle cx="106.7934037384414" cy="88.36991195828037" fill="black" r="0.3" stroke="none" /><circle cx="190.58022490296878" cy="89.05463477635067" fill="black" r="0.3" stroke="none" /><circle cx="128.1973239986133" cy="145.2715947931382" fill="black" r="0.3" stroke="none" /><circle cx="136.24045680370907" cy="61.49478651220894" fill="black" r="0.3" stroke="none" /><circle cx="187.01170337137225" cy="128.85054933194274" fill="black" r="0.3" stroke="none" /><circle cx="103.89435511169944" cy="113.44609046238709" fill="black" r="0.3" stroke="none" /><circle cx="175.7448546588946" cy="68.56213652509646" fill="black" r="0.3" stroke="none" /><circle cx="153.03373913936542" cy="150.37009157381308" fill="black" r="0.3" stroke="none" /><circle cx="114.43641316709704" cy="74.54229076116721" fill="black" r="0.3" stroke="none" /><circle cx="194.28968256119003" cy="104.44775825452172" fill="black" r="0.3" stroke="none" /><circle cx="115.03756960827411" cy="136.40486828946908" fill="black" r="0.3" stroke="none" /><circle cx="151.96785731958008" cy="59.14180590547601" fill="black" r="0.3" stroke="none" /><circle cx="176.98007816516267" cy="141.23375701892124" fill="black" r="0.3" stroke="none" /><circle cx="102.92788018021437" cy="97.50454169972905" fill="black" r="0.3" stroke="none" /><circle cx="187.24806137430278" cy="79.690165157922" fill="black" r="0.3" stroke="none" /><circle cx="137.00085122851755" cy="149.9307197530967" fill="black" r="0.3" stroke="none" /><circle cx="126.5831415373107" cy="64.01645067680882" fill="black" r="0.3" stroke="none" /><circle cx="192.43604750776427" cy="120.44745057915648" fill="black" r="0.3" stroke="none" /><circle cx="105.57955259445524" cy="123.32580679009428" fill="black" r="0.3" stroke="none" /><circle cx="167.8090690830663" cy="62.40704458310773" fill="black" r="0.3" stroke="none" /><circle cx="163.06309442717358" cy="149.5411751158995" fill="black" r="0.3" stroke="none" /><circle cx="107.59092263605231" cy="81.94685728082734" fill="black" r="0.3" stroke="none" /><circle cx="194.33050092172073" cy="94.34330326676435" fill="black" r="0.3" stroke="none" /><circle cx="121.85050911558332" cy="143.89478931169822" fill="black" r="0.3" stroke="none" /><circle cx="141.86406009223208" cy="58.22431933642768" fill="black" r="0.3" stroke="none" /><circle cx="185.0631476990337" cy="135.06885814823448" fill="black" r="0.3" stroke="none" /><circle cx="101.13342288616951" cy="107.53127883085781" fill="black" r="0.3" stroke="none" /><circle cx="181.78315281257125" cy="71.0701939461035" fill="black" r="0.3" stroke="none" /><circle cx="146.8740643576605" cy="152.59575961455988" fill="black" r="0.3" stroke="none" /><circle cx="117.48708965256355" cy="68.73432212432988" fill="black" r="0.3" stroke="none" /><circle cx="195.95858286852535" cy="110.80369814095376" fill="black" r="0.3" stroke="none" /><circle cx="109.50864749577686" cy="132.83297378814223" fill="black" r="0.3" stroke="none" /><circle cx="158.46959711857016" cy="58.04675588105336" fill="black" r="0.3" stroke="none" /><circle cx="172.91273192366705" cy="146.4369221832796" fill="black" r="0.3" stroke="none" /><circle cx="102.41918187774583" cy="90.90893186505257" fill="black" r="0.3" stroke="none" /><circle cx="192.08115579316734" cy="84.2230209190153" fill="black" r="0.3" stroke="none" /><circle cx="130.36434991104295" cy="149.84526949245497" fill="black" r="0.3" stroke="none" /><circle cx="131.54761266896105" cy="59.59497204297271" fill="black" r="0.3" stroke="none" /><circle cx="191.753442174391" cy="127.07124237705287" fill="black" r="0.3" stroke="none" /><circle cx="101.60811488929693" cy="117.9673093109027" fill="black" r="0.3" stroke="none" /><circle cx="174.36636093227483" cy="63.6849740152413" fill="black" r="0.3" stroke="none" /><circle cx="157.351566373419" cy="153.02759386786892" fill="black" r="0.3" stroke="none" /><circle cx="109.45749965718878" cy="75.50960890422805" fill="black" r="0.3" stroke="none" /><circle cx="197.30067038650753" cy="100.36377633979464" fill="black" r="0.3" stroke="none" /><circle cx="115.58616471379176" cy="141.45105549572403" fill="black" r="0.3" stroke="none" /><circle cx="148.14664619229399" cy="55.797610412840925" fill="black" r="0.3" stroke="none" /><circle cx="182.05849172520166" cy="141.10855346215868" fill="black" r="0.3" stroke="none" /><circle cx="99.2731267723518" cy="101.03579109669366" fill="black" r="0.3" stroke="none" /><circle cx="187.54799441855715" cy="74.61490279942602" fill="black" r="0.3" stroke="none" /><circle cx="140.21687794239114" cy="153.8711560020709" fill="black" r="0.3" stroke="none" /><circle cx="121.5464946820697" cy="63.292583979868716" fill="black" r="0.3" stroke="none" /><circle cx="196.6352290024232" cy="117.56979430556751" fill="black" r="0.3" stroke="none" /><circle cx="104.43590744786482" cy="128.28853253334924" fill="black" r="0.3" stroke="none" /><circle cx="165.29064822743138" cy="57.97793994195218" fill="black" r="0.3" stroke="none" /><circle cx="167.91699785962538" cy="151.09750746102551" fill="black" r="0.3" stroke="none" /><circle cx="102.9624093503173" cy="84.08761520481389" fill="black" r="0.3" stroke="none" /><circle cx="196.28952986435146" cy="89.63247465125696" fill="black" r="0.3" stroke="none" /><circle cx="123.59775265922417" cy="148.69070927987806" fill="black" r="0.3" stroke="none" /><circle cx="137.32966897455458" cy="55.87542667073869" fill="black" r="0.3" stroke="none" /><circle cx="189.99320136845705" cy="133.72828293157588" fill="black" r="0.3" stroke="none" /><circle cx="98.41026444821554" cy="111.85699586935124" fill="black" r="0.3" stroke="none" /><circle cx="180.85959906282773" cy="66.04032407099567" fill="black" r="0.3" stroke="none" /><circle cx="150.9602265632715" cy="155.67491771337546" fill="black" r="0.3" stroke="none" /><circle cx="112.39253053129526" cy="69.23338639783526" fill="black" r="0.3" stroke="none" /><circle cx="199.37292244613144" cy="106.98639416780625" fill="black" r="0.3" stroke="none" /><circle cx="109.57870403634817" cy="137.95652773745772" fill="black" r="0.3" stroke="none" /><circle cx="154.94866570939254" cy="54.3204704977591" fill="black" r="0.3" stroke="none" /><circle cx="178.02926613197542" cy="146.79739754705992" fill="black" r="0.3" stroke="none" /><circle cx="98.40645160448317" cy="94.10796579393859" fill="black" r="0.3" stroke="none" /><circle cx="192.87066955262628" cy="79.14959026530441" fill="black" r="0.3" stroke="none" /><circle cx="133.21813835261008" cy="154.1168474618438" fill="black" r="0.3" stroke="none" /><circle cx="126.55318586536225" cy="58.380933628614315" fill="black" r="0.3" stroke="none" /><circle cx="196.2543589696843" cy="124.58369728612382" fill="black" r="0.3" stroke="none" /><circle cx="99.97706714417453" cy="122.84726833633239" fill="black" r="0.3" stroke="none" /><circle cx="172.26354925330784" cy="58.9859399000087" fill="black" r="0.3" stroke="none" /><circle cx="162.08228121237315" cy="155.06517389431514" fill="black" r="0.3" stroke="none" /><circle cx="104.59307019452487" cy="77.21184577815433" fill="black" r="0.3" stroke="none" /><circle cx="199.73140484461186" cy="95.81614690625547" fill="black" r="0.3" stroke="none" /><circle cx="116.8747570262914" cy="146.44688175066847" fill="black" r="0.3" stroke="none" /><circle cx="143.81476578129536" cy="52.98991847424309" fill="black" r="0.3" stroke="none" /><circle cx="187.15067372510282" cy="140.24379974684408" fill="black" r="0.3" stroke="none" /><circle cx="96.10739137723067" cy="105.12067187458975" fill="black" r="0.3" stroke="none" /><circle cx="187.11431327565828" cy="69.46220588937291" fill="black" r="0.3" stroke="none" /><circle cx="144.0251481664884" cy="157.37342552352402" fill="black" r="0.3" stroke="none" /><circle cx="116.36967383104638" cy="63.29098250645726" fill="black" r="0.3" stroke="none" /><circle cx="200.45006878080943" cy="114.06588956855134" fill="black" r="0.3" stroke="none" /><circle cx="103.99788006307477" cy="133.4527910954184" fill="black" r="0.3" stroke="none" /><circle cx="162.11680361401082" cy="53.87678942654851" fill="black" r="0.3" stroke="none" /><circle cx="173.03197095823356" cy="151.97001597726347" fill="black" r="0.3" stroke="none" /><circle cx="98.60332727283895" cy="86.90795614756084" fill="black" r="0.3" stroke="none" /><circle cx="197.5914871096484" cy="84.60328719221586" fill="black" r="0.3" stroke="none" /><circle cx="126.0435733067519" cy="153.27741604695484" fill="black" r="0.3" stroke="none" /><circle cx="132.42228460357524" cy="54.15211835649822" fill="black" r="0.3" stroke="none" /><circle cx="194.77550490711354" cy="131.67541275391463" fill="black" r="0.3" stroke="none" /><circle cx="96.2767237286224" cy="116.60730009448233" fill="black" r="0.3" stroke="none" /><circle cx="179.21538109701407" cy="61.09595275985152" fill="black" r="0.3" stroke="none" /><circle cx="155.51916772156542" cy="158.2046171351372" fill="black" r="0.3" stroke="none" /><circle cx="107.3208897383985" cy="70.45610215880575" fill="black" r="0.3" stroke="none" /><circle cx="202.28183916368357" cy="102.6518568672947" fill="black" r="0.3" stroke="none" /><circle cx="110.37002300273744" cy="143.11961246114956" fill="black" r="0.3" stroke="none" /><circle cx="150.87009049471135" cy="51.05203737816525" fill="black" r="0.3" stroke="none" /><circle cx="183.24719258088143" cy="146.44433143081378" fill="black" r="0.3" stroke="none" /><circle cx="94.80083401547519" cy="97.90073436428425" fill="black" r="0.3" stroke="none" /><circle cx="192.95961191995053" cy="73.91394351276776" fill="black" r="0.3" stroke="none" /><circle cx="136.6971894591129" cy="158.0348344330019" fill="black" r="0.3" stroke="none" /><circle cx="121.33719697759368" cy="57.84936763980833" fill="black" r="0.3" stroke="none" /><circle cx="200.45758345863112" cy="121.4441333350038" fill="black" r="0.3" stroke="none" /><circle cx="99.00542073196473" cy="128.00623009274173" fill="black" r="0.3" stroke="none" /><circle cx="169.4869078758092" cy="54.52674274616015" fill="black" r="0.3" stroke="none" /><circle cx="167.1471224139771" cy="156.47120384912472" fill="black" r="0.3" stroke="none" /><circle cx="99.90909823284798" cy="79.60464086776909" fill="black" r="0.3" stroke="none" /><circle cx="201.56299502574203" cy="90.8819775146065" fill="black" r="0.3" stroke="none" /><circle cx="118.86545416621016" cy="151.32271249856825" fill="black" r="0.3" stroke="none" /><circle cx="139.0470134947239" cy="50.74466803961967" fill="black" r="0.3" stroke="none" /><circle cx="192.18395731129544" cy="138.67063815292067" fill="black" r="0.3" stroke="none" /><circle cx="93.46338523343749" cy="109.68732706742267" fill="black" r="0.3" stroke="none" /><circle cx="185.97118820996832" cy="64.30712526580199" fill="black" r="0.3" stroke="none" /><circle cx="148.3573445921752" cy="160.39837226340336" fill="black" r="0.3" stroke="none" /><circle cx="111.12945157490466" cy="63.99460876411976" fill="black" r="0.3" stroke="none" /><circle cx="203.83534580570895" cy="109.9999504560154" fill="black" r="0.3" stroke="none" /><circle cx="104.25566470949136" cy="138.74075865627583" fill="black" r="0.3" stroke="none" /><circle cx="158.34712242953375" cy="50.154451594885366" fill="black" r="0.3" stroke="none" /><circle cx="178.32981186901554" cy="152.16123751407653" fill="black" r="0.3" stroke="none" /><circle cx="94.5697014514414" cy="90.35339976433654" fill="black" r="0.3" stroke="none" /><circle cx="198.23166498539672" cy="79.33365047810135" fill="black" r="0.3" stroke="none" /><circle cx="129.1390302989897" cy="157.59422831677028" fill="black" r="0.3" stroke="none" /><circle cx="127.21886237308405" cy="53.06626162787563" fill="black" r="0.3" stroke="none" /><circle cx="199.3452656058952" cy="128.95326627969493" fill="black" r="0.3" stroke="none" /><circle cx="94.75168331513561" cy="121.70683852628997" fill="black" r="0.3" stroke="none" /><circle cx="176.88726580875664" cy="56.30540954168527" fill="black" r="0.3" stroke="none" /><circle cx="160.47776661043522" cy="160.15916158740941" fill="black" r="0.3" stroke="none" /><circle cx="102.34343428744444" cy="72.3722289817012" fill="black" r="0.3" stroke="none" /><circle cx="204.65307986870386" cy="97.87037018780323" fill="black" r="0.3" stroke="none" /><circle cx="111.85910847390397" cy="148.248642385315" fill="black" r="0.3" stroke="none" /><circle cx="146.30074116660322" cy="48.27995715283947" fill="black" r="0.3" stroke="none" /><circle cx="188.49124039944343" cy="145.39431508658024" fill="black" r="0.3" stroke="none" /><circle cx="91.64671834655611" cy="102.22432616574257" fill="black" r="0.3" stroke="none" /><circle cx="192.35756792208701" cy="68.59239453136851" fill="black" r="0.3" stroke="none" /><circle cx="140.74305705840698" cy="161.54935752244114" fill="black" r="0.3" stroke="none" /><circle cx="115.97635685902847" cy="57.997737960405175" fill="black" r="0.3" stroke="none" /><circle cx="204.30820641744853" cy="117.70606534169634" fill="black" r="0.3" stroke="none" /><circle cx="98.69767247158819" cy="133.36773118796768" fill="black" r="0.3" stroke="none" /><circle cx="166.08459839441048" cy="50.36684249187773" fill="black" r="0.3" stroke="none" /><circle cx="172.47051170147023" cy="157.2342279426975" fill="black" r="0.3" stroke="none" /><circle cx="95.46907477305844" cy="82.64556040571512" fill="black" r="0.3" stroke="none" /><circle cx="202.77715699657085" cy="85.63533557301854" fill="black" r="0.3" stroke="none" /><circle cx="121.52187492002903" cy="156.01157483522186" fill="black" r="0.3" stroke="none" /><circle cx="133.915336983528" cy="49.08678506206289" fill="black" r="0.3" stroke="none" /><circle cx="197.0884616374861" cy="136.41912468071865" fill="black" r="0.3" stroke="none" /><circle cx="91.37243688096521" cy="114.66651602598873" fill="black" r="0.3" stroke="none" /><circle cx="184.14213117173225" cy="59.22185580938179" fill="black" r="0.3" stroke="none" /><circle cx="153.1474946117525" cy="162.90855544592466" fill="black" r="0.3" stroke="none" /><circle cx="105.89972793995001" cy="65.38665855535885" fill="black" r="0.3" stroke="none" /><circle cx="206.74784556446969" cy="105.43415100793275" fill="black" r="0.3" stroke="none" /><circle cx="105.19927264795928" cy="144.0774488776357" fill="black" r="0.3" stroke="none" /><circle cx="154.03948415976998" cy="46.8595311745454" fill="black" r="0.3" stroke="none" /><circle cx="183.73507165324614" cy="151.67429405562135" fill="black" r="0.3" stroke="none" /><circle cx="90.91510173504821" cy="94.37081885490927" fill="black" r="0.3" stroke="none" /><circle cx="198.20632379534953" cy="73.89885251711974" fill="black" r="0.3" stroke="none" /><circle cx="132.83616481843205" cy="161.58307403636422" fill="black" r="0.3" stroke="none" /><circle cx="121.79391102126955" cy="52.62839689812683" fill="black" r="0.3" stroke="none" /><circle cx="203.64040593622246" cy="125.60426250047797" fill="black" r="0.3" stroke="none" /><circle cx="93.8523684049342" cy="127.0824899196165" fill="black" r="0.3" stroke="none" /><circle cx="173.9118082152373" cy="51.734251124836355" fill="black" r="0.3" stroke="none" /><circle cx="165.764882782336" cy="161.51481064740636" fill="black" r="0.3" stroke="none" /><circle cx="97.52864864297851" cy="74.95135043235612" fill="black" r="0.3" stroke="none" /><circle cx="206.45661034097594" cy="92.7105200360519" fill="black" r="0.3" stroke="none" /><circle cx="114.02190583192441" cy="153.27277724077322" fill="black" r="0.3" stroke="none" /><circle cx="141.30609935867744" cy="46.04028669029353" fill="black" r="0.3" stroke="none" /><circle cx="193.6888012708191" cy="143.66487087404298" fill="black" r="0.3" stroke="none" /><circle cx="88.98586576666759" cy="107.0168853355836" fill="black" r="0.3" stroke="none" /><circle cx="191.07541099861587" cy="63.25872093120601" fill="black" r="0.3" stroke="none" /><circle cx="145.29800035483242" cy="164.61331393466014" fill="black" r="0.3" stroke="none" /><circle cx="110.54500751665145" cy="58.82188239448303" fill="black" r="0.3" stroke="none" /><circle cx="207.75418722599954" cy="113.42266562236634" fill="black" r="0.3" stroke="none" /><circle cx="99.05637926910887" cy="138.85747139140477" fill="black" r="0.3" stroke="none" /><circle cx="162.10481048851173" cy="46.56277614763274" fill="black" r="0.3" stroke="none" /><circle cx="177.97879323372572" cy="157.34501647227984" fill="black" r="0.3" stroke="none" /><circle cx="91.33355791317072" cy="86.29176921424171" fill="black" r="0.3" stroke="none" /><circle cx="203.35808800244246" cy="80.14863825227519" fill="black" r="0.3" stroke="none" /><circle cx="124.80686550159876" cy="160.44939474548545" fill="black" r="0.3" stroke="none" /><circle cx="128.49033347018087" cy="48.0384933014809" fill="black" r="0.3" stroke="none" /><circle cx="201.79712760446694" cy="133.52045211971875" fill="black" r="0.3" stroke="none" /><circle cx="89.8629882753583" cy="119.99002521693119" fill="black" r="0.3" stroke="none" /><circle cx="181.65214355633307" cy="54.275889582760705" fill="black" r="0.3" stroke="none" /><circle cx="158.3303102206778" cy="164.86956656737408" fill="black" r="0.3" stroke="none" /><circle cx="100.75185905421182" cy="67.44850154492971" fill="black" r="0.3" stroke="none" /><circle cx="209.14749119708466" cy="100.43033792282833" fill="black" r="0.3" stroke="none" /><circle cx="106.81657242185904" cy="149.39022263221796" fill="black" r="0.3" stroke="none" /><circle cx="149.2518084108798" cy="44.03743128678607" fill="black" r="0.3" stroke="none" /><circle cx="189.17441674623475" cy="150.51474291208967" fill="black" r="0.3" stroke="none" /><circle cx="87.68987447401142" cy="98.90667303408782" fill="black" r="0.3" stroke="none" /><circle cx="197.5144242739755" cy="68.3723299527431" fill="black" r="0.3" stroke="none" /><circle cx="137.08623079255653" cy="165.18908432996147" fill="black" r="0.3" stroke="none" /><circle cx="116.22038080411895" cy="52.84612972588796" fill="black" r="0.3" stroke="none" /><circle cx="207.60198933427097" cy="121.67197818891687" fill="black" r="0.3" stroke="none" /><circle cx="93.5928683922692" cy="132.66237333656187" fill="black" r="0.3" stroke="none" /><circle cx="170.3270836411484" cy="47.44499657091216" fill="black" r="0.3" stroke="none" /><circle cx="171.31027645013572" cy="162.25112477732105" fill="black" r="0.3" stroke="none" /><circle cx="92.94212281430165" cy="78.16117955984538" fill="black" r="0.3" stroke="none" /><circle cx="207.66582449218896" cy="87.24034876019537" fill="black" r="0.3" stroke="none" /><circle cx="116.83215618745139" cy="158.12388980735528" fill="black" r="0.3" stroke="none" /><circle cx="135.95147353394444" cy="44.36556684910212" fill="black" r="0.3" stroke="none" /><circle cx="198.76976236770315" cy="141.2760388065546" fill="black" r="0.3" stroke="none" /><circle cx="86.85647401549397" cy="112.21634978347998" fill="black" r="0.3" stroke="none" /><circle cx="189.1268215909666" cy="57.984456108476536" fill="black" r="0.3" stroke="none" /><circle cx="150.30368825444265" cy="167.18317062261127" fill="black" r="0.3" stroke="none" /><circle cx="105.11552895296128" cy="60.314569802130585" fill="black" r="0.3" stroke="none" /><circle cx="210.74702003874737" cy="108.64808117998818" fill="black" r="0.3" stroke="none" /><circle cx="100.08079760269206" cy="144.40280242836198" fill="black" r="0.3" stroke="none" /><circle cx="157.59708890338663" cy="43.16762196483237" fill="black" r="0.3" stroke="none" /><circle cx="183.59962860922298" cy="156.79783848284225" fill="black" r="0.3" stroke="none" /><circle cx="87.55976336205671" cy="90.49870493674877" fill="black" r="0.3" stroke="none" /><circle cx="203.2936468554177" cy="74.49334065677176" fill="black" r="0.3" stroke="none" /><circle cx="128.6811852432066" cy="164.57528498996803" fill="black" r="0.3" stroke="none" /><circle cx="122.8420105299325" cy="47.61822958156567" fill="black" r="0.3" stroke="none" /><circle cx="206.24588955022534" cy="130.00824344197676" fill="black" r="0.3" stroke="none" /><circle cx="88.95960806160022" cy="125.58984525978131" fill="black" r="0.3" stroke="none" /><circle cx="178.5289800403137" cy="49.53595436917318" fill="black" r="0.3" stroke="none" /><circle cx="163.84031308705596" cy="166.2509166820473" fill="black" r="0.3" stroke="none" /><circle cx="95.75469947287166" cy="70.1584547945572" fill="black" r="0.3" stroke="none" /><circle cx="210.99813081113084" cy="95.05094752678525" fill="black" r="0.3" stroke="none" /><circle cx="109.0921077411924" cy="154.60864871893017" fill="black" r="0.3" stroke="none" /><circle cx="144.04300433607057" cy="41.72966580101134" fill="black" r="0.3" stroke="none" /><circle cx="194.57639984061458" cy="148.69170834068876" fill="black" r="0.3" stroke="none" /><circle cx="84.94055347298453" cy="103.90603602460554" fill="black" r="0.3" stroke="none" /><circle cx="196.15870339112007" cy="62.82597966665688" fill="black" r="0.3" stroke="none" /><circle cx="141.83870763194616" cy="168.36108572292073" fill="black" r="0.3" stroke="none" /><circle cx="110.57005009858034" cy="53.72311533960166" fill="black" r="0.3" stroke="none" /><circle cx="211.1746180145249" cy="117.2021414814528" fill="black" r="0.3" stroke="none" /><circle cx="93.98318544761796" cy="138.37539409596812" fill="black" r="0.3" stroke="none" /><circle cx="166.17367991315825" cy="43.49682090877556" fill="black" r="0.3" stroke="none" /><circle cx="177.0440945405698" cy="162.3518497248259" fill="black" r="0.3" stroke="none" /><circle cx="88.64633391154075" cy="81.96657524875593" fill="black" r="0.3" stroke="none" /><circle cx="208.25835950873397" cy="81.52792150607655" fill="black" r="0.3" stroke="none" /><circle cx="120.26042786767572" cy="162.73670033681572" fill="black" r="0.3" stroke="none" /><circle cx="130.30261038752465" cy="43.284078137876165" fill="black" r="0.3" stroke="none" /><circle cx="203.66656104504108" cy="138.251323920466" fill="black" r="0.3" stroke="none" /><circle cx="85.2925047584717" cy="117.75980192997439" fill="black" r="0.3" stroke="none" /><circle cx="186.52920795018036" cy="52.83890968660701" fill="black" r="0.3" stroke="none" /><circle cx="155.70051920965062" cy="169.21956495579406" fill="black" r="0.3" stroke="none" /><circle cx="99.7584299011186" cy="62.464610683622155" fill="black" r="0.3" stroke="none" /><circle cx="213.2422627597826" cy="103.43813805243015" fill="black" r="0.3" stroke="none" /><circle cx="101.76602974562202" cy="149.93257197471468" fill="black" r="0.3" stroke="none" /><circle cx="152.6130555895375" cy="40.23054135074638" fill="black" r="0.3" stroke="none" /><circle cx="189.26178074177804" cy="155.59127623176957" fill="black" r="0.3" stroke="none" /><circle cx="84.20117596947354" cy="95.2193441788706" fill="black" r="0.3" stroke="none" /><circle cx="202.57612597220984" cy="68.7402068423206" fill="black" r="0.3" stroke="none" /><circle cx="133.1027667342652" cy="168.33186565829678" fill="black" r="0.3" stroke="none" /><circle cx="117.04010675228952" cy="47.83991675266156" fill="black" r="0.3" stroke="none" /><circle cx="210.37392996022982" cy="125.91929232255652" fill="black" r="0.3" stroke="none" /><circle cx="88.68231159350212" cy="131.39780585016734" fill="black" r="0.3" stroke="none" /><circle cx="174.80388480593535" cy="45.06582240393981" fill="black" r="0.3" stroke="none" /><circle cx="169.61143022439956" cy="167.02666776379584" fill="black" r="0.3" stroke="none" /><circle cx="90.97447166991486" cy="73.4910553914516" fill="black" r="0.3" stroke="none" /><circle cx="212.26811912712103" cy="89.35944428770824" fill="black" r="0.3" stroke="none" /><circle cx="112.00638311862309" cy="159.6645765273571" fill="black" r="0.3" stroke="none" /><circle cx="138.473438408697" cy="39.97332806720148" fill="black" r="0.3" stroke="none" /><circle cx="199.87147781374708" cy="146.21857915105386" fill="black" r="0.3" stroke="none" /><circle cx="82.70937935870394" cy="109.31210338849488" fill="black" r="0.3" stroke="none" /><circle cx="194.14635184800815" cy="57.330192333429295" fill="black" r="0.3" stroke="none" /><circle cx="147.0407880390856" cy="171.05203025231793" fill="black" r="0.3" stroke="none" /><circle cx="104.91360707614217" cy="55.258404208478844" fill="black" r="0.3" stroke="none" /><circle cx="214.30681301020545" cy="112.24315963097976" fill="black" r="0.3" stroke="none" /><circle cx="95.02860573009272" cy="144.15111741485967" fill="black" r="0.3" stroke="none" /><circle cx="161.495236541968" cy="39.94522440882376" fill="black" r="0.3" stroke="none" /><circle cx="182.89670312032536" cy="161.80551746487484" fill="black" r="0.3" stroke="none" /><circle cx="84.70036370911154" cy="86.3289954970187" fill="black" r="0.3" stroke="none" /><circle cx="208.21666709791847" cy="75.64153153319506" fill="black" r="0.3" stroke="none" /><circle cx="124.27356579075274" cy="167.04901196235937" fill="black" r="0.3" stroke="none" /><circle cx="124.42593445681688" cy="42.81930067760155" fill="black" r="0.3" stroke="none" /><circle cx="208.31437468861262" cy="134.6182474263799" fill="black" r="0.3" stroke="none" /><circle cx="84.32317595329967" cy="123.58319819834207" fill="black" r="0.3" stroke="none" /><circle cx="183.30425469795833" cy="47.88902159024374" fill="black" r="0.3" stroke="none" /><circle cx="161.42732313491217" cy="170.68777905033448" fill="black" r="0.3" stroke="none" /><circle cx="94.5422440413299" cy="65.25631406242495" fill="black" r="0.3" stroke="none" /><circle cx="215.19997744470368" cy="97.8506637457719" fill="black" r="0.3" stroke="none" /><circle cx="104.10248868804776" cy="155.3771871912781" fill="black" r="0.3" stroke="none" /><circle cx="147.20675336928497" cy="37.79637276789188" fill="black" r="0.3" stroke="none" /><circle cx="194.89513912467814" cy="153.72874988753313" fill="black" r="0.3" stroke="none" /><circle cx="81.30717807116393" cy="100.40384059896462" fill="black" r="0.3" stroke="none" /><circle cx="201.2027635986822" cy="62.95932078258703" fill="black" r="0.3" stroke="none" /><circle cx="138.02633852284202" cy="171.66560143928723" fill="black" r="0.3" stroke="none" /><circle cx="111.15413686085644" cy="48.71246579932322" fill="black" r="0.3" stroke="none" /><circle cx="214.12398259630373" cy="121.29395311764532" fill="black" r="0.3" stroke="none" /><circle cx="89.04607900570937" cy="137.34549858024525" fill="black" r="0.3" stroke="none" /><circle cx="170.5119916398759" cy="40.9260409835163" fill="black" r="0.3" stroke="none" /><circle cx="175.57688684376564" cy="167.1758972500591" fill="black" r="0.3" stroke="none" /><circle cx="86.47452984357552" cy="77.41665263470553" fill="black" r="0.3" stroke="none" /><circle cx="212.93076341823655" cy="83.42045585877139" fill="black" r="0.3" stroke="none" /><circle cx="115.53545059242447" cy="164.4923396947499" fill="black" r="0.3" stroke="none" /><circle cx="132.60509532150058" cy="38.80066461616539" fill="black" r="0.3" stroke="none" /><circle cx="204.99218360356318" cy="143.11342534726194" fill="black" r="0.3" stroke="none" /><circle cx="81.03389378632791" cy="115.06600776701055" fill="black" r="0.3" stroke="none" /><circle cx="191.4894321355598" cy="51.95371149022679" fill="black" r="0.3" stroke="none" /><circle cx="152.63717132786786" cy="173.2193800426526" fill="black" r="0.3" stroke="none" /><circle cx="99.32053882028555" cy="57.446024371531685" fill="black" r="0.3" stroke="none" /><circle cx="216.95137695801034" cy="106.84634572937215" fill="black" r="0.3" stroke="none" /><circle cx="96.72928376865767" cy="149.91985018779366" fill="black" r="0.3" stroke="none" /><circle cx="156.3386896760964" cy="36.84169203859402" fill="black" r="0.3" stroke="none" /><circle cx="188.79874104975727" cy="160.60585823278524" fill="black" r="0.3" stroke="none" /><circle cx="81.1595806821665" cy="91.206235970615" fill="black" r="0.3" stroke="none" /><circle cx="207.52842052474386" cy="69.64967368815394" fill="black" r="0.3" stroke="none" /><circle cx="128.83441519599032" cy="171.0020058355525" fill="black" r="0.3" stroke="none" /><circle cx="118.38854771308415" cy="42.98951345802235" fill="black" r="0.3" stroke="none" /><circle cx="212.65139286088092" cy="130.40863620914976" fill="black" r="0.3" stroke="none" /><circle cx="83.97256859230444" cy="129.62134431596184" fill="black" r="0.3" stroke="none" /><circle cx="179.47822403407375" cy="43.19911298618168" fill="black" r="0.3" stroke="none" /><circle cx="167.42131260688856" cy="171.55812444196727" fill="black" r="0.3" stroke="none" /><circle cx="89.53330406675805" cy="68.66917602480521" fill="black" r="0.3" stroke="none" /><circle cx="216.58510537424286" cy="91.94555913957838" fill="black" r="0.3" stroke="none" /><circle cx="107.0755778135433" cy="160.6688175419435" fill="black" r="0.3" stroke="none" /><circle cx="141.43473996552348" cy="35.90526720042092" fill="black" r="0.3" stroke="none" /><circle cx="200.4308995801629" cy="151.2188453857843" fill="black" r="0.3" stroke="none" /><circle cx="78.9226963715343" cy="105.99940972193194" fill="black" r="0.3" stroke="none" /><circle cx="199.17607792201744" cy="57.21992961033213" fill="black" r="0.3" stroke="none" /><circle cx="143.40328972157258" cy="174.5271425008807" fill="black" r="0.3" stroke="none" /><circle cx="105.25325784301515" cy="50.23943670115081" fill="black" r="0.3" stroke="none" /><circle cx="217.44266036469156" cy="116.17629553290288" fill="black" r="0.3" stroke="none" /><circle cx="90.06051223583836" cy="143.36438804232907" fill="black" r="0.3" stroke="none" /><circle cx="165.69249695620238" cy="37.17361834499077" fill="black" r="0.3" stroke="none" /><circle cx="181.6692948283777" cy="166.68304370398852" fill="black" r="0.3" stroke="none" /><circle cx="82.31506024722995" cy="81.90121756623957" fill="black" r="0.3" stroke="none" /><circle cx="212.9646707291806" cy="77.29970708136233" fill="black" r="0.3" stroke="none" /><circle cx="119.65070271259593" cy="169.0290406458115" fill="black" r="0.3" stroke="none" /><circle cx="126.50153430278822" cy="38.23872749139218" fill="black" r="0.3" stroke="none" /><circle cx="209.8733949621194" cy="139.3992207880309" fill="black" r="0.3" stroke="none" /><circle cx="79.94659241583295" cy="121.1068404288075" fill="black" r="0.3" stroke="none" /><circle cx="188.2051159400027" cy="46.76338120914863" fill="black" r="0.3" stroke="none" /><circle cx="158.57006302850888" cy="174.82545259861809" fill="black" r="0.3" stroke="none" /><circle cx="93.85889604973536" cy="60.27473019537641" fill="black" r="0.3" stroke="none" /><circle cx="219.06573657586767" cy="101.06594083607663" fill="black" r="0.3" stroke="none" /><circle cx="99.07997830589701" cy="155.61285860089697" fill="black" r="0.3" stroke="none" /><circle cx="150.75431573327612" cy="34.23335488682041" fill="black" r="0.3" stroke="none" /><circle cx="194.6813193353934" cy="158.7520766523715" fill="black" r="0.3" stroke="none" /><circle cx="78.07530642576262" cy="96.55236512538762" fill="black" r="0.3" stroke="none" /><circle cx="206.1868017444326" cy="63.62086389859582" fill="black" r="0.3" stroke="none" /><circle cx="133.9017358052806" cy="174.5405686092742" fill="black" r="0.3" stroke="none" /><circle cx="112.25806847077092" cy="43.80749719916114" fill="black" r="0.3" stroke="none" /><circle cx="216.61913757178587" cy="125.65872930448802" fill="black" r="0.3" stroke="none" /><circle cx="84.25932059253424" cy="135.80803643965652" fill="black" r="0.3" stroke="none" /><circle cx="175.08208248628733" cy="38.83057435119889" fill="black" r="0.3" stroke="none" /><circle cx="173.6182034979928" cy="171.80625609202644" fill="black" r="0.3" stroke="none" /><circle cx="84.79543922867236" cy="72.6777331096313" fill="black" r="0.3" stroke="none" /><circle cx="217.36778783626926" cy="85.78469884340598" fill="black" r="0.3" stroke="none" /><circle cx="110.66552489658244" cy="165.74168662170055" fill="black" r="0.3" stroke="none" /><circle cx="135.3560098123238" cy="34.59236176417879" fill="black" r="0.3" stroke="none" /><circle cx="205.80184430271888" cy="148.0754992949236" fill="black" r="0.3" stroke="none" /><circle cx="77.08787116421652" cy="111.95038525129809" fill="black" r="0.3" stroke="none" /><circle cx="196.50407020247735" cy="51.59017652158336" fill="black" r="0.3" stroke="none" /><circle cx="149.18170406722925" cy="176.87165838885812" fill="black" r="0.3" stroke="none" /><circle cx="99.40601596450173" cy="52.418817705169076" fill="black" r="0.3" stroke="none" /><circle cx="220.28079101167253" cy="110.61409313590306" fill="black" r="0.3" stroke="none" /><circle cx="91.72959745023743" cy="149.38604954642744" fill="black" r="0.3" stroke="none" /><circle cx="160.38867113662891" cy="33.86168754739056" fill="black" r="0.3" stroke="none" /><circle cx="187.82087403789185" cy="165.53816040231354" fill="black" r="0.3" stroke="none" /><circle cx="78.55274607104302" cy="86.90630861880277" fill="black" r="0.3" stroke="none" /><circle cx="212.35401655682688" cy="71.06381621984463" fill="black" r="0.3" stroke="none" /><circle cx="124.31881507330775" cy="173.21488324069105" fill="black" r="0.3" stroke="none" /><circle cx="120.22770398802744" cy="38.3090914875843" fill="black" r="0.3" stroke="none" /><circle cx="214.45266312077547" cy="135.10392378540547" fill="black" r="0.3" stroke="none" /><circle cx="79.47462917513015" cy="127.37181670068848" fill="black" r="0.3" stroke="none" /><circle cx="184.31578779214402" cy="41.82382296444248" fill="black" r="0.3" stroke="none" /><circle cx="164.77931960640245" cy="175.8377283172788" fill="black" r="0.3" stroke="none" /><circle cx="88.59497709831888" cy="63.72787585852818" fill="black" r="0.3" stroke="none" /><circle cx="220.6122606553883" cy="94.95899092872938" fill="black" r="0.3" stroke="none" /><circle cx="102.06990321059737" cy="161.1626754359753" fill="black" r="0.3" stroke="none" /><circle cx="144.79563091107244" cy="32.16266307961969" fill="black" r="0.3" stroke="none" /><circle cx="200.4763181000462" cy="156.2490229834951" fill="black" r="0.3" stroke="none" /><circle cx="75.49448096027326" cy="102.31780132352256" fill="black" r="0.3" stroke="none" /><circle cx="204.19069427616705" cy="57.623354160108626" fill="black" r="0.3" stroke="none" /><circle cx="139.43025484204418" cy="177.61363317428578" fill="black" r="0.3" stroke="none" /><circle cx="106.10235994910781" cy="45.280320512288576" fill="black" r="0.3" stroke="none" /><circle cx="220.1628084050692" cy="120.40914960334747" fill="black" r="0.3" stroke="none" /><circle cx="85.19639278284288" cy="142.0763174182104" fill="black" r="0.3" stroke="none" /><circle cx="170.15149785497866" cy="34.84151768577192" fill="black" r="0.3" stroke="none" /><circle cx="179.95245449018222" cy="171.41342564981133" fill="black" r="0.3" stroke="none" /><circle cx="80.38962669014293" cy="77.25153972574498" fill="black" r="0.3" stroke="none" /><circle cx="217.52363757893943" cy="79.43170996387876" fill="black" r="0.3" stroke="none" /><circle cx="114.84733361239658" cy="170.5324198012302" fill="black" r="0.3" stroke="none" /><circle cx="129.0317925815401" cy="33.88749125567412" fill="black" r="0.3" stroke="none" /><circle cx="210.94268658807084" cy="144.3180733462864" fill="black" r="0.3" stroke="none" /><circle cx="75.83775220897108" cy="118.19839937095074" fill="black" r="0.3" stroke="none" /><circle cx="193.2003253313105" cy="46.13676091757266" fill="black" r="0.3" stroke="none" /><circle cx="155.30651771840377" cy="178.65915636598788" fill="black" r="0.3" stroke="none" /><circle cx="93.68001376730928" cy="55.24289890430109" fill="black" r="0.3" stroke="none" /><circle cx="222.5937480966339" cy="104.65868930201407" fill="black" r="0.3" stroke="none" /><circle cx="94.05155308060141" cy="155.34249326429347" fill="black" r="0.3" stroke="none" /><circle cx="154.64774935357084" cy="31.039164567416705" fill="black" r="0.3" stroke="none" /><circle cx="193.96376558874772" cy="163.73709235646072" fill="black" r="0.3" stroke="none" /><circle cx="75.24041642295671" cy="92.38915490071304" fill="black" r="0.3" stroke="none" /><circle cx="211.0887462791282" cy="64.77999453994421" fill="black" r="0.3" stroke="none" /><circle cx="129.50180282119916" cy="176.99353098685606" fill="black" r="0.3" stroke="none" /><circle cx="113.84965682663638" cy="39.027629131824185" fill="black" r="0.3" stroke="none" /><circle cx="218.6705761772143" cy="130.26044811474583" fill="black" r="0.3" stroke="none" /><circle cx="79.63956863778296" cy="133.79654480331618" fill="black" r="0.3" stroke="none" /><circle cx="179.8490441842629" cy="37.19706917298389" fill="black" r="0.3" stroke="none" /><circle cx="171.202698667307" cy="176.2291195594994" fill="black" r="0.3" stroke="none" /><circle cx="83.59296055841403" cy="67.783387702151" fill="black" r="0.3" stroke="none" /><circle cx="221.55854926261537" cy="88.58511712981161" fill="black" r="0.3" stroke="none" /><circle cx="105.68267104274952" cy="166.50346608904738" fill="black" r="0.3" stroke="none" /><circle cx="138.51918355935263" cy="30.66707793192775" fill="black" r="0.3" stroke="none" /><circle cx="206.11674898298043" cy="153.10727841639164" fill="black" r="0.3" stroke="none" /><circle cx="73.45933787280183" cy="108.4494967041131" fill="black" r="0.3" stroke="none" /><circle cx="201.5447972440423" cy="51.72477606486815" fill="black" r="0.3" stroke="none" /><circle cx="145.37082565164113" cy="180.17451874071142" fill="black" r="0.3" stroke="none" /><circle cx="99.9891820540931" cy="47.409197416435696" fill="black" r="0.3" stroke="none" /><circle cx="223.2316358946486" cy="114.7047718422262" fill="black" r="0.3" stroke="none" /><circle cx="86.79089847705094" cy="148.35881443524912" fill="black" r="0.3" stroke="none" /><circle cx="164.726735027885" cy="31.286411901639127" fill="black" r="0.3" stroke="none" /><circle cx="186.3575918404549" cy="170.36667912661255" fill="black" r="0.3" stroke="none" /><circle cx="76.3736178559915" cy="82.3552434586624" fill="black" r="0.3" stroke="none" /><circle cx="217.03396283804665" cy="72.95166248128861" fill="black" r="0.3" stroke="none" /><circle cx="119.59082908336369" cy="174.98042466942246" fill="black" r="0.3" stroke="none" /><circle cx="122.52526091098889" cy="33.8149388617401" fill="black" r="0.3" stroke="none" /><circle cx="215.7904556703338" cy="139.97133934636815" fill="black" r="0.3" stroke="none" /><circle cx="75.20202546232227" cy="124.6826555290171" fill="black" r="0.3" stroke="none" /><circle cx="189.2840277064219" cy="40.924551628242114" fill="black" r="0.3" stroke="none" /><circle cx="161.7197705059826" cy="179.85477718735893" fill="black" r="0.3" stroke="none" /><circle cx="88.14152387028946" cy="58.69822509558446" fill="black" r="0.3" stroke="none" /><circle cx="224.3417676174593" cy="98.36476943435271" fill="black" r="0.3" stroke="none" /><circle cx="97.0187513228103" cy="161.1665472914025" fill="black" r="0.3" stroke="none" /><circle cx="148.5207290720345" cy="28.750412654850564" fill="black" r="0.3" stroke="none" /><circle cx="200.03040919259246" cy="161.28158605124753" fill="black" r="0.3" stroke="none" /><circle cx="72.42669366110528" cy="98.30283174254383" fill="black" r="0.3" stroke="none" /><circle cx="209.1647157903202" cy="58.51567728707159" fill="black" r="0.3" stroke="none" /><circle cx="135.157167738908" cy="180.31247457926452" fill="black" r="0.3" stroke="none" /><circle cx="107.43419095803577" cy="40.40433971442873" fill="black" r="0.3" stroke="none" /><circle cx="222.47113921631544" cy="124.90654573351392" fill="black" r="0.3" stroke="none" /><circle cx="80.45718550463833" cy="140.31537052828128" fill="black" r="0.3" stroke="none" /><circle cx="174.83760724404348" cy="32.94217291190007" fill="black" r="0.3" stroke="none" /><circle cx="177.77618769003476" cy="175.97819971186826" fill="black" r="0.3" stroke="none" /><circle cx="78.91450736805558" cy="72.41381864701528" fill="black" r="0.3" stroke="none" /><circle cx="221.8776901199123" cy="82.00620534435159" fill="black" r="0.3" stroke="none" /><circle cx="109.89631481749842" cy="171.5714314877659" fill="black" r="0.3" stroke="none" /><circle cx="131.98426452322104" cy="29.77878968229065" fill="black" r="0.3" stroke="none" /><circle cx="211.53716035877525" cy="149.34316648483792" fill="black" r="0.3" stroke="none" /><circle cx="72.00709781164342" cy="114.891203910673" fill="black" r="0.3" stroke="none" /><circle cx="198.2596702635298" cy="45.99173604261189" fill="black" r="0.3" stroke="none" /><circle cx="151.67066940439065" cy="182.18125974307532" fill="black" r="0.3" stroke="none" /><circle cx="93.98578987901584" cy="50.18940891684173" fill="black" r="0.3" stroke="none" /><circle cx="225.779230800765" cy="108.59450787203157" fill="black" r="0.3" stroke="none" /><circle cx="89.04399169453202" cy="154.5881344313347" fill="black" r="0.3" stroke="none" /><circle cx="158.85247000348778" cy="28.215715378556226" fill="black" r="0.3" stroke="none" /><circle cx="192.7665959109819" cy="168.65900161370615" fill="black" r="0.3" stroke="none" /><circle cx="72.80155512829504" cy="87.94874069150778" fill="black" r="0.3" stroke="none" /><circle cx="215.88594433150558" cy="66.41069440180053" fill="black" r="0.3" stroke="none" /><circle cx="124.86078173933869" cy="179.02828756647568" fill="black" r="0.3" stroke="none" /><circle cx="115.90116998351155" cy="34.39322779254037" fill="black" r="0.3" stroke="none" /><circle cx="220.28490390093157" cy="135.0653882717989" fill="black" r="0.3" stroke="none" /><circle cx="75.20477448098796" cy="131.3402717548086" fill="black" r="0.3" stroke="none" /><circle cx="184.77990425473314" cy="36.01617184247168" fill="black" r="0.3" stroke="none" /><circle cx="168.36092955769655" cy="180.42906254955193" fill="black" r="0.3" stroke="none" /><circle cx="82.8550688565267" cy="62.76561809178864" fill="black" r="0.3" stroke="none" /><circle cx="225.49024270814374" cy="91.7900595103112" fill="black" r="0.3" stroke="none" /><circle cx="100.61770528645982" cy="166.79227988159752" fill="black" r="0.3" stroke="none" /><circle cx="142.0620931157341" cy="27.034922209045902" fill="black" r="0.3" stroke="none" /><circle cx="205.95396454037748" cy="158.17933770359542" fill="black" r="0.3" stroke="none" /><circle cx="70.15564987469418" cy="104.59651091279306" fill="black" r="0.3" stroke="none" /><circle cx="206.58377515867443" cy="52.33810615524205" fill="black" r="0.3" stroke="none" /><circle cx="141.2381197126151" cy="183.1233965895729" fill="black" r="0.3" stroke="none" /><circle cx="101.04843954355688" cy="42.44323050022065" fill="black" r="0.3" stroke="none" /><circle cx="225.80215776290078" cy="119.08461590529193" fill="black" r="0.3" stroke="none" /><circle cx="81.93731121253566" cy="146.86177804851545" fill="black" r="0.3" stroke="none" /><circle cx="169.319166090596" cy="29.11480827399737" fill="black" r="0.3" stroke="none" /><circle cx="184.43439202275354" cy="175.06939039234655" fill="black" r="0.3" stroke="none" /><circle cx="74.61834769400848" cy="77.58647318317871" fill="black" r="0.3" stroke="none" /><circle cx="221.54847858060498" cy="75.2860339729128" fill="black" r="0.3" stroke="none" /><circle cx="114.68337814999278" cy="176.30523183226887" fill="black" r="0.3" stroke="none" /><circle cx="125.252553376408" cy="29.524466047047795" fill="black" r="0.3" stroke="none" /><circle cx="216.67406874479198" cy="144.97869871294435" fill="black" r="0.3" stroke="none" /><circle cx="71.1696871127998" cy="121.5838086327514" fill="black" r="0.3" stroke="none" /><circle cx="194.3517155728156" cy="40.48937933154248" fill="black" r="0.3" stroke="none" /><circle cx="158.2736838359964" cy="183.59691536106226" fill="black" r="0.3" stroke="none" /><circle cx="88.1584961642385" cy="53.61028395837569" fill="black" r="0.3" stroke="none" /><circle cx="227.76391977152176" cy="102.13102414549" fill="black" r="0.3" stroke="none" /><circle cx="91.95081103621695" cy="160.69730000222953" fill="black" r="0.3" stroke="none" /><circle cx="152.57753586314908" cy="25.675516381858927" fill="black" r="0.3" stroke="none" /><circle cx="199.1123322533204" cy="166.28941037307754" fill="black" r="0.3" stroke="none" /><circle cx="69.72359082183547" cy="93.98740008016294" fill="black" r="0.3" stroke="none" /><circle cx="214.0727649311338" cy="59.87558865440714" fill="black" r="0.3" stroke="none" /><circle cx="130.61709837881972" cy="182.62217356920115" fill="black" r="0.3" stroke="none" /><circle cx="109.22544554301969" cy="35.634955689441895" fill="black" r="0.3" stroke="none" /><circle cx="224.36892286860117" cy="129.63547326028558" fill="black" r="0.3" stroke="none" /><circle cx="75.86427984302337" cy="138.10667843921192" fill="black" r="0.3" stroke="none" /><circle cx="179.71810287537556" cy="31.47156976473339" fill="black" r="0.3" stroke="none" /><circle cx="175.1672698680265" cy="180.3581894540059" fill="black" r="0.3" stroke="none" /><circle cx="77.8829817425719" cy="67.42026167693464" fill="black" r="0.3" stroke="none" /><circle cx="226.009990322316" cy="84.99496562776062" fill="black" r="0.3" stroke="none" /><circle cx="104.82911646244924" cy="172.1554460267347" fill="black" r="0.3" stroke="none" /><circle cx="135.32947211053815" cy="25.9270134931473" fill="black" r="0.3" stroke="none" /><circle cx="211.66876171269342" cy="154.44398389779042" fill="black" r="0.3" stroke="none" /><circle cx="68.4664809567234" cy="111.21577264300107" fill="black" r="0.3" stroke="none" /><circle cx="203.35379770050002" cy="46.31387832006088" fill="black" r="0.3" stroke="none" /><circle cx="147.6938607599936" cy="185.38252384396574" fill="black" r="0.3" stroke="none" /><circle cx="94.7594225480779" cy="45.14224916408935" fill="black" r="0.3" stroke="none" /><circle cx="228.6156142036121" cy="112.84145144587337" fill="black" r="0.3" stroke="none" /><circle cx="84.08372811492625" cy="153.36883207633048" fill="black" r="0.3" stroke="none" /><circle cx="163.33615542348429" cy="25.76687250745293" fill="black" r="0.3" stroke="none" /><circle cx="191.1109676879488" cy="173.49310500113558" fill="black" r="0.3" stroke="none" /><circle cx="70.75986441959951" cy="83.26359459475995" fill="black" r="0.3" stroke="none" /><circle cx="220.55559810140488" cy="68.48985370819759" fill="black" r="0.3" stroke="none" /><circle cx="120.01106669238098" cy="180.64641881142845" fill="black" r="0.3" stroke="none" /><circle cx="118.38771399844025" cy="29.925035919021127" fill="black" r="0.3" stroke="none" /><circle cx="221.46640363369414" cy="140.04146031153417" fill="black" r="0.3" stroke="none" /><circle cx="70.97348703919616" cy="128.465715163581" fill="black" r="0.3" stroke="none" /><circle cx="189.84310193975418" cy="35.280935734914706" fill="black" r="0.3" stroke="none" /><circle cx="165.12080697415982" cy="184.3898531018147" fill="black" r="0.3" stroke="none" /><circle cx="82.5722109422692" cy="57.655236509627045" fill="black" r="0.3" stroke="none" /><circle cx="229.14905985057024" cy="95.3704026450147" fill="black" r="0.3" stroke="none" /><circle cx="95.5004772485998" cy="166.6202124965811" fill="black" r="0.3" stroke="none" /><circle cx="145.95461101161237" cy="23.70718977118706" fill="black" r="0.3" stroke="none" /><circle cx="205.32801403560626" cy="163.26299701155904" fill="black" r="0.3" stroke="none" /><circle cx="67.18551746224138" cy="100.42234452841322" fill="black" r="0.3" stroke="none" /><circle cx="211.5936914956766" cy="53.413314765839196" fill="black" r="0.3" stroke="none" /><circle cx="136.81507209526083" cy="185.71222001568935" fill="black" r="0.3" stroke="none" /><circle cx="102.56473309546226" cy="37.54667351116862" fill="black" r="0.3" stroke="none" /><circle cx="227.988957962545" cy="123.72179377166515" fill="black" r="0.3" stroke="none" /><circle cx="77.19285942932477" cy="144.9160582176392" fill="black" r="0.3" stroke="none" /><circle cx="174.13401248345082" cy="27.347585974431624" fill="black" r="0.3" stroke="none" /><circle cx="182.0742999351716" cy="179.62416755892917" fill="black" r="0.3" stroke="none" /><circle cx="73.28495837648818" cy="72.63184414314921" fill="black" r="0.3" stroke="none" /><circle cx="225.8774849576286" cy="78.04216585791877" fill="black" r="0.3" stroke="none" /><circle cx="109.62797857600273" cy="177.19394677126536" fill="black" r="0.3" stroke="none" /><circle cx="128.38325695954578" cy="25.455568080195988" fill="black" r="0.3" stroke="none" /><circle cx="217.1107688498364" cy="150.0950373969722" fill="black" r="0.3" stroke="none" /><circle cx="67.39320503568909" cy="118.10296953431661" fill="black" r="0.3" stroke="none" /><circle cx="199.4886561436441" cy="40.508473853805995" fill="black" r="0.3" stroke="none" /><circle cx="154.46992248234" cy="187.0509599307336" fill="black" r="0.3" stroke="none" /><circle cx="88.63357273857082" cy="48.49326688834321" fill="black" r="0.3" stroke="none" /><circle cx="230.86802891283" cy="106.22793037880929" fill="black" r="0.3" stroke="none" /><circle cx="86.89411175819987" cy="159.7696497518364" fill="black" r="0.3" stroke="none" /><circle cx="156.93547873486875" cy="22.946098822093916" fill="black" r="0.3" stroke="none" /><circle cx="197.73908762382183" cy="171.24584703944538" fill="black" r="0.3" stroke="none" /><circle cx="67.39068264522507" cy="89.40260796663738" fill="black" r="0.3" stroke="none" /><circle cx="218.88975862236322" cy="61.683930452019986" fill="black" r="0.3" stroke="none" /><circle cx="125.84145537756368" cy="184.53986645445832" fill="black" r="0.3" stroke="none" /><circle cx="111.4549501116627" cy="30.995511766038135" fill="black" r="0.3" stroke="none" /><circle cx="225.85595557337106" cy="134.56444041971102" fill="black" r="0.3" stroke="none" /><circle cx="71.43911809848221" cy="135.47327485782137" fill="black" r="0.3" stroke="none" /><circle cx="184.76163383699185" cy="30.42725758380662" fill="black" r="0.3" stroke="none" /><circle cx="172.150426308778" cy="184.53400112790166" fill="black" r="0.3" stroke="none" /><circle cx="77.2899689372341" cy="62.30185629280925" fill="black" r="0.3" stroke="none" /><circle cx="229.9033257310571" cy="88.37175415374735" fill="black" r="0.3" stroke="none" /><circle cx="99.67614299449576" cy="172.29213168793268" fill="black" r="0.3" stroke="none" /><circle cx="139.0398578896294" cy="22.34707681363234" fill="black" r="0.3" stroke="none" /><circle cx="211.34768522300072" cy="159.5909192275658" fill="black" r="0.3" stroke="none" /><circle cx="65.22841691875665" cy="107.20078421104543" fill="black" r="0.3" stroke="none" /><circle cx="208.45410838192936" cy="47.09054577939913" fill="black" r="0.3" stroke="none" /><circle cx="143.40568441298075" cy="188.25291555675304" fill="black" r="0.3" stroke="none" /><circle cx="95.9859185517996" cy="40.128810326526505" fill="black" r="0.3" stroke="none" /><circle cx="231.09541288612598" cy="117.3692267410041" fill="black" r="0.3" stroke="none" /><circle cx="79.19675190469238" cy="151.70181798859912" fill="black" r="0.3" stroke="none" /><circle cx="168.0680296133039" cy="23.697526378019347" fill="black" r="0.3" stroke="none" /><circle cx="189.01622286515132" cy="178.2149963104649" fill="black" r="0.3" stroke="none" /><circle cx="69.11761096856219" cy="78.36475433450137" fill="black" r="0.3" stroke="none" /><circle cx="225.07505538854028" cy="70.99616356582703" fill="black" r="0.3" stroke="none" /><circle cx="114.98373464922697" cy="181.84829182835864" fill="black" r="0.3" stroke="none" /><circle cx="121.28617000511954" cy="25.64379383432103" fill="black" r="0.3" stroke="none" /><circle cx="222.2180675027065" cy="145.15777040208292" fill="black" r="0.3" stroke="none" /><circle cx="66.9643907827248" cy="125.19763425670908" fill="black" r="0.3" stroke="none" /><circle cx="195.00814724834643" cy="34.985771163811805" fill="black" r="0.3" stroke="none" /><circle cx="161.5085494734575" cy="188.09499166975473" fill="black" r="0.3" stroke="none" /><circle cx="82.73624552134761" cy="52.482111648776964" fill="black" r="0.3" stroke="none" /><circle cx="232.5207993290983" cy="99.29865979796034" fill="black" r="0.3" stroke="none" /><circle cx="90.3600216597774" cy="165.99789273899918" fill="black" r="0.3" stroke="none" /><circle cx="150.168182230496" cy="20.695687132591743" fill="black" r="0.3" stroke="none" /><circle cx="204.25193201541063" cy="168.33026193336826" fill="black" r="0.3" stroke="none" /><circle cx="64.55827291717553" cy="95.9564136343697" fill="black" r="0.3" stroke="none" /><circle cx="216.54779076363064" cy="54.93506044956065" fill="black" r="0.3" stroke="none" /><circle cx="132.13174690639164" cy="187.93419253036458" fill="black" r="0.3" stroke="none" /><circle cx="104.5205295551514" cy="32.74485361311149" fill="black" r="0.3" stroke="none" /><circle cx="229.78781910964057" cy="128.5858106580705" fill="black" r="0.3" stroke="none" /><circle cx="72.58126307589494" cy="142.54124909813905" fill="black" r="0.3" stroke="none" /><circle cx="179.14056884029978" cy="25.986358512324912" fill="black" r="0.3" stroke="none" /><circle cx="179.29882546158018" cy="184.00906498742484" fill="black" r="0.3" stroke="none" /></g></svg>