<?xml version="1.0" encoding="utf-8" ?>
<svg baseProfile="full" height="210mm" version="1.1" viewBox="0 0 297 210" width="297mm" xmlns="http://www.w3.org/2000/svg" xmlns:ev="http://www.w3.org/2001/xml-events" xmlns:xlink="http://www.w3.org/1999/xlink"><defs /><rect fill="white" height="210mm" width="297mm" x="0" y="0" /><g fill="none" id="grid" stroke="#DDDDDD" stroke-width="0.1"><polyline fill="none" points="0.0,0.0 0.0,210.0" stroke="#DDDDDD" stroke-width="0.1" /><polyline fill="none" points="29.7,0.0 29.7,210.0" stroke="#DDDDDD" stroke-width="0.1" /><polyline fill="none" points="59.4,0.0 59.4,210.0" stroke="#DDDDDD" stroke-width="0.1" /><polyline fill="none" points="89.1,0.0 89.1,210.0" stroke="#DDDDDD" stroke-width="0.1" /><polyline fill="none" points="118.8,0.0 118.8,210.0" stroke="#DDDDDD" stroke-width="0.1" /><polyline fill="none" points="148.5,0.0 148.5,210.0" stroke="#DDDDDD" stroke-width="0.1" /><polyline fill="none" points="178.2,0.0 178.2,210.0" stroke="#DDDDDD" stroke-width="0.1" /><polyline fill="none" points="207.89999999999998,0.0 207.89999999999998,210.0" stroke="#DDDDDD" stroke-width="0.1" /><polyline fill="none" points="237.59999999999997,0.0 237.59999999999997,210.0" stroke="#DDDDDD" stroke-width="0.1" /><polyline fill="none" points="267.29999999999995,0.0 267.29999999999995,210.0" stroke="#DDDDDD" stroke-width="0.1" /><polyline fill="none" points="296.99999999999994,0.0 296.99999999999994,210.0" stroke="#DDDDDD" stroke-width="0.1" /><polyline fill="none" points="0.0,0.0 297.0,0.0" stroke="#DDDDDD" stroke-width="0.1" /><polyline fill="none" points="0.0,29.7 297.0,29.7" stroke="#DDDDDD" stroke-width="0.1" /><polyline fill="none" points="0.0,59.4 297.0,59.4" stroke="#DDDDDD" stroke-width="0.1" /><polyline fill="none" points="0.0,89.1 297.0,89.1" stroke="#DDDDDD" stroke-width="0.1" /><polyline fill="none" points="0.0,118.8 297.0,118.8" stroke="#DDDDDD" stroke-width="0.1" /><polyline fill="none" points="0.0,148.5 297.0,148.5" stroke="#DDDDDD" stroke-width="0.1" /><polyline fill="none" points="0.0,178.2 297.0,178.2" stroke="#DDDDDD" stroke-width="0.1" /><polyline fill="none" points="0.0,207.89999999999998 297.0,207.89999999999998" stroke="#DDDDDD" stroke-width="0.1" /></g><g fill="none" id="zones" stroke="none" stroke-width="0.5" /><g fill="none" id="dependencies" stroke="#AAAAAA" stroke-width="0.2" /><g fill="none" id="files" stroke="black" stroke-width="0.4"><polyline fill="none" points="289.9042127762122,107.87976611844503 289.8661518312536,108.65451445132572 289.7523355440841,109.42180153424026 289.5638600277673,110.17423797313839 289.3025404045567,110.9045773937899 288.9708933252755,111.60578622832982 288.57211273259395,112.27111145236177 288.1100391016153,112.89414562027453 287.589122454001,113.46888857244602 287.0143795018295,113.98980522006036 286.3913453339167,114.45187885103901 285.7260201098848,114.85065944372052 285.02481127534486,115.1823065230017 284.29447185469337,115.44362614621235 283.5420354157952,115.63210166252911 282.7747483328807,115.74591794969865 282.0,115.78397889465722 281.2252516671193,115.74591794969865 280.4579645842048,115.63210166252911 279.70552814530663,115.44362614621235 278.97518872465514,115.1823065230017 278.2739798901152,114.85065944372052 277.6086546660833,114.45187885103901 276.9856204981705,113.98980522006036 276.410877545999,113.46888857244602 275.8899608983847,112.89414562027453 275.427887267406,112.27111145236177 275.0291066747245,111.60578622832982 274.6974595954433,110.9045773937899 274.4361399722327,110.17423797313839 274.2476644559159,109.42180153424027 274.1338481687464,108.65451445132574 274.0957872237878,107.87976611844503 274.1338481687464,107.10501778556434 274.2476644559159,106.3377307026498 274.4361399722327,105.58529426375168 274.6974595954433,104.85495484310016 275.0291066747245,104.15374600856025 275.427887267406,103.4884207845283 275.8899608983847,102.86538661661554 276.410877545999,102.29064366444405 276.9856204981705,101.7697270168297 277.6086546660833,101.30765338585105 278.2739798901152,100.90887279316955 278.97518872465514,100.57722571388837 279.70552814530663,100.31590609067771 280.4579645842048,100.12743057436096 281.2252516671193,100.01361428719142 282.0,99.97555334223284 282.7747483328807,100.01361428719142 283.5420354157952,100.12743057436096 284.29447185469337,100.31590609067771 285.02481127534486,100.57722571388837 285.7260201098848,100.90887279316955 286.3913453339167,101.30765338585105 287.0143795018295,101.7697270168297 287.589122454001,102.29064366444405 288.1100391016153,102.86538661661552 288.57211273259395,103.4884207845283 288.9708933252755,104.15374600856025 289.3025404045567,104.85495484310015 289.5638600277673,105.58529426375168 289.7523355440841,106.3377307026498 289.8661518312536,107.10501778556434 289.9042127762122,107.87976611844503" stroke="black" stroke-width="0.4" /><polyline fill="none" points="64.52012940310146,28.642750284820146 64.51049885644586,28.838784565479266 64.48169996390793,29.0329309288524 64.43401007456589,29.22331963932907 64.36788846812405,29.408117149550325 64.28397193179818,29.58554375847214 64.18306862770656,29.753890750859348 64.06615030982695,29.911536853147435 63.93434296547456,30.05696384719324 63.788915971428764,30.18877119154562 63.631269869140674,30.305689509425235 63.46292287675347,30.406592813516856 63.285496267831654,30.490509349842718 63.100698757610395,30.556630956284565 62.91031004713373,30.604320845626606 62.71616368376059,30.633119738164538 62.52012940310147,30.642750284820146 62.32409512244235,30.633119738164538 62.129948759069215,30.604320845626606 61.93956004859255,30.556630956284565 61.75476253837129,30.490509349842718 61.577335929449475,30.406592813516856 61.40898893706227,30.305689509425235 61.25134283477418,30.18877119154562 61.10591584072838,30.05696384719324 60.974108496376,29.911536853147435 60.85719017849638,29.753890750859348 60.756286874404765,29.58554375847214 60.6723703380789,29.408117149550325 60.60624873163705,29.22331963932907 60.558558842295014,29.0329309288524 60.52975994975708,28.838784565479266 60.52012940310147,28.642750284820146 60.52975994975708,28.446716004161026 60.558558842295014,28.25256964078789 60.60624873163705,28.06218093031122 60.6723703380789,27.877383420089966 60.75628687440476,27.69995681116815 60.85719017849638,27.531609818780943 60.974108496376,27.373963716492856 61.10591584072838,27.22853672244705 61.25134283477418,27.096729378094672 61.40898893706227,26.979811060215056 61.577335929449475,26.878907756123436 61.75476253837129,26.794991219797573 61.93956004859255,26.728869613355727 62.129948759069215,26.681179724013685 62.32409512244235,26.652380831475753 62.52012940310147,26.642750284820146 62.71616368376059,26.652380831475753 62.91031004713373,26.681179724013685 63.100698757610395,26.728869613355727 63.285496267831654,26.794991219797573 63.46292287675347,26.878907756123436 63.631269869140674,26.979811060215056 63.788915971428764,27.096729378094672 63.93434296547456,27.22853672244705 64.06615030982694,27.373963716492852 64.18306862770656,27.531609818780943 64.28397193179818,27.69995681116815 64.36788846812405,27.877383420089966 64.43401007456589,28.06218093031122 64.48169996390793,28.25256964078789 64.51049885644586,28.446716004161026 64.52012940310146,28.642750284820146" stroke="black" stroke-width="0.4" /><polyline fill="none" points="27.772952748187844,141.2435702645916 27.734430561565418,142.02770738722808 27.619234991413688,142.80429284072062 27.428475434045517,143.5658476826273 27.163989008278136,144.30503772351233 26.828322862974684,145.01474415919958 26.424709646608207,145.6881321287484 25.95703637508974,146.31871653790077 25.429806997680224,146.90042451408397 24.848099021497006,147.4276538914935 24.21751461234466,147.89532716301196 23.544126642795828,148.29894037937845 22.834420207108565,148.63460652468189 22.095230166223544,148.89909295044927 21.33367532431687,149.08985250781745 20.55708987082433,149.20504807796917 19.772952748187844,149.2435702645916 18.98881562555136,149.20504807796917 18.212230172058817,149.08985250781745 17.450675330152148,148.89909295044927 16.711485289267127,148.63460652468189 16.001778853579864,148.29894037937845 15.328390884031029,147.89532716301196 14.697806474878682,147.4276538914935 14.116098498695465,146.90042451408397 13.58886912128595,146.31871653790077 13.121195849767481,145.6881321287484 12.717582633401005,145.01474415919958 12.38191648809755,144.30503772351233 12.117430062330174,143.5658476826273 11.926670504962,142.80429284072062 11.81147493481027,142.02770738722808 11.772952748187844,141.2435702645916 11.811474934810269,140.45943314195512 11.926670504962,139.68284768846257 12.117430062330172,138.9212928465559 12.381916488097549,138.18210280567087 12.717582633401005,137.4723963699836 13.121195849767481,136.7990084004348 13.588869121285947,136.16842399128242 14.116098498695463,135.58671601509923 14.697806474878677,135.0594866376897 15.328390884031027,134.59181336617124 16.00177885357986,134.18820014980474 16.71148528926712,133.8525340045013 17.450675330152144,133.58804757873392 18.212230172058813,133.39728802136577 18.98881562555136,133.28209245121403 19.772952748187844,133.2435702645916 20.557089870824324,133.28209245121403 21.33367532431687,133.39728802136574 22.09523016622354,133.58804757873392 22.834420207108565,133.8525340045013 23.544126642795824,134.18820014980474 24.217514612344658,134.59181336617124 24.84809902149701,135.0594866376897 25.429806997680224,135.58671601509923 25.957036375089736,136.16842399128242 26.424709646608207,136.7990084004348 26.828322862974684,137.4723963699836 27.163989008278136,138.18210280567087 27.428475434045517,138.9212928465559 27.619234991413688,139.68284768846257 27.734430561565418,140.45943314195512 27.772952748187844,141.2435702645916" stroke="black" stroke-width="0.4" /><polyline fill="none" points="269.1913349446783,147.8607881070798 269.1577437890672,148.54455178760801 269.05729382342514,149.22173045010948 268.89095243583284,149.88580249388082 268.66032158478424,150.5303725421218 268.3676223714506,151.14923303291 268.01567364926194,151.73642400141563 267.6078648768078,152.2862904776207 267.14812347549775,152.79353694677178 266.64087700634667,153.25327834808184 266.09101053014155,153.66108712053602 265.50381956163596,154.01303584272463 264.88495907084774,154.30573505605827 264.24038902260673,154.53636590710687 263.57631697883545,154.70270729469917 262.89913831633396,154.80315726034124 262.21537463580574,154.83674841595237 261.53161095527753,154.80315726034124 260.8544322927761,154.70270729469917 260.19036024900475,154.53636590710687 259.54579020076375,154.30573505605827 258.9269297099755,154.01303584272463 258.33973874146994,153.66108712053602 257.7898722652648,153.25327834808184 257.28262579611373,152.79353694677178 256.8228843948037,152.2862904776207 256.41507562234955,151.73642400141563 256.0631269001609,151.14923303291 255.77042768682728,150.5303725421218 255.53979683577867,149.88580249388082 255.37345544818638,149.22173045010948 255.2730054825443,148.54455178760801 255.23941432693317,147.8607881070798 255.2730054825443,147.17702442655158 255.37345544818638,146.49984576405012 255.53979683577867,145.83577372027878 255.77042768682728,145.19120367203783 256.0631269001609,144.5723431812496 256.41507562234955,143.98515221274397 256.8228843948037,143.4352857365389 257.28262579611373,142.92803926738782 257.7898722652648,142.46829786607776 258.33973874146994,142.06048909362357 258.9269297099755,141.70854037143496 259.54579020076375,141.41584115810133 260.19036024900475,141.18521030705273 260.85443229277604,141.01886891946043 261.53161095527753,140.91841895381836 262.21537463580574,140.88482779820723 262.89913831633396,140.91841895381836 263.57631697883545,141.01886891946043 264.24038902260673,141.18521030705273 264.88495907084774,141.41584115810133 265.50381956163596,141.70854037143496 266.09101053014155,142.06048909362357 266.64087700634667,142.46829786607776 267.14812347549775,142.92803926738782 267.60786487680775,143.4352857365389 268.01567364926194,143.98515221274397 268.3676223714506,144.57234318124958 268.66032158478424,145.1912036720378 268.89095243583284,145.83577372027878 269.05729382342514,146.49984576405012 269.1577437890672,147.17702442655158 269.1913349446783,147.8607881070798" stroke="black" stroke-width="0.4" /><polyline fill="none" points="62.72225358424903,177.25174217835905 62.68979252824944,177.91250215283162 62.59272197796496,178.56689864754188 62.431976775859,179.20862946651624 62.209104986100094,179.83151439116224 61.92625298585774,180.429554699152 61.5861447945169,180.9969909353975 61.19205583988224,181.52835837875148 60.74778141401782,182.01853967025949 60.257600122509835,182.46281409612388 59.72623267915585,182.85690305075855 59.15879644291035,183.1970112420994 58.56075613492058,183.47986324234174 57.93787121027458,183.70273503210063 57.29614039130022,183.8634802342066 56.64174389658997,183.9605507844911 55.9809839221174,183.99301184049068 55.320223947644834,183.9605507844911 54.665827452934586,183.8634802342066 54.02409663396023,183.70273503210063 53.401211709314225,183.47986324234174 52.803171401324455,183.1970112420994 52.235735165078964,182.85690305075855 51.70436772172497,182.46281409612388 51.214186430216984,182.01853967025949 50.76991200435257,181.52835837875148 50.37582304971791,180.9969909353975 50.03571485837707,180.429554699152 49.75286285813471,179.83151439116224 49.52999106837581,179.20862946651624 49.36924586626984,178.56689864754188 49.272175315985365,177.91250215283162 49.239714259985774,177.25174217835905 49.272175315985365,176.59098220388648 49.36924586626984,175.93658570917623 49.52999106837581,175.29485489020186 49.75286285813471,174.67196996555586 50.03571485837707,174.0739296575661 50.37582304971791,173.5064934213206 50.76991200435257,172.97512597796663 51.214186430216984,172.48494468645862 51.704367721724964,172.04067026059423 52.23573516507896,171.64658130595956 52.803171401324455,171.3064731146187 53.40121170931422,171.02362111437637 54.02409663396023,170.80074932461747 54.665827452934586,170.6400041225115 55.32022394764484,170.542933572227 55.9809839221174,170.51047251622742 56.641743896589965,170.542933572227 57.29614039130022,170.6400041225115 57.93787121027458,170.80074932461747 58.56075613492059,171.02362111437637 59.15879644291035,171.3064731146187 59.72623267915584,171.64658130595956 60.257600122509835,172.04067026059423 60.74778141401782,172.48494468645862 61.19205583988224,172.97512597796663 61.5861447945169,173.5064934213206 61.92625298585774,174.0739296575661 62.209104986100094,174.67196996555586 62.431976775859,175.29485489020186 62.59272197796496,175.93658570917623 62.68979252824944,176.59098220388648 62.72225358424903,177.25174217835905" stroke="black" stroke-width="0.4" /><polyline fill="none" points="281.3112287113571,64.53506160909002 281.2838923830733,65.09150535445764 281.20214666200667,65.64259024237427 281.066778804138,66.18300902411565 280.8790924759381,66.70755717139062 280.64089519934726,67.21118299879377 280.354480944351,67.68903631429731 280.0226080367949,68.13651512925175 279.64847259419884,68.54930997805228 279.23567774539833,68.92344542064832 278.7881989304439,69.25531832820444 278.31034561494033,69.54173258320068 277.8067197875372,69.7799298597915 277.2821716402622,69.96761618799142 276.74175285852084,70.10298404586011 276.19066797060424,70.18472976692668 275.6342242252366,70.21206609521052 275.077780479869,70.18472976692668 274.5266955919524,70.10298404586011 273.986276810211,69.96761618799142 273.461728662936,69.7799298597915 272.9581028355329,69.54173258320068 272.4802495200293,69.25531832820444 272.0327707050749,68.92344542064832 271.6199758562744,68.54930997805228 271.2458404136783,68.13651512925175 270.91396750612216,67.68903631429731 270.62755325112596,67.21118299879377 270.38935597453514,66.70755717139062 270.20166964633523,66.18300902411565 270.06630178846655,65.64259024237427 269.9845560673999,65.09150535445764 269.9572197391161,64.53506160909002 269.9845560673999,63.978617863722405 270.06630178846655,63.42753297580577 270.20166964633523,62.8871141940644 270.38935597453514,62.36256604678942 270.62755325112596,61.85894021938627 270.91396750612216,61.38108690388273 271.2458404136783,60.933608088928295 271.6199758562744,60.52081324012777 272.0327707050749,60.14667779753173 272.4802495200293,59.814804889975605 272.9581028355329,59.52839063497935 273.461728662936,59.29019335838854 273.986276810211,59.10250703018862 274.5266955919524,58.96713917231994 275.077780479869,58.885393451253364 275.6342242252366,58.85805712296953 276.19066797060424,58.885393451253364 276.74175285852084,58.96713917231994 277.2821716402622,59.10250703018862 277.8067197875372,59.29019335838854 278.31034561494033,59.52839063497935 278.7881989304439,59.814804889975605 279.23567774539833,60.14667779753173 279.64847259419884,60.520813240127765 280.0226080367949,60.93360808892829 280.354480944351,61.38108690388273 280.64089519934726,61.85894021938627 280.8790924759381,62.36256604678942 281.066778804138,62.8871141940644 281.20214666200667,63.42753297580577 281.2838923830733,63.978617863722405 281.3112287113571,64.53506160909002" stroke="black" stroke-width="0.4" /><polyline fill="none" points="125.63676476581122,15.0 125.60997002736019,15.545419431060013 125.52984385998587,16.085586174842327 125.39715792248148,16.615298130319143 125.21319005295874,17.129453881789207 124.97971196256817,17.623101828299735 124.69897217295237,18.09148787027042 124.37367436175332,18.53010119407122 124.00695132471871,18.934717713623513 123.60233480516642,19.30144075065811 123.16372148136563,19.62673856185717 122.69533543939494,19.90747835147297 122.2016874928844,20.140956441863533 121.68753174141435,20.32492431138629 121.15781978593753,20.45761024889067 120.61765304215521,20.53773641626499 120.0722336110952,20.56453115471603 119.52681418003519,20.537736416264995 118.98664743625287,20.45761024889067 118.45693548077605,20.32492431138629 117.942779729306,20.140956441863533 117.44913178279546,19.90747835147297 116.98074574082479,19.62673856185717 116.54213241702398,19.30144075065811 116.13751589747169,18.934717713623513 115.77079286043708,18.53010119407122 115.44549504923803,18.09148787027042 115.16475525962223,17.62310182829974 114.93127716923166,17.129453881789207 114.74730929970892,16.615298130319143 114.61462336220453,16.08558617484233 114.53449719483021,15.545419431060013 114.50770245637918,15.0 114.53449719483021,14.454580568939987 114.61462336220453,13.914413825157672 114.7473092997089,13.384701869680859 114.93127716923166,12.870546118210795 115.16475525962223,12.376898171700264 115.44549504923803,11.908512129729582 115.77079286043708,11.469898805928779 116.13751589747169,11.065282286376487 116.54213241702398,10.69855924934189 116.98074574082479,10.37326143814283 117.44913178279546,10.092521648527029 117.942779729306,9.859043558136467 118.45693548077605,9.67507568861371 118.98664743625287,9.54238975110933 119.52681418003519,9.462263583735005 120.0722336110952,9.435468845283973 120.61765304215521,9.462263583735005 121.15781978593753,9.54238975110933 121.68753174141435,9.67507568861371 122.2016874928844,9.859043558136467 122.69533543939494,10.092521648527029 123.16372148136561,10.37326143814283 123.60233480516642,10.69855924934189 124.00695132471871,11.065282286376487 124.3736743617533,11.469898805928775 124.69897217295237,11.90851212972958 124.97971196256817,12.376898171700262 125.21319005295874,12.870546118210791 125.39715792248148,13.384701869680857 125.52984385998587,13.91441382515767 125.60997002736019,14.454580568939988 125.63676476581122,14.999999999999998" stroke="black" stroke-width="0.4" /><polyline fill="none" points="115.46614523498337,183.78324250506375 115.43935049653234,184.32866193612378 115.35922432915802,184.86882867990607 115.22653839165363,185.3985406353829 115.04257052213089,185.91269638685296 114.80909243174032,186.40634433336348 114.52835264212452,186.87473037533417 114.20305483092547,187.31334369913498 113.83633179389086,187.71796021868727 113.43171527433857,188.08468325572187 112.99310195053778,188.40998106692092 112.52471590856709,188.69072085653673 112.03106796205655,188.92419894692728 111.5169122105865,189.10816681645005 110.98720025510968,189.2408527539544 110.44703351132736,189.32097892132876 109.90161408026735,189.3477736597798 109.35619464920734,189.32097892132876 108.81602790542502,189.2408527539544 108.2863159499482,189.10816681645005 107.77216019847815,188.92419894692728 107.27851225196761,188.69072085653673 106.81012620999694,188.40998106692092 106.37151288619613,188.08468325572187 105.96689636664384,187.71796021868727 105.60017332960923,187.31334369913498 105.27487551841018,186.87473037533417 104.99413572879438,186.40634433336348 104.76065763840381,185.91269638685296 104.57668976888107,185.3985406353829 104.44400383137668,184.86882867990607 104.36387766400236,184.32866193612378 104.33708292555133,183.78324250506375 104.36387766400236,183.23782307400373 104.44400383137668,182.69765633022143 104.57668976888105,182.16794437474462 104.76065763840381,181.65378862327455 104.99413572879438,181.16014067676403 105.27487551841018,180.69175463479334 105.60017332960923,180.25314131099253 105.96689636664384,179.84852479144024 106.37151288619613,179.48180175440564 106.81012620999694,179.1565039432066 107.27851225196761,178.87576415359078 107.77216019847815,178.64228606320023 108.2863159499482,178.45831819367746 108.81602790542502,178.3256322561731 109.35619464920734,178.24550608879875 109.90161408026735,178.21871135034772 110.44703351132736,178.24550608879875 110.98720025510968,178.3256322561731 111.5169122105865,178.45831819367746 112.03106796205655,178.64228606320023 112.52471590856709,178.87576415359078 112.99310195053776,179.1565039432066 113.43171527433857,179.48180175440564 113.83633179389086,179.84852479144024 114.20305483092545,180.25314131099253 114.52835264212452,180.69175463479334 114.80909243174032,181.16014067676403 115.04257052213089,181.65378862327455 115.22653839165363,182.16794437474462 115.35922432915802,182.69765633022143 115.43935049653234,183.23782307400373 115.46614523498337,183.78324250506375" stroke="black" stroke-width="0.4" /><polyline fill="none" points="185.94327081128608,17.265404311385844 185.91097579755808,17.922784417774494 185.81440177501057,18.573833594378105 185.65447880427337,19.212281881726295 185.43274703097748,19.83198067380057 185.1513418533107,20.426961932471432 184.8129733569656,20.991495662968042 184.4209002155331,21.520145096860187 183.97889830769412,22.007819051110314 183.491224353444,22.44982095894929 182.96257491955186,22.8418941003818 182.39804118905525,23.180262596726877 181.8030599303844,23.461667774393675 181.18336113831012,23.683399547689554 180.5449128509619,23.843322518426746 179.8938636743583,23.939896540974267 179.23648356796966,23.97219155470226 178.579103461581,23.939896540974267 177.9280542849774,23.843322518426746 177.2896059976292,23.683399547689554 176.66990720555492,23.461667774393675 176.07492594688406,23.180262596726877 175.51039221638746,22.8418941003818 174.9817427824953,22.44982095894929 174.4940688282452,22.007819051110314 174.05206692040622,21.520145096860187 173.6599937789737,20.991495662968042 173.32162528262862,20.426961932471432 173.04022010496183,19.83198067380057 172.81848833166595,19.212281881726295 172.65856536092875,18.573833594378108 172.56199133838123,17.922784417774498 172.52969632465323,17.265404311385844 172.56199133838123,16.608024204997193 172.65856536092875,15.956975028393583 172.81848833166595,15.318526741045394 173.04022010496183,14.698827948971118 173.32162528262862,14.103846690300257 173.6599937789737,13.539312959803649 174.05206692040622,13.0106635259115 174.4940688282452,12.522989571661373 174.9817427824953,12.080987663822402 175.51039221638746,11.688914522389886 176.07492594688406,11.35054602604481 176.66990720555492,11.069140848378012 177.2896059976292,10.847409075082137 177.9280542849774,10.687486104344943 178.579103461581,10.590912081797418 179.23648356796966,10.558617068069427 179.8938636743583,10.590912081797418 180.5449128509619,10.687486104344941 181.18336113831012,10.847409075082135 181.8030599303844,11.069140848378012 182.39804118905525,11.35054602604481 182.96257491955186,11.688914522389885 183.491224353444,12.0809876638224 183.97889830769412,12.522989571661373 184.4209002155331,13.010663525911497 184.8129733569656,13.539312959803647 185.1513418533107,14.103846690300255 185.43274703097748,14.698827948971115 185.65447880427337,15.31852674104539 185.81440177501057,15.956975028393579 185.91097579755808,16.608024204997193 185.94327081128608,17.265404311385844" stroke="black" stroke-width="0.4" /><polyline fill="none" points="240.49296896864993,31.382346181000987 240.46469738917412,31.95782740172805 240.38015492151186,32.52776642370948 240.24015575584235,33.086674422603224 240.04604816066234,33.629168808849755 239.79970149822338,34.15002506495191 239.50348822155158,34.644227060434446 239.16026102642792,35.10701535992256 238.7733253783685,35.53393305910638 238.34640767918467,35.92086870716581 237.88361937969654,36.264095902289476 237.38941738421403,36.56030917896128 236.86856112811185,36.806655841400236 236.32606674186533,37.00076343658026 235.7671587429716,37.14076260224975 235.19721972099015,37.22530506991201 234.6217385002631,37.25357664938782 234.04625727953604,37.22530506991201 233.4763182575546,37.14076260224975 232.91741025866085,37.00076343658026 232.37491587241433,36.806655841400236 231.85405961631216,36.56030917896128 231.35985762082964,36.264095902289476 230.89706932134152,35.92086870716581 230.4701516221577,35.53393305910638 230.08321597409827,35.10701535992256 229.7399887789746,34.644227060434446 229.4437755023028,34.15002506495191 229.19742883986385,33.629168808849755 229.00332124468383,33.086674422603224 228.86332207901432,32.52776642370948 228.77877961135206,31.957827401728053 228.75050803187625,31.382346181000987 228.77877961135206,30.806864960273924 228.86332207901432,30.236925938292497 229.00332124468383,29.67801793939875 229.19742883986385,29.135523553152222 229.4437755023028,28.61466729705006 229.7399887789746,28.120465301567528 230.08321597409827,27.65767700207941 230.4701516221577,27.23075930289559 230.89706932134152,26.84382365483617 231.35985762082964,26.500596459712497 231.85405961631216,26.20438318304069 232.37491587241433,25.95803652060174 232.91741025866085,25.76392892542172 233.4763182575546,25.62392975975222 234.04625727953604,25.539387292089963 234.6217385002631,25.511115712614156 235.19721972099015,25.539387292089963 235.7671587429716,25.62392975975222 236.32606674186533,25.76392892542172 236.86856112811185,25.958036520601738 237.38941738421403,26.20438318304069 237.88361937969654,26.500596459712497 238.34640767918467,26.843823654836168 238.7733253783685,27.23075930289559 239.16026102642792,27.657677002079403 239.50348822155158,28.120465301567528 239.79970149822338,28.614667297050058 240.04604816066234,29.13552355315222 240.24015575584235,29.67801793939875 240.38015492151186,30.236925938292494 240.46469738917412,30.806864960273924 240.49296896864993,31.382346181000987" stroke="black" stroke-width="0.4" /><polyline fill="none" points="37.939003892319406,62.56273225186527 37.90862284961817,63.18115258298356 37.81777230756365,63.79361718825024 37.667327206539795,64.39422769870937 37.45873641511111,64.97719990681816 37.19400877662639,65.53691947152745 36.87569376295909,66.06799598745529 36.506856921699494,66.56531489743732 36.09105035325569,67.02408674850825 35.632278502184754,67.43989331695207 35.13495959220272,67.80873015821166 34.60388307627488,68.12704517187896 34.044163511565586,68.39177281036368 33.46119130345681,68.60036360179237 32.860580792997666,68.75080870281622 32.24811618773099,68.84165924487074 31.629695856612702,68.87204028757196 31.011275525494415,68.84165924487074 30.39881092022774,68.75080870281622 29.798200409768597,68.60036360179237 29.21522820165982,68.39177281036368 28.65550863695052,68.12704517187896 28.124432121022686,67.80873015821166 27.62711321104065,67.43989331695207 27.16834135996972,67.02408674850825 26.752534791525907,66.56531489743732 26.383697950266317,66.06799598745529 26.065382936599015,65.53691947152745 25.800655298114293,64.97719990681816 25.59206450668561,64.39422769870937 25.441619405661754,63.79361718825024 25.350768863607236,63.18115258298356 25.320387820906003,62.56273225186527 25.350768863607236,61.94431192074698 25.441619405661754,61.3318473154803 25.59206450668561,60.73123680502117 25.800655298114293,60.14826459691239 26.065382936599015,59.588545032203086 26.383697950266317,59.05746851627525 26.752534791525907,58.56014960629322 27.168341359969716,58.10137775522229 27.627113211040648,57.685571186778475 28.124432121022682,57.31673434551889 28.65550863695052,56.99841933185158 29.215228201659816,56.733691693366865 29.798200409768597,56.52510090193818 30.398810920227735,56.37465580091432 31.011275525494415,56.2838052588598 31.629695856612702,56.25342421615857 32.248116187730986,56.2838052588598 32.860580792997666,56.37465580091432 33.46119130345681,56.525100901938174 34.044163511565586,56.733691693366865 34.60388307627488,56.99841933185158 35.13495959220272,57.31673434551889 35.632278502184754,57.685571186778475 36.09105035325568,58.10137775522229 36.506856921699494,58.560149606293216 36.87569376295909,59.05746851627525 37.19400877662639,59.588545032203086 37.45873641511111,60.148264596912384 37.667327206539795,60.73123680502116 37.81777230756365,61.3318473154803 37.90862284961817,61.94431192074698 37.939003892319406,62.56273225186527" stroke="black" stroke-width="0.4" /><polyline fill="none" points="223.0580770895288,177.5864239455921 223.04143929091552,177.92509411661584 222.99168612617146,178.26050270875666 222.90929674547095,178.5894195539193 222.79506460358877,178.90867700308056 222.65008981849687,179.21520043248117 222.475768576627,179.50603785393324 222.27377968683197,179.77838834408027 222.04606841253894,180.02962901882023 221.79482773779898,180.25734029311326 221.52247724765195,180.45932918290828 221.23163982619988,180.63365042477815 220.92511639679927,180.77862520987006 220.605858947638,180.89285735175224 220.27694210247537,180.97524673245275 219.94153351033455,181.0249998971968 219.6028633393108,181.0416376958101 219.26419316828705,181.0249998971968 218.92878457614623,180.97524673245275 218.5998677309836,180.89285735175224 218.28061028182233,180.77862520987006 217.97408685242172,180.63365042477815 217.68324943096965,180.45932918290828 217.41089894082262,180.25734029311326 217.15965826608266,180.02962901882023 216.93194699178963,179.77838834408027 216.7299581019946,179.50603785393324 216.55563686012474,179.21520043248117 216.41066207503283,178.90867700308056 216.29642993315065,178.5894195539193 216.21404055245014,178.26050270875666 216.16428738770608,177.92509411661584 216.1476495890928,177.5864239455921 216.16428738770608,177.24775377456834 216.21404055245014,176.91234518242752 216.29642993315065,176.58342833726488 216.41066207503283,176.26417088810362 216.55563686012474,175.957647458703 216.7299581019946,175.66681003725094 216.93194699178963,175.3944595471039 217.15965826608266,175.14321887236395 217.41089894082262,174.91550759807092 217.68324943096965,174.7135187082759 217.97408685242172,174.53919746640602 218.28061028182233,174.39422268131412 218.5998677309836,174.27999053943194 218.92878457614623,174.19760115873143 219.26419316828705,174.14784799398737 219.6028633393108,174.13121019537408 219.94153351033455,174.14784799398737 220.27694210247537,174.19760115873143 220.605858947638,174.27999053943194 220.92511639679927,174.39422268131412 221.23163982619988,174.53919746640602 221.52247724765195,174.7135187082759 221.79482773779898,174.91550759807092 222.04606841253894,175.14321887236395 222.27377968683197,175.3944595471039 222.475768576627,175.66681003725094 222.65008981849687,175.957647458703 222.79506460358877,176.26417088810362 222.90929674547095,176.58342833726488 222.99168612617146,176.91234518242752 223.04143929091552,177.24775377456834 223.0580770895288,177.5864239455921" stroke="black" stroke-width="0.4" /><polyline fill="none" points="20.828920668303653,100.61735591977082 20.80085282207969,101.18869005488581 20.716919592110383,101.75452192995664 20.577929301282907,102.3094022747112 20.385220502077757,102.84798728810107 20.140649085576616,103.36509010202677 19.84657040821673,103.85573073371305 19.505816608420837,104.31518404566532 19.121669331555935,104.73902525132675 18.697828125894507,105.12317252819165 18.238374813942237,105.46392632798755 17.747734182255957,105.75800500534743 17.230631368330254,106.00257642184857 16.69204635494039,106.19528522105372 16.137166010185826,106.3342755118812 15.571334135114997,106.4182087418505 15.0,106.44627658807447 14.428665864885005,106.4182087418505 13.862833989814176,106.3342755118812 13.30795364505961,106.19528522105372 12.769368631669746,106.00257642184857 12.252265817744044,105.75800500534743 11.761625186057765,105.46392632798755 11.302171874105495,105.12317252819165 10.878330668444065,104.73902525132675 10.494183391579165,104.31518404566532 10.153429591783269,103.85573073371305 9.859350914423384,103.36509010202677 9.614779497922243,102.84798728810107 9.422070698717091,102.3094022747112 9.283080407889617,101.75452192995664 9.19914717792031,101.18869005488581 9.171079331696347,100.61735591977082 9.19914717792031,100.04602178465582 9.283080407889617,99.480189909585 9.42207069871709,98.92530956483043 9.614779497922243,98.38672455144057 9.859350914423384,97.86962173751486 10.153429591783267,97.37898110582859 10.494183391579163,96.91952779387631 10.878330668444063,96.49568658821488 11.302171874105492,96.11153931134999 11.761625186057763,95.77078551155408 12.252265817744043,95.4767068341942 12.769368631669742,95.23213541769306 13.307953645059609,95.03942661848791 13.862833989814172,94.90043632766043 14.428665864885005,94.81650309769113 14.999999999999998,94.78843525146716 15.571334135114993,94.81650309769113 16.137166010185826,94.90043632766043 16.692046354940388,95.03942661848791 17.230631368330258,95.23213541769306 17.747734182255954,95.4767068341942 18.238374813942233,95.77078551155408 18.697828125894507,96.11153931134999 19.121669331555935,96.49568658821488 19.505816608420833,96.91952779387631 19.84657040821673,97.37898110582859 20.140649085576616,97.86962173751486 20.385220502077754,98.38672455144055 20.577929301282907,98.92530956483043 20.716919592110383,99.480189909585 20.80085282207969,100.04602178465582 20.828920668303653,100.61735591977082" stroke="black" stroke-width="0.4" /></g><g fill="none" id="accent" stroke="black" stroke-width="0.2"><polyline fill="none" points="24.786256582851717,141.2435702645916 24.762116154612485,141.73495997006856 24.689927355415243,142.22161732406087 24.570385402858662,142.69885555021557 24.404641551294144,143.16207858352985 24.194292004617065,143.6068253329694 23.941362543950678,144.02881264421387 23.648289018266514,144.42397654877422 23.317893885827193,144.78851140223094 22.953359032370457,145.11890653467026 22.558195127810116,145.41198006035444 22.136207816565655,145.6649095210208 21.69146106712608,145.8752590676979 21.228238033811806,146.0410029192624 20.75099980765711,146.16054487181898 20.264342453664817,146.23273367101623 19.772952748187844,146.25687409925547 19.28156304271087,146.23273367101623 18.79490568871858,146.16054487181898 18.317667462563886,146.0410029192624 17.854444429249607,145.8752590676979 17.409697679810034,145.6649095210208 16.987710368565573,145.41198006035444 16.59254646400523,145.11890653467026 16.2280116105485,144.78851140223094 15.897616478109176,144.42397654877422 15.60454295242501,144.02881264421387 15.351613491758625,143.6068253329694 15.141263945081544,143.16207858352985 14.975520093517028,142.69885555021557 14.855978140960447,142.22161732406087 14.783789341763203,141.73495997006856 14.759648913523971,141.2435702645916 14.783789341763201,140.75218055911463 14.855978140960447,140.26552320512232 14.975520093517027,139.78828497896762 15.141263945081544,139.32506194565337 15.351613491758624,138.8803151962138 15.60454295242501,138.45832788496932 15.897616478109175,138.06316398040897 16.228011610548496,137.69862912695226 16.59254646400523,137.36823399451293 16.987710368565573,137.07516046882876 17.409697679810034,136.8222310081624 17.854444429249604,136.6118814614853 18.317667462563882,136.44613760992078 18.794905688718575,136.3265956573642 19.28156304271087,136.25440685816696 19.772952748187844,136.23026642992772 20.264342453664813,136.25440685816696 20.75099980765711,136.3265956573642 21.228238033811802,136.44613760992078 21.691461067126085,136.6118814614853 22.136207816565655,136.8222310081624 22.558195127810116,137.07516046882876 22.953359032370457,137.36823399451293 23.31789388582719,137.69862912695226 23.64828901826651,138.06316398040897 23.941362543950678,138.45832788496932 24.19429200461706,138.8803151962138 24.40464155129414,139.32506194565335 24.570385402858662,139.78828497896762 24.68992735541524,140.26552320512232 24.762116154612485,140.75218055911463 24.786256582851717,141.2435702645916" stroke="black" stroke-width="0.2" /><polyline fill="none" points="26.286256582851717,141.2435702645916 26.25489324462078,141.8819856805629 26.161105276020088,142.51425280708506 26.005795906456974,143.13428256609726 25.790460850061073,143.73610373207748 25.517173901139596,144.3139204382084 25.188566962404494,144.86216799374327 24.80780469831062,145.37556647501967 24.378554057607012,145.84917157401077 23.904948958615925,146.27842221471437 23.39155047733952,146.65918447880824 22.843302921804653,146.98779141754335 22.265486215673718,147.26107836646483 21.6636650496935,147.47641342286073 21.0436352906813,147.63172279242383 20.41136816415916,147.72551076102454 19.772952748187844,147.75687409925547 19.13453733221653,147.72551076102454 18.502270205694387,147.63172279242383 17.88224044668219,147.47641342286073 17.280419280701974,147.26107836646483 16.70260257457104,146.98779141754335 16.15435501903617,146.65918447880824 15.640956537759765,146.27842221471437 15.167351438768677,145.84917157401077 14.73810079806507,145.37556647501967 14.357338533971191,144.86216799374327 14.028731595236092,144.3139204382084 13.755444646314615,143.73610373207748 13.540109589918714,143.13428256609726 13.3848002203556,142.51425280708506 13.291012251754907,141.8819856805629 13.259648913523971,141.2435702645916 13.291012251754907,140.6051548486203 13.3848002203556,139.97288772209814 13.540109589918714,139.35285796308594 13.755444646314613,138.7510367971057 14.028731595236092,138.17322009097478 14.357338533971191,137.62497253543992 14.73810079806507,137.11157405416353 15.167351438768675,136.63796895517243 15.640956537759761,136.20871831446883 16.154355019036167,135.82795605037495 16.702602574571035,135.49934911163984 17.28041928070197,135.22606216271836 17.88224044668219,135.01072710632246 18.502270205694384,134.85541773675936 19.13453733221653,134.76162976815866 19.772952748187844,134.73026642992772 20.411368164159153,134.76162976815866 21.0436352906813,134.85541773675936 21.663665049693495,135.01072710632246 22.265486215673718,135.22606216271836 22.84330292180465,135.49934911163984 23.391550477339518,135.82795605037495 23.904948958615925,136.20871831446883 24.378554057607012,136.63796895517243 24.807804698310616,137.11157405416353 25.188566962404494,137.62497253543992 25.517173901139593,138.17322009097478 25.790460850061073,138.7510367971057 26.005795906456974,139.35285796308594 26.161105276020088,139.97288772209814 26.25489324462078,140.6051548486203 26.286256582851717,141.2435702645916" stroke="black" stroke-width="0.2" /><polyline fill="none" points="27.786256582851717,141.2435702645916 27.747670334629078,142.02901139105725 27.632283196624932,142.80688829010924 27.441206410055287,143.56970958197894 27.176280148828006,144.31012888062511 26.840055797662128,145.0210155434474 26.435771380858313,145.69552334327267 25.967320378354724,146.32715640126514 25.439214229386835,146.9098317457906 24.856538884861394,147.43793789475848 24.224905826868923,147.90638889726208 23.55039802704365,148.31067331406587 22.83951136422135,148.64689766523176 22.099092065575192,148.91182392645905 21.336270773705493,149.10290071302867 20.5583938746535,149.21828785103284 19.772952748187844,149.25687409925547 18.987511621722188,149.21828785103284 18.209634722670195,149.10290071302867 17.446813430800496,148.91182392645905 16.706394132154337,148.64689766523176 15.99550746933204,148.3106733140659 15.320999669506767,147.90638889726208 14.689366611514297,147.43793789475848 14.106691266988856,146.9098317457906 13.578585118020964,146.32715640126514 13.110134115517374,145.69552334327267 12.70584969871356,145.0210155434474 12.369625347547684,144.31012888062511 12.104699086320402,143.56970958197894 11.913622299750756,142.80688829010924 11.79823516174661,142.02901139105725 11.759648913523971,141.2435702645916 11.79823516174661,140.45812913812594 11.913622299750756,139.68025223907395 12.104699086320402,138.91743094720425 12.369625347547682,138.17701164855808 12.70584969871356,137.4661249857358 13.110134115517372,136.79161718591052 13.578585118020964,136.15998412791805 14.106691266988854,135.5773087833926 14.689366611514291,135.04920263442472 15.320999669506765,134.58075163192112 15.99550746933204,134.17646721511733 16.706394132154333,133.84024286395143 17.446813430800496,133.57531660272414 18.20963472267019,133.38423981615452 18.98751162172219,133.26885267815035 19.772952748187844,133.23026642992772 20.558393874653493,133.26885267815035 21.336270773705493,133.38423981615452 22.09909206557519,133.57531660272414 22.83951136422135,133.84024286395143 23.55039802704365,134.1764672151173 24.22490582686892,134.58075163192112 24.856538884861394,135.04920263442472 25.43921422938683,135.5773087833926 25.96732037835472,136.15998412791805 26.435771380858313,136.79161718591052 26.840055797662128,137.4661249857358 27.176280148828003,138.17701164855808 27.441206410055287,138.91743094720425 27.632283196624932,139.68025223907395 27.747670334629078,140.45812913812594 27.786256582851717,141.2435702645916" stroke="black" stroke-width="0.2" /><polyline fill="none" points="286.96647939483825,107.87976611844503 286.9425644390752,108.36656622623276 286.87104988588334,108.8486781828705 286.75262445950364,109.3214589866666 286.5884286615301,109.78035550003223 286.38004378725583,110.22094829868534 286.1294766969348,110.63899423312238 285.8391404886206,111.03046729246755 285.5118312587134,111.39159737715843 285.1507011740225,111.71890660706565 284.75922811467734,112.00924281537978 284.3411821802403,112.25980990570085 283.9005893815872,112.46819477997515 283.44169286822154,112.63239057794866 282.96891206442547,112.75081600432834 282.48680010778776,112.82233055752025 282.0,112.84624551328329 281.51319989221224,112.82233055752025 281.03108793557453,112.75081600432834 280.55830713177846,112.63239057794866 280.0994106184128,112.46819477997515 279.6588178197597,112.25980990570085 279.24077188532266,112.00924281537979 278.8492988259775,111.71890660706565 278.4881687412866,111.39159737715843 278.1608595113794,111.03046729246755 277.8705233030652,110.63899423312238 277.61995621274417,110.22094829868534 277.4115713384699,109.78035550003223 277.24737554049636,109.3214589866666 277.12895011411666,108.8486781828705 277.0574355609248,108.36656622623276 277.03352060516175,107.87976611844503 277.0574355609248,107.3929660106573 277.12895011411666,106.91085405401957 277.24737554049636,106.43807325022347 277.4115713384699,105.97917673685784 277.61995621274417,105.53858393820472 277.8705233030652,105.12053800376769 278.1608595113794,104.72906494442252 278.4881687412866,104.36793485973163 278.8492988259775,104.04062562982442 279.24077188532266,103.75028942151029 279.6588178197597,103.49972233118922 280.0994106184128,103.29133745691492 280.55830713177846,103.12714165894141 281.03108793557453,103.00871623256172 281.51319989221224,102.93720167936982 282.0,102.91328672360677 282.48680010778776,102.93720167936982 282.96891206442547,103.00871623256172 283.44169286822154,103.12714165894141 283.9005893815872,103.29133745691492 284.3411821802403,103.49972233118922 284.75922811467734,103.75028942151027 285.1507011740225,104.04062562982442 285.5118312587134,104.36793485973163 285.8391404886206,104.7290649444225 286.1294766969348,105.12053800376769 286.38004378725583,105.53858393820472 286.5884286615301,105.97917673685782 286.75262445950364,106.43807325022347 286.87104988588334,106.91085405401957 286.9425644390752,107.3929660106573 286.96647939483825,107.87976611844503" stroke="black" stroke-width="0.2" /><polyline fill="none" points="288.46647939483825,107.87976611844503 288.43534152908353,108.51359193672711 288.34222780648815,109.14131366589469 288.1880349631019,109.75688600254828 287.974247960297,110.35438064857986 287.70292568377835,110.92804340392435 287.3766811153886,111.47234958265179 286.99865616866475,111.98205721871302 286.57249143049324,112.45225754893825 286.10229110026796,112.87842228710976 285.59258346420677,113.2564472338336 285.0482772854793,113.58269180222338 284.47461453013483,113.85401407874208 283.87711988410325,114.06780108154697 283.26154754744965,114.22199392493319 282.63382581828205,114.31510764752855 282.0,114.34624551328329 281.36617418171795,114.31510764752855 280.73845245255035,114.22199392493319 280.12288011589675,114.06780108154697 279.52538546986517,113.85401407874208 278.9517227145207,113.58269180222338 278.40741653579323,113.2564472338336 277.89770889973204,112.87842228710976 277.42750856950676,112.45225754893825 277.00134383133525,111.98205721871302 276.6233188846114,111.47234958265179 276.29707431622165,110.92804340392435 276.025752039703,110.35438064857988 275.8119650368981,109.75688600254828 275.65777219351185,109.14131366589469 275.56465847091647,108.51359193672711 275.53352060516175,107.87976611844503 275.56465847091647,107.24594030016296 275.65777219351185,106.61821857099538 275.8119650368981,106.00264623434178 276.025752039703,105.4051515883102 276.29707431622165,104.83148883296572 276.6233188846114,104.28718265423828 277.00134383133525,103.77747501817704 277.42750856950676,103.30727468795182 277.897708899732,102.88110994978031 278.40741653579323,102.50308500305647 278.9517227145207,102.17684043466669 279.52538546986517,101.90551815814798 280.12288011589675,101.69173115534309 280.73845245255035,101.53753831195688 281.36617418171795,101.44442458936152 282.0,101.41328672360677 282.63382581828205,101.44442458936152 283.26154754744965,101.53753831195688 283.87711988410325,101.69173115534309 284.47461453013483,101.90551815814798 285.0482772854793,102.17684043466669 285.59258346420677,102.50308500305647 286.10229110026796,102.88110994978031 286.57249143049324,103.30727468795182 286.9986561686647,103.77747501817704 287.3766811153886,104.28718265423828 287.70292568377835,104.83148883296572 287.974247960297,105.40515158831019 288.1880349631019,106.00264623434178 288.34222780648815,106.61821857099538 288.43534152908353,107.24594030016296 288.46647939483825,107.87976611844503" stroke="black" stroke-width="0.2" /><polyline fill="none" points="289.96647939483825,107.87976611844503 289.92811861909183,108.66061764722144 289.813405727093,109.43394914891888 289.6234454667003,110.19231301842999 289.36006725906395,110.92840579712751 289.02580758030086,111.63513850916334 288.6238855338424,112.30570493218119 288.15817184870883,112.93364714495848 287.633151602273,113.51291772071808 287.05388102651347,114.03793796715387 286.42593881373614,114.50365165228742 285.7553723907183,114.90557369874591 285.0486396786825,115.239833377509 284.31254689998497,115.5032115851453 283.55418303047384,115.69317184553803 282.7808515287764,115.80788473753684 282.0,115.84624551328329 281.2191484712236,115.80788473753684 280.44581696952616,115.69317184553803 279.68745310001503,115.5032115851453 278.9513603213175,115.239833377509 278.2446276092817,114.90557369874591 277.57406118626386,114.50365165228742 276.94611897348653,114.03793796715387 276.366848397727,113.51291772071808 275.84182815129117,112.93364714495848 275.3761144661576,112.30570493218119 274.97419241969914,111.63513850916334 274.63993274093605,110.92840579712751 274.3765545332997,110.19231301842999 274.186594272907,109.43394914891888 274.07188138090817,108.66061764722146 274.03352060516175,107.87976611844503 274.07188138090817,107.09891458966862 274.186594272907,106.32558308797118 274.3765545332997,105.56721921846008 274.63993274093605,104.83112643976257 274.97419241969914,104.12439372772673 275.3761144661576,103.45382730470888 275.84182815129117,102.82588509193158 276.366848397727,102.24661451617199 276.94611897348653,101.7215942697362 277.57406118626386,101.25588058460265 278.2446276092817,100.85395853814416 278.9513603213175,100.51969885938107 279.68745310001503,100.25632065174479 280.44581696952616,100.06636039135203 281.2191484712236,99.95164749935323 282.0,99.91328672360677 282.7808515287764,99.95164749935323 283.55418303047384,100.06636039135203 284.31254689998497,100.25632065174477 285.0486396786825,100.51969885938107 285.7553723907183,100.85395853814416 286.42593881373614,101.25588058460265 287.05388102651347,101.7215942697362 287.633151602273,102.24661451617199 288.15817184870883,102.82588509193157 288.6238855338424,103.45382730470888 289.02580758030086,104.12439372772673 289.36006725906395,104.83112643976256 289.6234454667003,105.56721921846008 289.813405727093,106.32558308797118 289.92811861909183,107.09891458966862 289.96647939483825,107.87976611844503" stroke="black" stroke-width="0.2" /><polyline fill="none" points="167.71276460516674,195.0 167.69099040123962,195.44322410309874 167.625877486945,195.88217971579368 167.51805293524194,196.31263945557706 167.3685551555062,196.7304577598415 167.17882389308042,197.13161080991424 166.95068636373944,197.5122352826305 166.68633965660348,197.86866555624755 166.38832957496885,198.1974690123858 166.0595261188306,198.49547909402042 165.70309584521357,198.75982580115638 165.3224713724973,198.98796333049737 164.92131832242455,199.17769459292313 164.5035000181601,199.32719237265889 164.07304027837674,199.43501692436195 163.6340846656818,199.50012983865656 163.19086056258305,199.52190404258369 162.7476364594843,199.50012983865656 162.30868084678937,199.43501692436195 161.878221107006,199.32719237265889 161.46040280274156,199.17769459292313 161.05924975266882,198.98796333049737 160.67862527995254,198.75982580115638 160.3221950063355,198.49547909402042 159.99339155019726,198.1974690123858 159.69538146856263,197.86866555624755 159.43103476142667,197.5122352826305 159.2028972320857,197.13161080991424 159.01316596965992,196.7304577598415 158.86366818992417,196.31263945557706 158.7558436382211,195.88217971579368 158.6907307239265,195.44322410309874 158.66895651999937,195.0 158.6907307239265,194.55677589690126 158.7558436382211,194.11782028420632 158.86366818992417,193.68736054442294 159.01316596965992,193.2695422401585 159.2028972320857,192.86838919008576 159.43103476142667,192.4877647173695 159.69538146856263,192.13133444375245 159.99339155019726,191.8025309876142 160.3221950063355,191.50452090597958 160.67862527995254,191.24017419884362 161.05924975266882,191.01203666950263 161.46040280274156,190.82230540707687 161.878221107006,190.67280762734111 162.30868084678937,190.56498307563805 162.7476364594843,190.49987016134344 163.19086056258305,190.47809595741631 163.6340846656818,190.49987016134344 164.07304027837674,190.56498307563805 164.5035000181601,190.67280762734111 164.92131832242455,190.82230540707687 165.3224713724973,191.01203666950263 165.70309584521357,191.24017419884362 166.0595261188306,191.50452090597958 166.38832957496885,191.8025309876142 166.68633965660348,192.13133444375245 166.95068636373944,192.4877647173695 167.17882389308042,192.86838919008576 167.3685551555062,193.2695422401585 167.51805293524194,193.68736054442294 167.625877486945,194.11782028420632 167.69099040123962,194.55677589690126 167.71276460516674,195.0" stroke="black" stroke-width="0.2" /><polyline fill="none" points="169.21276460516674,195.0 169.18376749124792,195.59024981359306 169.09705540754985,196.17481519881787 168.95346343884023,196.74806647145874 168.75437445427312,197.30448290838913 168.50170578960294,197.83870591515324 168.19789078219324,198.3455906321599 167.8458553366476,198.820255482493 167.44898974674868,199.25812918416563 167.01111604507605,199.65499477406453 166.53645119474297,200.0070302196102 166.0295664777363,200.31084522701988 165.4953434709722,200.56351389169006 164.9389270340418,200.76260287625718 164.36567576140092,200.9061948449668 163.78111037617614,200.99290692866487 163.19086056258305,201.02190404258369 162.60061074899,200.99290692866487 162.0160453637652,200.9061948449668 161.4427940911243,200.76260287625718 160.88637765419392,200.56351389169006 160.3521546474298,200.31084522701988 159.84526993042314,200.0070302196102 159.37060508009006,199.65499477406453 158.93273137841743,199.25812918416563 158.53586578851852,198.820255482493 158.18383034297287,198.3455906321599 157.88001533556317,197.83870591515324 157.627346670893,197.30448290838913 157.42825768632588,196.74806647145874 157.28466571761626,196.17481519881787 157.1979536339182,195.5902498135931 157.16895651999937,195.0 157.1979536339182,194.40975018640694 157.28466571761626,193.82518480118213 157.42825768632588,193.25193352854126 157.627346670893,192.69551709161087 157.88001533556317,192.16129408484676 158.18383034297287,191.6544093678401 158.53586578851852,191.179744517507 158.93273137841743,190.74187081583437 159.37060508009006,190.34500522593547 159.84526993042314,189.9929697803898 160.3521546474298,189.68915477298012 160.88637765419392,189.43648610830994 161.4427940911243,189.23739712374282 162.0160453637652,189.0938051550332 162.60061074899,189.00709307133513 163.19086056258305,188.97809595741631 163.78111037617612,189.00709307133513 164.36567576140092,189.0938051550332 164.9389270340418,189.23739712374282 165.4953434709722,189.43648610830994 166.0295664777363,189.68915477298012 166.53645119474297,189.9929697803898 167.01111604507605,190.34500522593547 167.44898974674868,190.74187081583437 167.8458553366476,191.179744517507 168.19789078219324,191.6544093678401 168.50170578960294,192.16129408484676 168.75437445427312,192.69551709161087 168.95346343884023,193.25193352854126 169.09705540754985,193.82518480118213 169.18376749124792,194.40975018640694 169.21276460516674,195.0" stroke="black" stroke-width="0.2" /><polyline fill="none" points="170.71276460516674,195.0 170.6765445812562,195.7372755240874 170.5682333281547,196.46745068184208 170.38887394243855,197.18349348734046 170.14019375304005,197.87850805693677 169.82458768612548,198.54580102039225 169.44509520064707,199.1789459816893 169.0053710166917,199.77184540873847 168.50964991852848,200.31878935594543 167.96270597132153,200.81451045410864 167.36980654427236,201.25423463806402 166.7366615829753,201.63372712354243 166.06936861951982,201.949333190457 165.3743540499235,202.1980133798555 164.65831124442514,202.37737276557164 163.92813608667046,202.48568401867314 163.19086056258305,202.52190404258369 162.45358503849565,202.48568401867314 161.72340988074097,202.37737276557164 161.0073670752426,202.1980133798555 160.3123525056463,201.949333190457 159.6450595421908,201.63372712354243 159.01191458089374,201.25423463806402 158.41901515384458,200.81451045410864 157.87207120663763,200.31878935594543 157.3763501084744,199.77184540873847 156.93662592451903,199.1789459816893 156.55713343904063,198.54580102039225 156.24152737212606,197.87850805693677 155.99284718272756,197.18349348734046 155.81348779701142,196.46745068184208 155.70517654390991,195.7372755240874 155.66895651999937,195.0 155.70517654390991,194.2627244759126 155.81348779701142,193.53254931815792 155.99284718272756,192.81650651265954 156.24152737212606,192.12149194306323 156.55713343904063,191.45419897960775 156.93662592451903,190.8210540183107 157.3763501084744,190.22815459126153 157.87207120663763,189.68121064405457 158.41901515384458,189.1854895458914 159.01191458089374,188.74576536193598 159.6450595421908,188.36627287645757 160.3123525056463,188.050666809543 161.0073670752426,187.8019866201445 161.72340988074097,187.62262723442836 162.45358503849565,187.51431598132686 163.19086056258305,187.47809595741631 163.92813608667046,187.51431598132686 164.65831124442514,187.62262723442836 165.3743540499235,187.8019866201445 166.06936861951982,188.050666809543 166.7366615829753,188.36627287645757 167.36980654427236,188.74576536193598 167.96270597132153,189.18548954589136 168.50964991852848,189.68121064405457 169.00537101669167,190.22815459126153 169.44509520064707,190.8210540183107 169.82458768612548,191.45419897960775 170.14019375304005,192.12149194306323 170.38887394243855,192.81650651265954 170.5682333281547,193.53254931815792 170.6765445812562,194.2627244759126 170.71276460516674,195.0" stroke="black" stroke-width="0.2" /></g><g fill="none" id="highlights" stroke="#4A90E2" stroke-width="0.5"><polyline fill="none" points="170.1831623286101,195.0 170.1494924844162,195.6853654234273 170.04880721083993,196.36413040316816 169.8820761621059,197.02975806141697 169.650905049358,197.67583803995572 169.35752017678288,198.29614823540783 169.00474700108398,198.88471472149504 168.5959829207887,199.43586928121317 168.13516455744346,199.9443039948604 167.62672984379623,200.40512235820566 167.0755752840781,200.81388643850093 166.48700879799088,201.16665961419983 165.86669860253878,201.46004448677493 165.22061862400002,201.69121559952285 164.55499096575122,201.85794664825687 163.87622598601035,201.95863192183316 163.19086056258305,201.99230176602705 162.50549513915576,201.95863192183316 161.8267301594149,201.85794664825687 161.16110250116608,201.69121559952285 160.51502252262733,201.46004448677493 159.89471232717523,201.16665961419983 159.30614584108804,200.81388643850093 158.75499128136988,200.40512235820566 158.24655656772265,199.9443039948604 157.7857382043774,199.43586928121317 157.37697412408212,198.88471472149504 157.02420094838322,198.29614823540783 156.73081607580812,197.67583803995572 156.4996449630602,197.02975806141697 156.33291391432618,196.36413040316816 156.2322286407499,195.6853654234273 156.198558796556,195.0 156.2322286407499,194.3146345765727 156.33291391432618,193.63586959683184 156.4996449630602,192.97024193858303 156.73081607580812,192.32416196004428 157.02420094838322,191.70385176459217 157.37697412408212,191.11528527850498 157.7857382043774,190.56413071878683 158.24655656772265,190.0556960051396 158.75499128136988,189.59487764179437 159.306145841088,189.18611356149907 159.89471232717523,188.83334038580017 160.51502252262733,188.53995551322507 161.16110250116608,188.30878440047715 161.8267301594149,188.14205335174316 162.50549513915576,188.04136807816684 163.19086056258305,188.00769823397295 163.87622598601035,188.04136807816684 164.55499096575122,188.14205335174313 165.22061862400002,188.30878440047715 165.86669860253878,188.53995551322507 166.48700879799088,188.83334038580017 167.07557528407807,189.18611356149907 167.62672984379623,189.59487764179437 168.13516455744346,190.0556960051396 168.59598292078869,190.56413071878683 169.00474700108398,191.11528527850496 169.35752017678288,191.70385176459217 169.650905049358,192.32416196004428 169.8820761621059,192.97024193858303 170.0488072108399,193.63586959683184 170.1494924844162,194.3146345765727 170.1831623286101,195.0" stroke="#4A90E2" stroke-width="0.5" /></g><g fill="none" id="annotations" stroke="black" stroke-width="0.3" /><text fill="#999999" font-family="monospace" font-size="6pt" x="15" y="15">0,0</text><text fill="#999999" font-family="monospace" font-size="6pt" x="282" y="15">267,0</text><text fill="#999999" font-family="monospace" font-size="6pt" x="15" y="195">0,180</text><text fill="black" font-family="monospace" font-size="5pt" x="24.772952748187844" y="141.2435702645916">svg_exporter.py</text><text fill="black" font-family="monospace" font-size="5pt" x="287.0" y="107.87976611844503">shapes.py</text><text fill="black" font-family="monospace" font-size="5pt" x="168.19086056258305" y="195.0">composition.py</text><text fill="black" font-family="monospace" font-size="5pt" x="267.21537463580574" y="147.8607881070798">noise.py</text><text fill="black" font-family="monospace" font-size="5pt" x="60.9809839221174" y="177.25174217835905">spiral.py</text><text fill="black" font-family="monospace" font-size="5pt" x="184.23648356796966" y="17.265404311385844">lsystem.py</text><text fill="black" font-family="monospace" font-size="5pt" x="36.6296958566127" y="62.56273225186527">flow_field.py</text><text fill="black" font-family="monospace" font-size="5pt" x="239.6217385002631" y="31.382346181000987">grid.py</text><text fill="black" font-family="monospace" font-size="5pt" x="20.0" y="100.61735591977082">dendrite_rus...</text><text fill="black" font-family="monospace" font-size="5pt" x="280.6342242252366" y="64.53506160909002">truchet.py</text><text fill="black" font-family="monospace" font-size="5pt" x="125.0722336110952" y="15.0">voronoi.py</text><text fill="black" font-family="monospace" font-size="5pt" x="114.90161408026735" y="183.78324250506375">dendrite.py</text><text fill="black" font-family="monospace" font-size="5pt" x="224.6028633393108" y="177.5864239455921">__init__.py</text><text fill="black" font-family="monospace" font-size="5pt" x="67.52012940310146" y="28.642750284820146">__init__.py</text></svg>